M48
;Layer_Color=9474304
;FILE_FORMAT=4:4
METRIC
;TYPE=PLATED
T1F00S00C0.3000
T3F00S00C0.7000
T4F00S00C0.7100
T5F00S00C1.5000
T6F00S00C4.0000
;TYPE=NON_PLATED
T8F00S00C0.7500
T9F00S00C1.0500
T10F00S00C3.0000
%
T01
X-00145900Y-00520000
X-00132080Y-00504190
X-00131000Y-00492000
X-00109000Y-00486450
X-00095905Y-00495157
X-00093980Y-00519430
X-00082400Y-00520000
X-00069700
X-00057000
X-00044300
X-00049000Y-00512999
X-00050800Y-00533400
X-00038100
X-00031600Y-00520000
X-00022860Y-00518160
X-00019047Y-00479450
X-00017780Y-00469900
X-00036830Y-00476250
X-00039370Y-00464378
X-00054036Y-00488950
X-00063500Y-00533400
X-00076200
X-00089215Y-00466450
X00003878Y-00483839
X00015884Y-00473710
X00030000Y-00487000
X00053000Y-00490999
X00063987Y-00484000
X00068580Y-00471170
X00047505Y-00476762
X00044600Y-00520000
X00031900
X00038100Y-00533400
X00050800
X00057300Y-00520000
X00070000
X00082558
X00093000Y-00516000
X00076775Y-00498000
X00083193Y-00489500
X00104000Y-00490000
X00115125Y-00497399
X00139500Y-00498000
X00133000Y-00516000
X00146200Y-00520000
X00158900
X00171600
X00184800
X00191000Y-00498000
X00233556Y-00499343
X00247800Y-00511000
X00165367Y-00542000
X00155728Y-00473549
X00012513Y-00498000
X-00171450Y-00501650
X-00171300Y-00520000
X-00184000
X-00193040Y-00508000
X-00158600Y-00520000
X-00152400Y-00533400
X-00181500Y-00471298
X-00247500Y-00520000
X-00239650Y-00452000
X-00235667Y-00426000
X-00231374Y-00402000
X-00229000Y-00386000
X-00214984Y-00352557
X-00212090Y-00339090
Y-00326364
X-00187000Y-00324000
Y-00339000
X-00187608Y-00351250
X-00179800Y-00355680
X-00196853Y-00369734
Y-00408474
X-00186550Y-00410718
X-00178000Y-00400853
X-00160633Y-00398055
X-00153513Y-00390737
X-00147722Y-00337000
X-00156167Y-00299350
X-00156032Y-00286650
X-00155995Y-00273950
X-00153513Y-00259000
X-00181227Y-00270698
X-00185000Y-00288000
X-00181000Y-00310000
X-00219293Y-00287999
X-00218976Y-00249994
X-00228000Y-00214000
X-00242000Y-00180000
X-00233527Y-00155097
X-00207674Y-00135711
X-00183000Y-00156950
X-00181601Y-00172000
X-00174300Y-00181610
X-00153670Y-00184150
X-00152464Y-00168974
X-00160786Y-00161290
X-00160925Y-00149321
X-00153670Y-00144780
X-00155807Y-00135890
X-00170180Y-00146050
X-00169000Y-00120650
X-00153000Y-00100000
X-00154090Y-00087630
X-00175800Y-00078740
X-00180000Y-00071000
X-00194310Y-00088900
X-00226774Y-00102390
X-00236122Y-00074930
X-00193858Y-00194000
X-00194119Y-00229638
X-00130507Y-00224147
X-00121484Y-00239000
X-00110815Y-00259000
X-00078966Y-00261259
X-00069700Y-00264185
X-00070000Y-00256000
X-00069000Y-00280550
X-00057017Y-00297320
X-00051900Y-00310549
X-00053861Y-00320286
X-00043513Y-00317000
X-00045393Y-00326549
X-00045807Y-00335000
X-00058757Y-00336572
X-00070500Y-00336430
X-00070000Y-00357354
X-00091542Y-00358999
X-00101000
X-00117000Y-00360523
X-00118535Y-00326364
X-00098142Y-00327425
X-00093000Y-00337000
X-00081048Y-00382547
X-00069384Y-00381846
X-00087568Y-00411808
X-00103368Y-00396191
X-00128350Y-00406349
X-00142000Y-00405753
X-00144625Y-00440800
X-00128447Y-00431153
X-00099476Y-00440524
X-00044525Y-00443000
X-00028000Y-00439800
X-00012629Y-00444571
X-00012703Y-00453670
X-00011430Y-00463550
X00007024Y-00453390
X00017240Y-00455365
X00027940Y-00454927
X00025157Y-00403860
X00026294Y-00394161
X00027465Y-00363000
X00018064Y-00363220
X00005154Y-00381431
X-00020747Y-00392075
X-00029000Y-00371698
X-00028000Y-00361999
X-00016800Y-00360952
X-00005556Y-00295726
X-00007660Y-00287020
X00012400Y-00287971
X00026670Y-00293637
X00036143Y-00288290
X00038100Y-00276860
X00050100Y-00281940
X00046843Y-00268400
X00042776Y-00296329
X00065632Y-00300990
X00062615Y-00311808
X00064076Y-00325400
X00093173Y-00326853
X00127000Y-00325147
X00140000Y-00320000
X00132345Y-00312080
X00158900Y-00293000
X00186000
Y-00333000
X00147872Y-00345244
X00135000Y-00358474
X00164783Y-00362155
X00166367Y-00394367
X00187120Y-00391000
X00201976Y-00427474
X00215000Y-00423000
X00216074Y-00434875
X00240030Y-00445770
X00185635Y-00445000
X00142558Y-00430271
X00126815Y-00434815
X00105000Y-00464000
X00096474Y-00412853
X00080010Y-00422910
X00050000Y-00418157
X00058458Y-00387000
X00068919Y-00376565
X00090765Y-00386200
X00113000Y-00342999
X00104000Y-00286117
X00095000Y-00285846
X00077121Y-00275798
X00083000Y-00260000
X00071843Y-00251618
X00073999Y-00207157
X00074526Y-00195157
X00085950Y-00181853
X00085499Y-00171425
X00094851Y-00172000
X00100330Y-00185420
X00101453Y-00195414
X00090342Y-00211000
X00127923Y-00196920
X00136510Y-00196785
X00139166Y-00171030
X00144986Y-00176530
X00133666Y-00164763
X00127502Y-00157716
X00155333Y-00146292
X00153157Y-00130810
X00140000Y-00121410
X00149526Y-00111760
X00146839Y-00102827
X00165425Y-00085153
X00177121Y-00090714
X00187120Y-00073394
X00213610Y-00123294
X00243641Y-00118285
X00233000Y-00139000
X00245000Y-00164853
X00233121Y-00205490
X00184217Y-00203750
X00186000Y-00231000
X00160217Y-00224000
X00144668Y-00223550
X00130239Y-00240000
X00132345Y-00257250
X00160217Y-00185037
X00161785Y-00163000
X00168828Y-00157716
X00082424Y-00150000
X00066953Y-00135890
X00059690Y-00140970
X00060000Y-00129540
X00059690Y-00113920
X00069231Y-00119420
X00059690Y-00097790
X00050800
X00041800Y-00097765
X00052500Y-00083300
X00076200Y-00074930
X00100120Y-00080360
X00104474Y-00069000
X00099600Y-00106000
X00097000Y-00134123
X00052794Y-00166033
X00044450Y-00161290
X00036000Y-00160263
X00015240Y-00144780
X00017780Y-00135747
X00007268Y-00139399
X00005712Y-00152837
X00009302Y-00125232
X00015240Y-00110490
X00010029Y-00103425
X-00001000Y-00108000
X-00009000Y-00104511
X-00018183Y-00100973
X-00010000Y-00086878
X00004076Y-00086725
X00016650Y-00085578
X-00044300Y-00098854
X-00045114Y-00123854
X-00076897Y-00142957
X-00085664Y-00139700
X-00093744Y-00148172
X-00092501Y-00159959
X-00065005Y-00170251
X-00065000Y-00200000
X-00113195Y-00206000
Y-00214000
X-00146355Y-00197066
X-00146964Y-00175847
X-00135792Y-00177331
X-00125147Y-00153795
X-00120016Y-00139532
X-00105000Y-00109000
X-00057500Y-00083300
X-00018676Y-00213360
X-00015595Y-00224999
X-00015240Y-00257656
X-00003663Y-00261620
X-00032000Y-00293879
X-00040000Y-00288379
X-00054036Y-00424946
Y-00461010
X00230338Y-00377905
X00260706Y-00128272
X00285000Y-00065000
X00281255Y00000155
X00269240Y00063682
X00257282Y00064442
X00288957Y00071480
X00242750Y00069797
X00236220Y00077470
X00230576Y00089882
X00225000Y00101000
X00231000Y00106621
X00228600Y00116840
X00209550Y00127000
X00208280Y00137160
X00177600Y00139700
X00171600Y00131975
X00171713Y00149163
X00149000Y00144000
X00151130Y00165100
X00159388Y00187645
X00171450Y00180340
X00186924Y00164328
X00201976Y00167489
X00229865Y00184000
X00187000Y00234000
X00148173Y00206122
X00135496Y00207916
X00108000Y00197000
X00099000Y00178948
X00085000Y00175000
X00085950Y00166000
X00099500Y00158981
X00120000Y00142266
X00116000Y00117147
X00114589Y00108555
X00115000Y00100000
X00129361Y00112147
X00138921Y00117425
X00156793Y00120044
X00177946Y00108286
X00192635Y00094200
X00189238Y00072753
X00185635Y00049315
X00176530Y00050425
X00200526Y00047836
X00208280Y00040000
X00226853Y00048761
X00219000Y00071000
X00225000Y00010500
X00234000Y-00005000
X00234000Y-00013000
X00243840Y-00022860
X00212090Y-00024025
X00193935Y-00012465
X00182335Y-00012464
X00188135Y-00006664
X00182335Y-00000865
X00193935Y-00000864
X00167794Y00011346
X00160709Y00020320
X00144780Y00012700
X00146209Y00032000
X00112000Y00031569
X00108222Y00013970
X00112000Y00004740
X00107569Y-00004802
X00109423Y-00015625
X00103307Y-00035560
X00092157Y-00029937
X00074347Y-00024840
X00071297Y-00013057
X00059800Y-00023800
X00059721Y-00032344
X00074930Y-00040640
X00076974Y-00052070
X00099020Y-00051184
X00089697Y-00007259
X00084412Y00012650
X00061275Y00013200
X00041910Y00016854
X00042599Y00028374
X00040659Y00000345
X00040510Y-00013469
X00041259Y-00042463
X00015240Y-00043180
X00002992Y-00041119
X00003810Y-00025400
X00002385Y-00002304
X00007084Y00005199
X00011433Y00028374
X-00022000Y00025610
X-00026670Y00044450
X-00024000Y00053190
X-00015240Y00043180
X-00007620Y00060157
X00006590Y00060960
X00003810Y00078740
X00012000Y00079000
X00005000Y00088000
X00022000Y00070000
X00047000Y00092000
X00045843Y00101947
X00053000Y00118000
X00053000Y00126000
X00049275Y00138747
X00009000Y00136000
X00000000Y00148642
X-00011430Y00154940
X-00019843Y00155595
X-00028566Y00157365
X-00033265Y00150000
X-00051441Y00145972
X-00050000Y00164000
X-00047575Y00172239
X-00036307Y00171402
X-00028307
X-00018378Y00170679
X-00014000Y00179089
X-00003154Y00175845
X00006853Y00185165
X00028657Y00186343
X00036000Y00191000
X00042000Y00197000
X00048000Y00203000
X00054000Y00209000
X00066000Y00207000
X00067000Y00196000
X00060000Y00186000
X00063000Y00176198
X00085000Y00190000
Y00204000
X00082000Y00218000
X00097000
X00113000Y00227000
X00118000Y00249000
X00122933Y00271000
X00063000Y00218000
X00048000
X00033000
X00018000
X00003000
X-00012000
X-00024000Y00235031
X-00028124Y00261000
X-00040319Y00262000
X-00031000Y00279109
X-00034000Y00298000
X-00090000Y00249000
X-00100000Y00240000
X-00096000Y00188029
X-00091353Y00170147
X-00087379Y00157194
X-00093000Y00148073
X-00094853Y00133103
X-00117150Y00135500
X-00123203Y00141465
X-00129298Y00159300
X-00137500
Y00167502
X-00145702Y00159300
X-00137500Y00151098
X-00122000Y00181740
X-00124000Y00203351
X-00142000Y00202000
X-00130000Y00266000
X-00063260Y00203351
X-00064633Y00185000
X-00054181Y00179951
X-00067840Y00165853
X-00075330Y00154040
X-00068441Y00132350
X-00062854Y00125730
X-00041129Y00123200
X-00039000Y00114000
X-00027000
X-00022000Y00129600
X-00007501Y00120000
X-00035414Y00101000
X-00035282Y00085975
X-00024000Y00074000
X-00045000Y00047500
X-00087165Y00048500
X-00093980Y00061328
X-00088597Y00075272
Y00084172
X-00110815Y00097474
X-00125000Y00110000
X-00128000Y00074000
X-00128270Y00066040
X-00145000Y00065000
Y00074000
X-00127000Y00000000
X-00118915Y00000047
X-00118110Y-00024130
X-00124474Y-00030490
X-00091936Y-00046745
X-00083715Y-00062614
X-00059051Y-00039278
X-00050616Y-00038474
X-00042500Y-00040000
X-00025000Y-00047186
X-00022000Y-00056400
X-00003026Y-00053749
X-00001000Y-00065000
X00053715Y-00064415
X00071428Y00031569
X00073353Y00040084
X00061317Y00043683
X00078952Y00068055
X00098628Y00076843
X00083000Y00092874
X00075000Y00093000
X00067000Y00092874
X00082558Y00119878
X00014238Y00160000
X-00027940Y00185165
X-00058000Y00016000
X-00058500Y00006561
X-00062157Y-00011000
X-00062396Y-00020236
X-00053369Y-00020580
X-00072390Y-00016510
X-00077921Y-00008890
X-00078025Y00013020
X-00083820Y00019468
X-00090202Y00026000
X-00070295
X-00030000Y-00023000
X00158000Y-00028000
X00163000Y-00014165
X00154000Y-00002000
X00148470Y00073222
X00245717Y00029916
X-00168699Y00041000
X-00166370Y00050853
X-00170000Y00069929
X-00172000Y00080000
X-00173990Y00099060
X-00157993Y00106934
X-00161020Y00142200
X-00165000Y00150121
X-00163147Y00158493
X-00171000Y00166000
Y00174000
X-00159125Y00170316
X-00153404Y00205000
X-00187000Y00234000
X-00200896Y00155622
X-00205000Y00144078
X-00195879Y00118623
X-00226060Y00120650
X-00234800Y00118000
X-00269000Y00132000
X-00288000Y00066000
X-00249000Y00063000
X-00219000Y00069000
X-00210000
X-00201000
Y00079000
X-00210000
X-00219000
X-00220000Y00043495
X-00194943Y00044438
X-00187960Y00033020
X-00201930Y00032700
X-00204624Y00024147
X-00209474Y-00009963
X-00212278Y-00029425
X-00213970Y-00041078
X-00226700Y-00055215
X-00238405Y-00065977
X-00259457Y-00064825
X-00190500Y-00060960
X-00177800Y-00058420
X-00164211Y-00061678
X-00167826Y-00047178
X-00155627Y-00050550
X-00158933Y-00026294
X-00148208Y-00021839
X-00165910Y-00015914
X-00175143Y-00015737
X-00184647Y-00009963
X-00186000Y-00037000
X-00243118Y00022860
X-00281250Y-00000155
X-00234000Y00188000
T03
X-00194119Y-00466700
Y-00454000
Y-00441300
X-00228347Y-00369985
X-00227019Y-00357354
X-00225692Y-00344724
X-00224364Y-00332093
X-00223037Y-00319463
T04
X00252505Y-00012545
Y00000155
Y00012855
X-00252500Y00012545
Y-00000155
Y-00012855
T05
X00263113Y00095765
X00236149Y00150444
X00197990Y00197990
X00150444Y00236149
X-00150444
X-00197990Y00197990
X-00236149Y00150444
X-00263113Y00095765
T06
X-00114150Y-00542135
X00000150
X00114450
X00216050
X-00215750Y-00542135
T08
X-00121565Y-00391565
T09
X-00148435Y-00418435
T10
X-00087000Y-00233000
X00087000
X00140110Y00094500
X-00140010
M30
