G04*
G04 #@! TF.GenerationSoftware,Altium Limited,Altium Designer,18.1.9 (240)*
G04*
G04 Layer_Color=16711935*
%FSLAX44Y44*%
%MOMM*%
G71*
G01*
G75*
%ADD12C,0.1000*%
%ADD19C,0.1001*%
%ADD20R,0.5100X0.6000*%
%ADD21C,1.0000*%
%ADD25R,0.3000X0.8000*%
%ADD29R,0.7000X0.4000*%
%ADD31R,0.4000X0.4800*%
%ADD32R,0.3750X0.4170*%
%ADD35R,0.6200X0.6500*%
%ADD36R,0.6000X0.5100*%
%ADD39R,0.6500X0.6200*%
%ADD54R,1.0000X6.1470*%
%ADD56R,0.4800X0.4000*%
%ADD57R,0.4170X0.3750*%
G04:AMPARAMS|DCode=58|XSize=0.51mm|YSize=0.6mm|CornerRadius=0mm|HoleSize=0mm|Usage=FLASHONLY|Rotation=135.000|XOffset=0mm|YOffset=0mm|HoleType=Round|Shape=Rectangle|*
%AMROTATEDRECTD58*
4,1,4,0.3925,0.0318,-0.0318,-0.3925,-0.3925,-0.0318,0.0318,0.3925,0.3925,0.0318,0.0*
%
%ADD58ROTATEDRECTD58*%

G04:AMPARAMS|DCode=59|XSize=0.51mm|YSize=0.6mm|CornerRadius=0mm|HoleSize=0mm|Usage=FLASHONLY|Rotation=45.000|XOffset=0mm|YOffset=0mm|HoleType=Round|Shape=Rectangle|*
%AMROTATEDRECTD59*
4,1,4,0.0318,-0.3925,-0.3925,0.0318,-0.0318,0.3925,0.3925,-0.0318,0.0318,-0.3925,0.0*
%
%ADD59ROTATEDRECTD59*%

G04:AMPARAMS|DCode=64|XSize=0.65mm|YSize=0.62mm|CornerRadius=0mm|HoleSize=0mm|Usage=FLASHONLY|Rotation=225.000|XOffset=0mm|YOffset=0mm|HoleType=Round|Shape=Rectangle|*
%AMROTATEDRECTD64*
4,1,4,0.0106,0.4490,0.4490,0.0106,-0.0106,-0.4490,-0.4490,-0.0106,0.0106,0.4490,0.0*
%
%ADD64ROTATEDRECTD64*%

%ADD68R,1.0414X0.8890*%
%ADD87P,1.5132X4X129.0*%
%ADD88C,1.0700*%
%ADD89C,1.5000*%
G04:AMPARAMS|DCode=90|XSize=1.05mm|YSize=2.15mm|CornerRadius=0mm|HoleSize=0mm|Usage=FLASHONLY|Rotation=13.909|XOffset=0mm|YOffset=0mm|HoleType=Round|Shape=Round|*
%AMOVALD90*
21,1,1.1000,1.0500,0.0000,0.0000,103.9*
1,1,1.0500,0.1322,-0.5339*
1,1,1.0500,-0.1322,0.5339*
%
%ADD90OVALD90*%

%ADD91C,5.0000*%
%ADD92R,1.0700X1.0700*%
%ADD93C,3.0000*%
G04:AMPARAMS|DCode=94|XSize=0.7mm|YSize=1.5mm|CornerRadius=0.35mm|HoleSize=0mm|Usage=FLASHONLY|Rotation=90.000|XOffset=0mm|YOffset=0mm|HoleType=Round|Shape=RoundedRectangle|*
%AMROUNDEDRECTD94*
21,1,0.7000,0.8000,0,0,90.0*
21,1,0.0000,1.5000,0,0,90.0*
1,1,0.7000,0.4000,0.0000*
1,1,0.7000,0.4000,0.0000*
1,1,0.7000,-0.4000,0.0000*
1,1,0.7000,-0.4000,0.0000*
%
%ADD94ROUNDEDRECTD94*%
%ADD95C,1.1000*%
%ADD96C,0.6500*%
%ADD97C,0.7500*%
%ADD98C,1.0500*%
%ADD107C,0.5000*%
%ADD110R,2.1000X3.0000*%
%ADD111R,0.8000X1.6000*%
%ADD112R,0.4000X1.0000*%
%ADD113R,0.5000X0.7000*%
%ADD114R,0.7000X0.5000*%
%ADD115R,0.9000X0.6000*%
G04:AMPARAMS|DCode=116|XSize=0.4mm|YSize=0.7mm|CornerRadius=0mm|HoleSize=0mm|Usage=FLASHONLY|Rotation=300.000|XOffset=0mm|YOffset=0mm|HoleType=Round|Shape=Rectangle|*
%AMROTATEDRECTD116*
4,1,4,-0.4031,-0.0018,0.2031,0.3482,0.4031,0.0018,-0.2031,-0.3482,-0.4031,-0.0018,0.0*
%
%ADD116ROTATEDRECTD116*%

%ADD117R,0.4000X0.7000*%
G04:AMPARAMS|DCode=121|XSize=3.5mm|YSize=1mm|CornerRadius=0mm|HoleSize=0mm|Usage=FLASHONLY|Rotation=330.000|XOffset=0mm|YOffset=0mm|HoleType=Round|Shape=Rectangle|*
%AMROTATEDRECTD121*
4,1,4,-1.7656,0.4420,-1.2655,1.3080,1.7656,-0.4420,1.2655,-1.3080,-1.7656,0.4420,0.0*
%
%ADD121ROTATEDRECTD121*%

G04:AMPARAMS|DCode=122|XSize=3.5mm|YSize=1.6mm|CornerRadius=0mm|HoleSize=0mm|Usage=FLASHONLY|Rotation=330.000|XOffset=0mm|YOffset=0mm|HoleType=Round|Shape=Rectangle|*
%AMROTATEDRECTD122*
4,1,4,-1.9156,0.1822,-1.1156,1.5678,1.9156,-0.1822,1.1156,-1.5678,-1.9156,0.1822,0.0*
%
%ADD122ROTATEDRECTD122*%

G04:AMPARAMS|DCode=123|XSize=3.5mm|YSize=1.6mm|CornerRadius=0mm|HoleSize=0mm|Usage=FLASHONLY|Rotation=210.000|XOffset=0mm|YOffset=0mm|HoleType=Round|Shape=Rectangle|*
%AMROTATEDRECTD123*
4,1,4,1.1156,1.5678,1.9156,0.1822,-1.1156,-1.5678,-1.9156,-0.1822,1.1156,1.5678,0.0*
%
%ADD123ROTATEDRECTD123*%

G04:AMPARAMS|DCode=124|XSize=3.5mm|YSize=1mm|CornerRadius=0mm|HoleSize=0mm|Usage=FLASHONLY|Rotation=210.000|XOffset=0mm|YOffset=0mm|HoleType=Round|Shape=Rectangle|*
%AMROTATEDRECTD124*
4,1,4,1.2655,1.3080,1.7656,0.4420,-1.2655,-1.3080,-1.7656,-0.4420,1.2655,1.3080,0.0*
%
%ADD124ROTATEDRECTD124*%

%ADD125R,2.4500X1.9500*%
%ADD126R,0.2000X0.8500*%
%ADD127R,3.3000X0.2500*%
G04:AMPARAMS|DCode=129|XSize=1.75mm|YSize=2mm|CornerRadius=0mm|HoleSize=0mm|Usage=FLASHONLY|Rotation=193.909|XOffset=0mm|YOffset=0mm|HoleType=Round|Shape=Rectangle|*
%AMROTATEDRECTD129*
4,1,4,0.6090,1.1810,1.0897,-0.7604,-0.6090,-1.1810,-1.0897,0.7604,0.6090,1.1810,0.0*
%
%ADD129ROTATEDRECTD129*%

G04:AMPARAMS|DCode=130|XSize=0.4mm|YSize=1.35mm|CornerRadius=0mm|HoleSize=0mm|Usage=FLASHONLY|Rotation=193.909|XOffset=0mm|YOffset=0mm|HoleType=Round|Shape=Rectangle|*
%AMROTATEDRECTD130*
4,1,4,0.0319,0.7033,0.3564,-0.6071,-0.0319,-0.7033,-0.3564,0.6071,0.0319,0.7033,0.0*
%
%ADD130ROTATEDRECTD130*%

%ADD131R,1.4000X0.9000*%
G04:AMPARAMS|DCode=132|XSize=0.86mm|YSize=0.26mm|CornerRadius=0.0325mm|HoleSize=0mm|Usage=FLASHONLY|Rotation=45.000|XOffset=0mm|YOffset=0mm|HoleType=Round|Shape=RoundedRectangle|*
%AMROUNDEDRECTD132*
21,1,0.8600,0.1950,0,0,45.0*
21,1,0.7950,0.2600,0,0,45.0*
1,1,0.0650,0.3500,0.2121*
1,1,0.0650,-0.2121,-0.3500*
1,1,0.0650,-0.3500,-0.2121*
1,1,0.0650,0.2121,0.3500*
%
%ADD132ROUNDEDRECTD132*%
G04:AMPARAMS|DCode=133|XSize=0.86mm|YSize=0.26mm|CornerRadius=0.0325mm|HoleSize=0mm|Usage=FLASHONLY|Rotation=135.000|XOffset=0mm|YOffset=0mm|HoleType=Round|Shape=RoundedRectangle|*
%AMROUNDEDRECTD133*
21,1,0.8600,0.1950,0,0,135.0*
21,1,0.7950,0.2600,0,0,135.0*
1,1,0.0650,-0.2121,0.3500*
1,1,0.0650,0.3500,-0.2121*
1,1,0.0650,0.2121,-0.3500*
1,1,0.0650,-0.3500,0.2121*
%
%ADD133ROUNDEDRECTD133*%
%ADD134P,2.3759X4X180.0*%
%ADD135R,0.2500X0.8000*%
%ADD136R,0.8000X0.2500*%
%ADD137R,0.4000X0.3000*%
%ADD138R,0.3000X0.4000*%
%ADD139R,1.2000X1.0000*%
%ADD140R,1.8000X1.8000*%
%ADD141R,0.8000X0.3000*%
G04:AMPARAMS|DCode=142|XSize=0.28mm|YSize=1.56mm|CornerRadius=0.07mm|HoleSize=0mm|Usage=FLASHONLY|Rotation=0.000|XOffset=0mm|YOffset=0mm|HoleType=Round|Shape=RoundedRectangle|*
%AMROUNDEDRECTD142*
21,1,0.2800,1.4200,0,0,0.0*
21,1,0.1400,1.5600,0,0,0.0*
1,1,0.1400,0.0700,-0.7100*
1,1,0.1400,-0.0700,-0.7100*
1,1,0.1400,-0.0700,0.7100*
1,1,0.1400,0.0700,0.7100*
%
%ADD142ROUNDEDRECTD142*%
G04:AMPARAMS|DCode=143|XSize=0.28mm|YSize=1.56mm|CornerRadius=0.07mm|HoleSize=0mm|Usage=FLASHONLY|Rotation=270.000|XOffset=0mm|YOffset=0mm|HoleType=Round|Shape=RoundedRectangle|*
%AMROUNDEDRECTD143*
21,1,0.2800,1.4200,0,0,270.0*
21,1,0.1400,1.5600,0,0,270.0*
1,1,0.1400,-0.7100,-0.0700*
1,1,0.1400,-0.7100,0.0700*
1,1,0.1400,0.7100,0.0700*
1,1,0.1400,0.7100,-0.0700*
%
%ADD143ROUNDEDRECTD143*%
%ADD144R,0.6000X0.9000*%
G04:AMPARAMS|DCode=145|XSize=1.04mm|YSize=0.44mm|CornerRadius=0.154mm|HoleSize=0mm|Usage=FLASHONLY|Rotation=0.000|XOffset=0mm|YOffset=0mm|HoleType=Round|Shape=RoundedRectangle|*
%AMROUNDEDRECTD145*
21,1,1.0400,0.1320,0,0,0.0*
21,1,0.7320,0.4400,0,0,0.0*
1,1,0.3080,0.3660,-0.0660*
1,1,0.3080,-0.3660,-0.0660*
1,1,0.3080,-0.3660,0.0660*
1,1,0.3080,0.3660,0.0660*
%
%ADD145ROUNDEDRECTD145*%
%ADD146R,3.4000X4.3000*%
G04:AMPARAMS|DCode=147|XSize=0.51mm|YSize=0.6mm|CornerRadius=0mm|HoleSize=0mm|Usage=FLASHONLY|Rotation=195.000|XOffset=0mm|YOffset=0mm|HoleType=Round|Shape=Rectangle|*
%AMROTATEDRECTD147*
4,1,4,0.1687,0.3558,0.3240,-0.2238,-0.1687,-0.3558,-0.3240,0.2238,0.1687,0.3558,0.0*
%
%ADD147ROTATEDRECTD147*%

%ADD148R,0.9500X0.9000*%
%ADD149R,0.9000X0.8000*%
%ADD150R,0.8500X1.0000*%
%ADD151R,1.4000X1.1500*%
%ADD152R,1.1000X0.6000*%
%ADD153R,0.2500X0.6500*%
%ADD154R,0.6500X0.2500*%
%ADD155R,6.4000X6.4000*%
%ADD156R,1.0500X0.5500*%
%ADD157R,0.9500X0.7000*%
%ADD158P,0.4243X4X225.0*%
%ADD159R,0.6350X1.0414*%
G04:AMPARAMS|DCode=160|XSize=0.9mm|YSize=0.8mm|CornerRadius=0mm|HoleSize=0mm|Usage=FLASHONLY|Rotation=135.000|XOffset=0mm|YOffset=0mm|HoleType=Round|Shape=Rectangle|*
%AMROTATEDRECTD160*
4,1,4,0.6010,-0.0354,0.0354,-0.6010,-0.6010,0.0354,-0.0354,0.6010,0.6010,-0.0354,0.0*
%
%ADD160ROTATEDRECTD160*%

G04:AMPARAMS|DCode=161|XSize=0.85mm|YSize=0.25mm|CornerRadius=0mm|HoleSize=0mm|Usage=FLASHONLY|Rotation=285.500|XOffset=0mm|YOffset=0mm|HoleType=Round|Shape=Rectangle|*
%AMROTATEDRECTD161*
4,1,4,-0.2340,0.3761,0.0069,0.4430,0.2340,-0.3761,-0.0069,-0.4430,-0.2340,0.3761,0.0*
%
%ADD161ROTATEDRECTD161*%

G04:AMPARAMS|DCode=162|XSize=0.6mm|YSize=1.1mm|CornerRadius=0mm|HoleSize=0mm|Usage=FLASHONLY|Rotation=286.060|XOffset=0mm|YOffset=0mm|HoleType=Round|Shape=Rectangle|*
%AMROTATEDRECTD162*
4,1,4,-0.6115,0.1361,0.4456,0.4404,0.6115,-0.1361,-0.4456,-0.4404,-0.6115,0.1361,0.0*
%
%ADD162ROTATEDRECTD162*%

G04:AMPARAMS|DCode=164|XSize=0.9mm|YSize=3.45mm|CornerRadius=0.1755mm|HoleSize=0mm|Usage=FLASHONLY|Rotation=90.000|XOffset=0mm|YOffset=0mm|HoleType=Round|Shape=RoundedRectangle|*
%AMROUNDEDRECTD164*
21,1,0.9000,3.0990,0,0,90.0*
21,1,0.5490,3.4500,0,0,90.0*
1,1,0.3510,1.5495,0.2745*
1,1,0.3510,1.5495,-0.2745*
1,1,0.3510,-1.5495,-0.2745*
1,1,0.3510,-1.5495,0.2745*
%
%ADD164ROUNDEDRECTD164*%
G04:AMPARAMS|DCode=165|XSize=0.9mm|YSize=2.95mm|CornerRadius=0.1755mm|HoleSize=0mm|Usage=FLASHONLY|Rotation=90.000|XOffset=0mm|YOffset=0mm|HoleType=Round|Shape=RoundedRectangle|*
%AMROUNDEDRECTD165*
21,1,0.9000,2.5990,0,0,90.0*
21,1,0.5490,2.9500,0,0,90.0*
1,1,0.3510,1.2995,0.2745*
1,1,0.3510,1.2995,-0.2745*
1,1,0.3510,-1.2995,-0.2745*
1,1,0.3510,-1.2995,0.2745*
%
%ADD165ROUNDEDRECTD165*%
%ADD174R,0.6001X0.6501*%
%ADD175R,0.6501X0.6001*%
G36*
X185701Y243567D02*
X172161Y222314D01*
X170798Y220175D01*
X167291Y216511D01*
X163136Y213601D01*
X158493Y211558D01*
X153541Y210461D01*
X148470Y210350D01*
X143475Y211231D01*
X138747Y213069D01*
X134469Y215795D01*
X130805Y219302D01*
X127896Y223457D01*
X125853Y228100D01*
X124755Y233052D01*
X124644Y238123D01*
X125525Y243118D01*
X127364Y247846D01*
X128726Y249985D01*
X142266Y271238D01*
X185701Y243567D01*
D02*
G37*
G36*
X-128606Y249795D02*
X-127262Y247644D01*
X-125465Y242901D01*
X-124628Y237898D01*
X-124783Y232828D01*
X-125924Y227885D01*
X-128007Y223261D01*
X-130953Y219131D01*
X-134647Y215656D01*
X-138949Y212968D01*
X-143692Y211171D01*
X-148695Y210334D01*
X-153765Y210489D01*
X-158707Y211630D01*
X-163332Y213713D01*
X-167461Y216658D01*
X-170937Y220353D01*
X-172281Y222504D01*
X-172281Y222504D01*
X-185635Y243874D01*
X-141960Y271165D01*
X-128606Y249795D01*
D02*
G37*
G36*
X-20490Y211097D02*
X-18868Y210161D01*
X-18206Y209499D01*
X-17544Y208837D01*
X-16608Y207215D01*
X-16123Y205406D01*
Y203534D01*
X-16608Y201725D01*
X-17544Y200103D01*
X-18868Y198779D01*
X-20490Y197843D01*
X-22299Y197358D01*
X-24171D01*
X-25980Y197843D01*
X-27602Y198779D01*
X-28264Y199441D01*
X-28926Y200103D01*
X-29862Y201725D01*
X-30347Y203534D01*
Y205406D01*
X-29862Y207215D01*
X-28926Y208837D01*
X-27602Y210161D01*
X-25980Y211097D01*
X-24171Y211582D01*
X-22299D01*
X-20490Y211097D01*
D02*
G37*
G36*
X234016Y197601D02*
X216197Y179781D01*
X214404Y177988D01*
X210187Y175170D01*
X205501Y173229D01*
X200526Y172239D01*
X195453D01*
X190478Y173229D01*
X185792Y175170D01*
X181575Y177988D01*
X177988Y181575D01*
X175170Y185792D01*
X173229Y190478D01*
X172239Y195453D01*
Y200526D01*
X173229Y205501D01*
X175170Y210187D01*
X177988Y214404D01*
X179781Y216197D01*
X179781D01*
X197601Y234017D01*
X234016Y197601D01*
D02*
G37*
G36*
X-179781Y216197D02*
X-177988Y214404D01*
X-175170Y210187D01*
X-173229Y205501D01*
X-172239Y200526D01*
Y195453D01*
X-173229Y190478D01*
X-175170Y185792D01*
X-177988Y181575D01*
X-181575Y177988D01*
X-185792Y175170D01*
X-190478Y173229D01*
X-195453Y172239D01*
X-200526D01*
X-205501Y173229D01*
X-210187Y175170D01*
X-214404Y177988D01*
X-216197Y179781D01*
X-216197Y179781D01*
X-234017Y197601D01*
X-197601Y234016D01*
X-179781Y216197D01*
D02*
G37*
G36*
X271238Y142266D02*
X249985Y128726D01*
X247846Y127364D01*
X243118Y125525D01*
X238123Y124644D01*
X233052Y124755D01*
X228100Y125853D01*
X223457Y127896D01*
X219302Y130805D01*
X215795Y134469D01*
X213069Y138747D01*
X211231Y143475D01*
X210350Y148470D01*
X210461Y153541D01*
X211558Y158493D01*
X213601Y163136D01*
X216511Y167291D01*
X220175Y170798D01*
X222314Y172161D01*
X222314Y172161D01*
X243567Y185701D01*
X271238Y142266D01*
D02*
G37*
G36*
X-222314Y172161D02*
X-220175Y170798D01*
X-216511Y167291D01*
X-213601Y163136D01*
X-211558Y158493D01*
X-210461Y153541D01*
X-210350Y148470D01*
X-211231Y143475D01*
X-213069Y138747D01*
X-215795Y134469D01*
X-219302Y130805D01*
X-223457Y127896D01*
X-228100Y125853D01*
X-233052Y124755D01*
X-238123Y124644D01*
X-243118Y125525D01*
X-247846Y127364D01*
X-249985Y128726D01*
X-249985D01*
X-271238Y142266D01*
X-243567Y185701D01*
X-222314Y172161D01*
D02*
G37*
G36*
X295601Y80187D02*
X271920Y71568D01*
X269537Y70701D01*
X264524Y69929D01*
X259457Y70151D01*
X254529Y71356D01*
X249932Y73500D01*
X245842Y76499D01*
X242415Y80239D01*
X239784Y84575D01*
X238049Y89342D01*
X237277Y94355D01*
X237499Y99422D01*
X238704Y104349D01*
X240848Y108946D01*
X243847Y113037D01*
X247587Y116464D01*
X251923Y119095D01*
X254306Y119963D01*
Y119963D01*
X277987Y128581D01*
X295601Y80187D01*
D02*
G37*
G36*
X-254306Y119963D02*
X-251923Y119095D01*
X-247587Y116464D01*
X-243847Y113037D01*
X-240848Y108946D01*
X-238704Y104349D01*
X-237499Y99422D01*
X-237277Y94355D01*
X-238049Y89342D01*
X-239784Y84575D01*
X-242415Y80239D01*
X-245842Y76499D01*
X-249932Y73500D01*
X-254529Y71356D01*
X-259457Y70151D01*
X-264524Y69929D01*
X-269537Y70701D01*
X-271920Y71568D01*
X-295601Y80187D01*
X-277987Y128581D01*
X-254306Y119963D01*
D02*
G37*
G36*
X48500Y-76885D02*
X38479Y-86406D01*
X19094Y-67021D01*
X28115Y-56500D01*
X48500D01*
Y-76885D01*
D02*
G37*
G36*
X-17594Y-67021D02*
X-37979Y-87406D01*
X-52000Y-72885D01*
X-31615Y-52500D01*
X-17594Y-67021D01*
D02*
G37*
G36*
X48500Y-134115D02*
Y-153500D01*
X29115D01*
X18094Y-143479D01*
X38479Y-123094D01*
X48500Y-134115D01*
D02*
G37*
G36*
X-18594Y-142479D02*
X-28115Y-153500D01*
X-48500D01*
Y-133115D01*
X-37979Y-123094D01*
X-18594Y-142479D01*
D02*
G37*
G36*
X2751Y-214999D02*
X-2751D01*
Y-210000D01*
X2751D01*
Y-214999D01*
D02*
G37*
G36*
X10000Y-217750D02*
X5001D01*
Y-212250D01*
X10000D01*
Y-217750D01*
D02*
G37*
G36*
X-5001D02*
X-10000D01*
Y-212250D01*
X-5001D01*
Y-217750D01*
D02*
G37*
G36*
X10000Y-227750D02*
X5001D01*
Y-222250D01*
X10000D01*
Y-227750D01*
D02*
G37*
G36*
X-5001D02*
X-10000D01*
Y-222250D01*
X-5001D01*
Y-227750D01*
D02*
G37*
G36*
X2751Y-230000D02*
X-2751D01*
Y-225001D01*
X2751D01*
Y-230000D01*
D02*
G37*
G36*
X236238Y-473073D02*
X237860Y-474009D01*
X238522Y-474671D01*
X239184Y-475333D01*
X240120Y-476955D01*
X240605Y-478764D01*
Y-480636D01*
X240120Y-482445D01*
X239184Y-484067D01*
X237860Y-485391D01*
X236238Y-486328D01*
X234429Y-486812D01*
X232556D01*
X230748Y-486328D01*
X229126Y-485391D01*
X228464Y-484729D01*
X227802Y-484067D01*
X226865Y-482445D01*
X226381Y-480636D01*
Y-478764D01*
X226865Y-476955D01*
X227802Y-475333D01*
X229126Y-474009D01*
X230748Y-473073D01*
X232556Y-472588D01*
X234429D01*
X236238Y-473073D01*
D02*
G37*
G36*
X-196700Y-610735D02*
X-203750D01*
X-204314Y-608195D01*
X-205750Y-601735D01*
X-225750D01*
X-226339Y-604385D01*
X-227750Y-610735D01*
X-234800D01*
Y-562475D01*
X-196700D01*
Y-610735D01*
D02*
G37*
G36*
X235100Y-610845D02*
X228050D01*
X227486Y-608305D01*
X226050Y-601845D01*
X206050D01*
X205461Y-604495D01*
X204050Y-610845D01*
X197000D01*
Y-562585D01*
X235100D01*
Y-610845D01*
D02*
G37*
G36*
X133500D02*
X126450D01*
X125886Y-608305D01*
X124450Y-601845D01*
X104450D01*
X103861Y-604495D01*
X102450Y-610845D01*
X95400D01*
Y-562585D01*
X133500D01*
Y-610845D01*
D02*
G37*
G36*
X19200D02*
X12150D01*
X11586Y-608305D01*
X10150Y-601845D01*
X-9850D01*
X-10439Y-604495D01*
X-11850Y-610845D01*
X-18900D01*
Y-562585D01*
X19200D01*
Y-610845D01*
D02*
G37*
G36*
X-95100D02*
X-102150D01*
X-102714Y-608305D01*
X-104150Y-601845D01*
X-124150D01*
X-124739Y-604495D01*
X-126150Y-610845D01*
X-133200D01*
Y-562585D01*
X-95100D01*
Y-610845D01*
D02*
G37*
G36*
X336022Y-1078094D02*
X335755D01*
Y-1078079D01*
Y-1078050D01*
X335741Y-1078005D01*
X335726Y-1077931D01*
X335696Y-1077768D01*
X335652Y-1077546D01*
X335592Y-1077309D01*
X335504Y-1077057D01*
X335415Y-1076806D01*
X335296Y-1076584D01*
X335281Y-1076554D01*
X335237Y-1076495D01*
X335163Y-1076391D01*
X335059Y-1076258D01*
X334926Y-1076124D01*
X334763Y-1075976D01*
X334585Y-1075828D01*
X334363Y-1075695D01*
X334334Y-1075680D01*
X334260Y-1075636D01*
X334141Y-1075591D01*
X333978Y-1075517D01*
X333786Y-1075458D01*
X333579Y-1075414D01*
X333342Y-1075369D01*
X333105Y-1075355D01*
X332986D01*
X332853Y-1075384D01*
X332675Y-1075414D01*
X332483Y-1075473D01*
X332275Y-1075547D01*
X332083Y-1075666D01*
X331890Y-1075814D01*
X331876Y-1075828D01*
X331816Y-1075888D01*
X331742Y-1075991D01*
X331654Y-1076110D01*
X331565Y-1076258D01*
X331491Y-1076435D01*
X331431Y-1076628D01*
X331417Y-1076835D01*
Y-1076850D01*
Y-1076909D01*
X331431Y-1076983D01*
X331461Y-1077102D01*
X331491Y-1077220D01*
X331535Y-1077354D01*
X331609Y-1077487D01*
X331713Y-1077635D01*
X331742Y-1077665D01*
X331772Y-1077694D01*
X331802Y-1077724D01*
X331861Y-1077783D01*
X331935Y-1077842D01*
X332038Y-1077916D01*
X332142Y-1078005D01*
X332275Y-1078094D01*
X332424Y-1078213D01*
X332586Y-1078316D01*
X332779Y-1078449D01*
X333001Y-1078583D01*
X333238Y-1078731D01*
X333504Y-1078879D01*
X333801Y-1079042D01*
X333815Y-1079056D01*
X333860Y-1079071D01*
X333934Y-1079116D01*
X334023Y-1079160D01*
X334127Y-1079219D01*
X334245Y-1079294D01*
X334526Y-1079456D01*
X334837Y-1079634D01*
X335133Y-1079812D01*
X335400Y-1079989D01*
X335518Y-1080078D01*
X335622Y-1080152D01*
X335652Y-1080167D01*
X335711Y-1080226D01*
X335800Y-1080300D01*
X335903Y-1080404D01*
X336037Y-1080537D01*
X336155Y-1080700D01*
X336288Y-1080863D01*
X336392Y-1081056D01*
X336407Y-1081085D01*
X336437Y-1081144D01*
X336481Y-1081248D01*
X336525Y-1081381D01*
X336570Y-1081544D01*
X336614Y-1081737D01*
X336644Y-1081944D01*
X336659Y-1082151D01*
Y-1082166D01*
Y-1082196D01*
Y-1082255D01*
X336644Y-1082329D01*
X336629Y-1082433D01*
X336614Y-1082536D01*
X336555Y-1082788D01*
X336451Y-1083084D01*
X336392Y-1083232D01*
X336303Y-1083395D01*
X336200Y-1083558D01*
X336096Y-1083706D01*
X335963Y-1083869D01*
X335815Y-1084017D01*
X335800Y-1084032D01*
X335770Y-1084047D01*
X335726Y-1084091D01*
X335667Y-1084136D01*
X335578Y-1084195D01*
X335474Y-1084269D01*
X335355Y-1084343D01*
X335222Y-1084402D01*
X335074Y-1084476D01*
X334911Y-1084550D01*
X334541Y-1084684D01*
X334112Y-1084772D01*
X333890Y-1084787D01*
X333638Y-1084802D01*
X333490D01*
X333386Y-1084787D01*
X333268D01*
X333134Y-1084772D01*
X332853Y-1084728D01*
X332838D01*
X332808Y-1084713D01*
X332749D01*
X332660Y-1084684D01*
X332542Y-1084654D01*
X332379Y-1084610D01*
X332187Y-1084550D01*
X331950Y-1084476D01*
X331920Y-1084462D01*
X331846Y-1084447D01*
X331727Y-1084402D01*
X331594Y-1084358D01*
X331446Y-1084328D01*
X331298Y-1084284D01*
X331180Y-1084269D01*
X331091Y-1084254D01*
X331061D01*
X330987Y-1084269D01*
X330898Y-1084299D01*
X330809Y-1084373D01*
X330795Y-1084388D01*
X330780Y-1084417D01*
X330750Y-1084462D01*
X330735Y-1084521D01*
X330706Y-1084595D01*
X330676Y-1084684D01*
X330661Y-1084802D01*
X330395D01*
Y-1081529D01*
X330661D01*
Y-1081544D01*
X330676Y-1081574D01*
Y-1081633D01*
X330691Y-1081692D01*
X330706Y-1081781D01*
X330735Y-1081885D01*
X330795Y-1082107D01*
X330854Y-1082359D01*
X330943Y-1082625D01*
X331046Y-1082862D01*
X331150Y-1083084D01*
X331165Y-1083099D01*
X331209Y-1083173D01*
X331283Y-1083262D01*
X331387Y-1083381D01*
X331520Y-1083514D01*
X331683Y-1083647D01*
X331876Y-1083795D01*
X332098Y-1083928D01*
X332113D01*
X332127Y-1083943D01*
X332216Y-1083973D01*
X332335Y-1084032D01*
X332512Y-1084091D01*
X332720Y-1084151D01*
X332957Y-1084210D01*
X333208Y-1084239D01*
X333490Y-1084254D01*
X333579D01*
X333638Y-1084239D01*
X333801Y-1084225D01*
X333993Y-1084195D01*
X334215Y-1084136D01*
X334452Y-1084062D01*
X334674Y-1083943D01*
X334882Y-1083795D01*
X334911Y-1083780D01*
X334971Y-1083706D01*
X335045Y-1083617D01*
X335148Y-1083484D01*
X335237Y-1083321D01*
X335326Y-1083129D01*
X335385Y-1082922D01*
X335400Y-1082685D01*
Y-1082670D01*
Y-1082625D01*
X335385Y-1082551D01*
X335370Y-1082462D01*
X335355Y-1082359D01*
X335311Y-1082240D01*
X335267Y-1082107D01*
X335193Y-1081974D01*
X335178Y-1081959D01*
X335163Y-1081915D01*
X335104Y-1081841D01*
X335045Y-1081752D01*
X334971Y-1081648D01*
X334867Y-1081544D01*
X334748Y-1081426D01*
X334600Y-1081307D01*
X334585Y-1081293D01*
X334541Y-1081263D01*
X334452Y-1081204D01*
X334304Y-1081115D01*
X334215Y-1081056D01*
X334112Y-1080982D01*
X333978Y-1080908D01*
X333845Y-1080834D01*
X333682Y-1080745D01*
X333504Y-1080641D01*
X333312Y-1080523D01*
X333090Y-1080404D01*
X333075Y-1080389D01*
X333031Y-1080375D01*
X332971Y-1080345D01*
X332897Y-1080286D01*
X332794Y-1080226D01*
X332675Y-1080167D01*
X332409Y-1080004D01*
X332127Y-1079841D01*
X331831Y-1079649D01*
X331565Y-1079471D01*
X331446Y-1079382D01*
X331343Y-1079308D01*
X331313Y-1079294D01*
X331254Y-1079234D01*
X331165Y-1079145D01*
X331046Y-1079042D01*
X330928Y-1078908D01*
X330795Y-1078746D01*
X330661Y-1078583D01*
X330558Y-1078405D01*
X330543Y-1078375D01*
X330513Y-1078316D01*
X330469Y-1078213D01*
X330424Y-1078079D01*
X330380Y-1077931D01*
X330336Y-1077739D01*
X330306Y-1077546D01*
X330291Y-1077324D01*
Y-1077309D01*
Y-1077280D01*
Y-1077220D01*
X330306Y-1077146D01*
X330321Y-1077057D01*
X330336Y-1076954D01*
X330395Y-1076717D01*
X330484Y-1076435D01*
X330617Y-1076139D01*
X330706Y-1075991D01*
X330824Y-1075828D01*
X330943Y-1075695D01*
X331076Y-1075547D01*
X331091Y-1075532D01*
X331106Y-1075517D01*
X331150Y-1075473D01*
X331224Y-1075428D01*
X331298Y-1075369D01*
X331387Y-1075310D01*
X331505Y-1075236D01*
X331624Y-1075162D01*
X331920Y-1075029D01*
X332261Y-1074910D01*
X332646Y-1074821D01*
X332868Y-1074807D01*
X333090Y-1074792D01*
X333223D01*
X333371Y-1074807D01*
X333579Y-1074836D01*
X333815Y-1074881D01*
X334097Y-1074955D01*
X334393Y-1075043D01*
X334704Y-1075177D01*
X334719D01*
X334763Y-1075206D01*
X334837Y-1075221D01*
X334926Y-1075251D01*
X335104Y-1075310D01*
X335193Y-1075325D01*
X335267Y-1075340D01*
X335296D01*
X335370Y-1075325D01*
X335474Y-1075295D01*
X335563Y-1075236D01*
X335578Y-1075221D01*
X335607Y-1075192D01*
X335637Y-1075147D01*
X335667Y-1075088D01*
X335696Y-1074999D01*
X335726Y-1074910D01*
X335755Y-1074792D01*
X336022D01*
Y-1078094D01*
D02*
G37*
G36*
X374879Y-1077117D02*
X374597D01*
Y-1077102D01*
Y-1077087D01*
X374568Y-1076998D01*
X374538Y-1076865D01*
X374494Y-1076702D01*
X374449Y-1076524D01*
X374390Y-1076361D01*
X374316Y-1076199D01*
X374257Y-1076080D01*
X374242Y-1076065D01*
X374227Y-1076036D01*
X374183Y-1075976D01*
X374123Y-1075917D01*
X374049Y-1075858D01*
X373960Y-1075784D01*
X373842Y-1075710D01*
X373724Y-1075651D01*
X373709D01*
X373664Y-1075636D01*
X373590Y-1075606D01*
X373502Y-1075591D01*
X373353Y-1075562D01*
X373190Y-1075547D01*
X372983Y-1075532D01*
X370110D01*
Y-1079308D01*
X372361D01*
X372495Y-1079294D01*
X372672Y-1079279D01*
X372850Y-1079249D01*
X373028Y-1079205D01*
X373190Y-1079145D01*
X373309Y-1079071D01*
X373324Y-1079056D01*
X373368Y-1079012D01*
X373427Y-1078923D01*
X373502Y-1078805D01*
X373576Y-1078642D01*
X373635Y-1078449D01*
X373694Y-1078198D01*
X373724Y-1077916D01*
X373990D01*
Y-1081248D01*
X373724D01*
Y-1081233D01*
Y-1081218D01*
X373709Y-1081130D01*
X373679Y-1081011D01*
X373664Y-1080878D01*
X373635Y-1080730D01*
X373590Y-1080582D01*
X373561Y-1080449D01*
X373516Y-1080360D01*
Y-1080345D01*
X373487Y-1080315D01*
X373427Y-1080226D01*
X373368Y-1080167D01*
X373294Y-1080093D01*
X373205Y-1080034D01*
X373102Y-1079975D01*
X373087D01*
X373042Y-1079945D01*
X372983Y-1079930D01*
X372894Y-1079901D01*
X372761Y-1079871D01*
X372613Y-1079856D01*
X372435Y-1079827D01*
X370110D01*
Y-1082996D01*
Y-1083025D01*
Y-1083099D01*
Y-1083203D01*
Y-1083336D01*
X370125Y-1083469D01*
Y-1083588D01*
X370140Y-1083706D01*
X370155Y-1083780D01*
X370170Y-1083795D01*
X370199Y-1083854D01*
X370258Y-1083928D01*
X370347Y-1083988D01*
X370362D01*
X370377Y-1084003D01*
X370421Y-1084017D01*
X370466D01*
X370540Y-1084032D01*
X370644Y-1084047D01*
X370762Y-1084062D01*
X372805D01*
X372983Y-1084047D01*
X373176Y-1084032D01*
X373368Y-1084017D01*
X373546Y-1083988D01*
X373709Y-1083958D01*
X373724D01*
X373768Y-1083928D01*
X373842Y-1083899D01*
X373931Y-1083854D01*
X374049Y-1083795D01*
X374168Y-1083721D01*
X374286Y-1083632D01*
X374420Y-1083514D01*
X374434Y-1083499D01*
X374494Y-1083425D01*
X374582Y-1083321D01*
X374701Y-1083173D01*
X374834Y-1082996D01*
X374982Y-1082759D01*
X375145Y-1082492D01*
X375323Y-1082181D01*
X375604D01*
X374775Y-1084580D01*
X367401D01*
Y-1084314D01*
X367785D01*
X367845Y-1084299D01*
X367934D01*
X368141Y-1084254D01*
X368363Y-1084165D01*
X368378D01*
X368407Y-1084136D01*
X368496Y-1084077D01*
X368600Y-1083973D01*
X368644Y-1083899D01*
X368674Y-1083825D01*
Y-1083810D01*
X368689Y-1083780D01*
X368704Y-1083721D01*
X368718Y-1083617D01*
X368733Y-1083499D01*
X368748Y-1083336D01*
X368763Y-1083129D01*
Y-1082892D01*
Y-1076672D01*
Y-1076658D01*
Y-1076628D01*
Y-1076584D01*
Y-1076524D01*
X368748Y-1076376D01*
X368733Y-1076199D01*
X368718Y-1076006D01*
X368689Y-1075828D01*
X368630Y-1075666D01*
X368600Y-1075606D01*
X368570Y-1075562D01*
X368555Y-1075547D01*
X368526Y-1075517D01*
X368467Y-1075473D01*
X368378Y-1075414D01*
X368259Y-1075369D01*
X368111Y-1075325D01*
X367934Y-1075295D01*
X367726Y-1075281D01*
X367401D01*
Y-1075014D01*
X374775D01*
X374879Y-1077117D01*
D02*
G37*
G36*
X325419Y-1077250D02*
X325138D01*
Y-1077220D01*
X325123Y-1077146D01*
X325108Y-1077043D01*
X325079Y-1076924D01*
X325019Y-1076643D01*
X324975Y-1076509D01*
X324931Y-1076406D01*
X324916Y-1076391D01*
X324886Y-1076347D01*
X324842Y-1076273D01*
X324768Y-1076184D01*
X324694Y-1076080D01*
X324590Y-1075991D01*
X324472Y-1075888D01*
X324338Y-1075814D01*
X324323Y-1075799D01*
X324279Y-1075784D01*
X324190Y-1075754D01*
X324086Y-1075710D01*
X323953Y-1075666D01*
X323790Y-1075636D01*
X323598Y-1075621D01*
X323391Y-1075606D01*
X322058D01*
Y-1082922D01*
Y-1082936D01*
Y-1082966D01*
Y-1083010D01*
Y-1083070D01*
X322073Y-1083218D01*
X322087Y-1083395D01*
X322102Y-1083588D01*
X322132Y-1083765D01*
X322176Y-1083914D01*
X322206Y-1083988D01*
X322235Y-1084032D01*
X322250Y-1084047D01*
X322280Y-1084077D01*
X322354Y-1084121D01*
X322443Y-1084165D01*
X322561Y-1084225D01*
X322695Y-1084269D01*
X322872Y-1084299D01*
X323065Y-1084314D01*
X323405D01*
Y-1084580D01*
X319348D01*
Y-1084314D01*
X319792D01*
X319896Y-1084299D01*
X320029Y-1084269D01*
X320162Y-1084225D01*
X320310Y-1084165D01*
X320444Y-1084077D01*
X320547Y-1083958D01*
X320562Y-1083943D01*
X320577Y-1083914D01*
X320607Y-1083840D01*
X320636Y-1083751D01*
X320666Y-1083603D01*
X320681Y-1083425D01*
X320710Y-1083203D01*
Y-1082922D01*
Y-1075606D01*
X319333D01*
X319185Y-1075621D01*
X318874Y-1075651D01*
X318726Y-1075680D01*
X318608Y-1075710D01*
X318593D01*
X318548Y-1075740D01*
X318474Y-1075769D01*
X318385Y-1075828D01*
X318297Y-1075888D01*
X318178Y-1075991D01*
X318074Y-1076095D01*
X317971Y-1076228D01*
X317956Y-1076243D01*
X317926Y-1076302D01*
X317882Y-1076376D01*
X317837Y-1076495D01*
X317793Y-1076643D01*
X317734Y-1076821D01*
X317704Y-1077028D01*
X317675Y-1077250D01*
X317408D01*
X317512Y-1075014D01*
X325316D01*
X325419Y-1077250D01*
D02*
G37*
G36*
X380180Y-1075029D02*
X380343D01*
X380506Y-1075043D01*
X380876Y-1075073D01*
X381246Y-1075118D01*
X381587Y-1075177D01*
X381750Y-1075206D01*
X381898Y-1075251D01*
X381912D01*
X381927Y-1075266D01*
X382016Y-1075295D01*
X382150Y-1075355D01*
X382327Y-1075428D01*
X382520Y-1075547D01*
X382727Y-1075680D01*
X382934Y-1075858D01*
X383127Y-1076065D01*
X383142Y-1076095D01*
X383201Y-1076169D01*
X383290Y-1076302D01*
X383378Y-1076465D01*
X383467Y-1076672D01*
X383556Y-1076909D01*
X383615Y-1077191D01*
X383630Y-1077487D01*
Y-1077502D01*
Y-1077531D01*
Y-1077576D01*
X383615Y-1077635D01*
X383601Y-1077798D01*
X383556Y-1078005D01*
X383497Y-1078242D01*
X383393Y-1078494D01*
X383245Y-1078760D01*
X383053Y-1079012D01*
X383023Y-1079042D01*
X382949Y-1079116D01*
X382801Y-1079234D01*
X382608Y-1079368D01*
X382372Y-1079516D01*
X382061Y-1079678D01*
X381690Y-1079812D01*
X381276Y-1079930D01*
X383260Y-1082670D01*
X383275Y-1082685D01*
X383290Y-1082714D01*
X383319Y-1082759D01*
X383378Y-1082818D01*
X383497Y-1082981D01*
X383660Y-1083188D01*
X383838Y-1083395D01*
X384030Y-1083603D01*
X384223Y-1083780D01*
X384326Y-1083869D01*
X384415Y-1083928D01*
X384445Y-1083943D01*
X384504Y-1083973D01*
X384608Y-1084032D01*
X384756Y-1084091D01*
X384948Y-1084165D01*
X385155Y-1084225D01*
X385407Y-1084269D01*
X385689Y-1084314D01*
Y-1084580D01*
X383127D01*
X379884Y-1080108D01*
X379677D01*
X379484Y-1080123D01*
X378980D01*
X378907Y-1080108D01*
Y-1082892D01*
Y-1082907D01*
Y-1082936D01*
Y-1082981D01*
Y-1083040D01*
X378921Y-1083188D01*
X378936Y-1083366D01*
X378951Y-1083558D01*
X378995Y-1083751D01*
X379040Y-1083899D01*
X379069Y-1083973D01*
X379099Y-1084017D01*
X379114Y-1084032D01*
X379143Y-1084062D01*
X379217Y-1084106D01*
X379306Y-1084165D01*
X379410Y-1084225D01*
X379543Y-1084269D01*
X379706Y-1084299D01*
X379899Y-1084314D01*
X380269D01*
Y-1084580D01*
X376197D01*
Y-1084314D01*
X376656D01*
X376759Y-1084299D01*
X376878Y-1084269D01*
X377026Y-1084225D01*
X377159Y-1084151D01*
X377292Y-1084062D01*
X377411Y-1083928D01*
Y-1083914D01*
X377440Y-1083884D01*
X377455Y-1083810D01*
X377485Y-1083721D01*
X377514Y-1083573D01*
X377529Y-1083395D01*
X377559Y-1083173D01*
Y-1082892D01*
Y-1076702D01*
Y-1076687D01*
Y-1076658D01*
Y-1076613D01*
Y-1076554D01*
X377544Y-1076406D01*
X377529Y-1076228D01*
X377514Y-1076036D01*
X377470Y-1075858D01*
X377426Y-1075695D01*
X377381Y-1075636D01*
X377352Y-1075591D01*
X377337Y-1075577D01*
X377307Y-1075547D01*
X377233Y-1075488D01*
X377159Y-1075428D01*
X377041Y-1075384D01*
X376907Y-1075325D01*
X376744Y-1075295D01*
X376552Y-1075281D01*
X376197D01*
Y-1075014D01*
X380032D01*
X380180Y-1075029D01*
D02*
G37*
G36*
X361359D02*
X361566Y-1075043D01*
X361788Y-1075058D01*
X362025Y-1075073D01*
X362558Y-1075132D01*
X363091Y-1075221D01*
X363610Y-1075340D01*
X363847Y-1075414D01*
X364069Y-1075503D01*
X364083D01*
X364113Y-1075532D01*
X364172Y-1075562D01*
X364261Y-1075591D01*
X364350Y-1075651D01*
X364468Y-1075710D01*
X364720Y-1075888D01*
X365002Y-1076110D01*
X365312Y-1076391D01*
X365609Y-1076732D01*
X365742Y-1076924D01*
X365875Y-1077132D01*
X365890Y-1077146D01*
X365905Y-1077176D01*
X365934Y-1077250D01*
X365979Y-1077339D01*
X366038Y-1077442D01*
X366097Y-1077576D01*
X366157Y-1077724D01*
X366216Y-1077887D01*
X366275Y-1078064D01*
X366334Y-1078272D01*
X366394Y-1078494D01*
X366453Y-1078716D01*
X366527Y-1079219D01*
X366556Y-1079486D01*
Y-1079753D01*
Y-1079782D01*
Y-1079841D01*
X366542Y-1079945D01*
Y-1080078D01*
X366527Y-1080256D01*
X366497Y-1080449D01*
X366453Y-1080671D01*
X366408Y-1080922D01*
X366334Y-1081174D01*
X366260Y-1081441D01*
X366157Y-1081722D01*
X366038Y-1082003D01*
X365905Y-1082285D01*
X365742Y-1082551D01*
X365550Y-1082833D01*
X365342Y-1083084D01*
X365327Y-1083099D01*
X365283Y-1083144D01*
X365194Y-1083218D01*
X365090Y-1083321D01*
X364942Y-1083425D01*
X364765Y-1083558D01*
X364557Y-1083691D01*
X364320Y-1083825D01*
X364039Y-1083973D01*
X363728Y-1084106D01*
X363387Y-1084239D01*
X363017Y-1084343D01*
X362617Y-1084447D01*
X362173Y-1084521D01*
X361699Y-1084565D01*
X361196Y-1084580D01*
X356946D01*
Y-1084314D01*
X357405D01*
X357509Y-1084299D01*
X357627Y-1084269D01*
X357775Y-1084225D01*
X357908Y-1084151D01*
X358042Y-1084062D01*
X358145Y-1083928D01*
X358160Y-1083914D01*
X358175Y-1083884D01*
X358205Y-1083810D01*
X358234Y-1083721D01*
X358264Y-1083573D01*
X358279Y-1083395D01*
X358308Y-1083173D01*
Y-1082892D01*
Y-1076702D01*
Y-1076687D01*
Y-1076658D01*
Y-1076613D01*
Y-1076554D01*
X358293Y-1076406D01*
X358279Y-1076228D01*
X358264Y-1076036D01*
X358219Y-1075858D01*
X358175Y-1075695D01*
X358131Y-1075636D01*
X358101Y-1075591D01*
X358086Y-1075577D01*
X358056Y-1075547D01*
X357982Y-1075488D01*
X357908Y-1075428D01*
X357790Y-1075384D01*
X357657Y-1075325D01*
X357494Y-1075295D01*
X357301Y-1075281D01*
X356946D01*
Y-1075014D01*
X361181D01*
X361359Y-1075029D01*
D02*
G37*
G36*
X352459Y-1075281D02*
X352192D01*
X352030Y-1075295D01*
X351674Y-1075340D01*
X351511Y-1075384D01*
X351378Y-1075428D01*
X351363D01*
X351334Y-1075458D01*
X351274Y-1075488D01*
X351215Y-1075532D01*
X351082Y-1075651D01*
X351023Y-1075725D01*
X350963Y-1075799D01*
Y-1075814D01*
X350949Y-1075843D01*
X350934Y-1075917D01*
X350919Y-1076006D01*
X350889Y-1076154D01*
X350874Y-1076332D01*
X350860Y-1076569D01*
Y-1076850D01*
Y-1082877D01*
Y-1082907D01*
Y-1082966D01*
Y-1083070D01*
X350874Y-1083203D01*
X350904Y-1083469D01*
X350934Y-1083588D01*
X350963Y-1083691D01*
X350978Y-1083721D01*
X351037Y-1083780D01*
X351111Y-1083854D01*
X351230Y-1083914D01*
X351245D01*
X351274Y-1083928D01*
X351334D01*
X351437Y-1083943D01*
X351571Y-1083958D01*
X351763D01*
X351881Y-1083973D01*
X353288D01*
X353392Y-1083958D01*
X353629D01*
X353881Y-1083943D01*
X354132Y-1083914D01*
X354369Y-1083869D01*
X354473Y-1083854D01*
X354562Y-1083825D01*
X354577Y-1083810D01*
X354636Y-1083795D01*
X354725Y-1083751D01*
X354828Y-1083691D01*
X354962Y-1083617D01*
X355095Y-1083514D01*
X355228Y-1083395D01*
X355376Y-1083247D01*
X355391Y-1083232D01*
X355435Y-1083173D01*
X355509Y-1083070D01*
X355613Y-1082922D01*
X355717Y-1082744D01*
X355850Y-1082522D01*
X355983Y-1082240D01*
X356117Y-1081929D01*
X356354Y-1081989D01*
X355539Y-1084580D01*
X348150D01*
Y-1084314D01*
X348609D01*
X348713Y-1084299D01*
X348831Y-1084269D01*
X348979Y-1084225D01*
X349112Y-1084151D01*
X349246Y-1084062D01*
X349364Y-1083928D01*
Y-1083914D01*
X349394Y-1083884D01*
X349408Y-1083810D01*
X349438Y-1083721D01*
X349468Y-1083573D01*
X349483Y-1083395D01*
X349512Y-1083173D01*
Y-1082892D01*
Y-1076702D01*
Y-1076687D01*
Y-1076658D01*
Y-1076613D01*
Y-1076554D01*
X349497Y-1076406D01*
X349483Y-1076228D01*
X349468Y-1076036D01*
X349423Y-1075858D01*
X349379Y-1075695D01*
X349334Y-1075636D01*
X349305Y-1075591D01*
X349290Y-1075577D01*
X349260Y-1075547D01*
X349186Y-1075488D01*
X349112Y-1075428D01*
X348994Y-1075384D01*
X348861Y-1075325D01*
X348698Y-1075295D01*
X348505Y-1075281D01*
X348150D01*
Y-1075014D01*
X352459D01*
Y-1075281D01*
D02*
G37*
G36*
X301696Y-1075029D02*
X301963D01*
X302259Y-1075058D01*
X302570Y-1075088D01*
X302866Y-1075132D01*
X303148Y-1075192D01*
X303162D01*
X303192Y-1075206D01*
X303251Y-1075221D01*
X303325Y-1075236D01*
X303414Y-1075266D01*
X303518Y-1075310D01*
X303740Y-1075399D01*
X304007Y-1075517D01*
X304273Y-1075680D01*
X304525Y-1075873D01*
X304762Y-1076095D01*
X304791Y-1076124D01*
X304851Y-1076213D01*
X304939Y-1076347D01*
X305043Y-1076524D01*
X305147Y-1076732D01*
X305236Y-1076983D01*
X305295Y-1077265D01*
X305324Y-1077576D01*
Y-1077590D01*
Y-1077605D01*
Y-1077694D01*
X305295Y-1077828D01*
X305265Y-1078005D01*
X305221Y-1078198D01*
X305132Y-1078420D01*
X305028Y-1078642D01*
X304880Y-1078864D01*
X304865Y-1078894D01*
X304791Y-1078953D01*
X304703Y-1079056D01*
X304555Y-1079175D01*
X304377Y-1079308D01*
X304155Y-1079456D01*
X303888Y-1079575D01*
X303592Y-1079693D01*
X303607D01*
X303636Y-1079708D01*
X303681Y-1079723D01*
X303755Y-1079738D01*
X303932Y-1079782D01*
X304155Y-1079856D01*
X304392Y-1079960D01*
X304629Y-1080078D01*
X304865Y-1080212D01*
X305073Y-1080375D01*
X305088D01*
X305102Y-1080404D01*
X305176Y-1080493D01*
X305295Y-1080626D01*
X305428Y-1080819D01*
X305547Y-1081041D01*
X305665Y-1081322D01*
X305739Y-1081618D01*
X305769Y-1081781D01*
Y-1081959D01*
Y-1081974D01*
Y-1081989D01*
Y-1082077D01*
X305739Y-1082225D01*
X305709Y-1082403D01*
X305650Y-1082610D01*
X305576Y-1082847D01*
X305458Y-1083084D01*
X305310Y-1083336D01*
X305295Y-1083366D01*
X305236Y-1083440D01*
X305132Y-1083558D01*
X304984Y-1083691D01*
X304821Y-1083854D01*
X304599Y-1084017D01*
X304362Y-1084151D01*
X304081Y-1084284D01*
X304066D01*
X304051Y-1084299D01*
X303992Y-1084314D01*
X303932Y-1084328D01*
X303844Y-1084358D01*
X303755Y-1084373D01*
X303622Y-1084402D01*
X303488Y-1084432D01*
X303325Y-1084462D01*
X303148Y-1084491D01*
X302955Y-1084506D01*
X302733Y-1084536D01*
X302496Y-1084550D01*
X302244Y-1084565D01*
X301978Y-1084580D01*
X297180D01*
Y-1084314D01*
X297624D01*
X297728Y-1084299D01*
X297846Y-1084269D01*
X297994Y-1084225D01*
X298128Y-1084151D01*
X298261Y-1084062D01*
X298379Y-1083943D01*
X298394Y-1083928D01*
X298409Y-1083884D01*
X298439Y-1083825D01*
X298468Y-1083721D01*
X298498Y-1083573D01*
X298513Y-1083395D01*
X298542Y-1083173D01*
Y-1082892D01*
Y-1076702D01*
Y-1076687D01*
Y-1076658D01*
Y-1076613D01*
Y-1076554D01*
X298528Y-1076406D01*
X298513Y-1076228D01*
X298498Y-1076050D01*
X298454Y-1075858D01*
X298409Y-1075710D01*
X298365Y-1075636D01*
X298335Y-1075591D01*
X298320Y-1075577D01*
X298291Y-1075547D01*
X298217Y-1075488D01*
X298128Y-1075428D01*
X298024Y-1075384D01*
X297876Y-1075325D01*
X297713Y-1075295D01*
X297521Y-1075281D01*
X297180D01*
Y-1075014D01*
X301593D01*
X301696Y-1075029D01*
D02*
G37*
G36*
X342878Y-1074807D02*
X343011D01*
X343174Y-1074836D01*
X343352Y-1074866D01*
X343574Y-1074910D01*
X343796Y-1074969D01*
X344048Y-1075043D01*
X344300Y-1075132D01*
X344566Y-1075251D01*
X344833Y-1075384D01*
X345114Y-1075547D01*
X345381Y-1075740D01*
X345647Y-1075962D01*
X345914Y-1076213D01*
X345929Y-1076228D01*
X345973Y-1076273D01*
X346047Y-1076361D01*
X346136Y-1076465D01*
X346240Y-1076613D01*
X346343Y-1076776D01*
X346477Y-1076969D01*
X346610Y-1077191D01*
X346728Y-1077428D01*
X346861Y-1077709D01*
X346965Y-1077990D01*
X347084Y-1078301D01*
X347158Y-1078642D01*
X347232Y-1078997D01*
X347276Y-1079368D01*
X347291Y-1079753D01*
Y-1079782D01*
Y-1079841D01*
X347276Y-1079960D01*
Y-1080108D01*
X347247Y-1080300D01*
X347217Y-1080523D01*
X347173Y-1080760D01*
X347113Y-1081026D01*
X347039Y-1081293D01*
X346950Y-1081589D01*
X346847Y-1081885D01*
X346713Y-1082196D01*
X346550Y-1082492D01*
X346373Y-1082803D01*
X346151Y-1083084D01*
X345914Y-1083366D01*
X345899Y-1083381D01*
X345855Y-1083425D01*
X345780Y-1083499D01*
X345662Y-1083588D01*
X345529Y-1083691D01*
X345381Y-1083825D01*
X345188Y-1083943D01*
X344981Y-1084077D01*
X344744Y-1084225D01*
X344492Y-1084343D01*
X344226Y-1084462D01*
X343929Y-1084580D01*
X343619Y-1084669D01*
X343293Y-1084743D01*
X342937Y-1084787D01*
X342582Y-1084802D01*
X342493D01*
X342389Y-1084787D01*
X342256Y-1084772D01*
X342079Y-1084758D01*
X341886Y-1084728D01*
X341664Y-1084684D01*
X341427Y-1084624D01*
X341175Y-1084550D01*
X340909Y-1084462D01*
X340627Y-1084343D01*
X340346Y-1084210D01*
X340065Y-1084062D01*
X339798Y-1083869D01*
X339532Y-1083662D01*
X339265Y-1083410D01*
X339250Y-1083395D01*
X339206Y-1083351D01*
X339146Y-1083262D01*
X339058Y-1083158D01*
X338954Y-1083010D01*
X338850Y-1082847D01*
X338717Y-1082655D01*
X338599Y-1082433D01*
X338480Y-1082181D01*
X338362Y-1081900D01*
X338243Y-1081604D01*
X338139Y-1081278D01*
X338051Y-1080937D01*
X337991Y-1080567D01*
X337947Y-1080182D01*
X337932Y-1079767D01*
Y-1079738D01*
Y-1079664D01*
X337947Y-1079545D01*
X337962Y-1079382D01*
X337977Y-1079190D01*
X338021Y-1078968D01*
X338065Y-1078716D01*
X338125Y-1078449D01*
X338214Y-1078153D01*
X338302Y-1077857D01*
X338436Y-1077546D01*
X338584Y-1077235D01*
X338761Y-1076924D01*
X338969Y-1076628D01*
X339206Y-1076332D01*
X339472Y-1076050D01*
X339487Y-1076036D01*
X339532Y-1075991D01*
X339605Y-1075932D01*
X339709Y-1075858D01*
X339842Y-1075754D01*
X340005Y-1075651D01*
X340183Y-1075532D01*
X340376Y-1075414D01*
X340612Y-1075310D01*
X340849Y-1075192D01*
X341116Y-1075088D01*
X341397Y-1074984D01*
X341708Y-1074910D01*
X342019Y-1074851D01*
X342360Y-1074807D01*
X342700Y-1074792D01*
X342789D01*
X342878Y-1074807D01*
D02*
G37*
G36*
X311988D02*
X312122D01*
X312284Y-1074836D01*
X312462Y-1074866D01*
X312684Y-1074910D01*
X312906Y-1074969D01*
X313158Y-1075043D01*
X313410Y-1075132D01*
X313676Y-1075251D01*
X313943Y-1075384D01*
X314224Y-1075547D01*
X314491Y-1075740D01*
X314757Y-1075962D01*
X315024Y-1076213D01*
X315039Y-1076228D01*
X315083Y-1076273D01*
X315157Y-1076361D01*
X315246Y-1076465D01*
X315350Y-1076613D01*
X315453Y-1076776D01*
X315587Y-1076969D01*
X315720Y-1077191D01*
X315838Y-1077428D01*
X315972Y-1077709D01*
X316075Y-1077990D01*
X316194Y-1078301D01*
X316268Y-1078642D01*
X316342Y-1078997D01*
X316386Y-1079368D01*
X316401Y-1079753D01*
Y-1079782D01*
Y-1079841D01*
X316386Y-1079960D01*
Y-1080108D01*
X316357Y-1080300D01*
X316327Y-1080523D01*
X316283Y-1080760D01*
X316223Y-1081026D01*
X316149Y-1081293D01*
X316061Y-1081589D01*
X315957Y-1081885D01*
X315823Y-1082196D01*
X315661Y-1082492D01*
X315483Y-1082803D01*
X315261Y-1083084D01*
X315024Y-1083366D01*
X315009Y-1083381D01*
X314965Y-1083425D01*
X314891Y-1083499D01*
X314772Y-1083588D01*
X314639Y-1083691D01*
X314491Y-1083825D01*
X314298Y-1083943D01*
X314091Y-1084077D01*
X313854Y-1084225D01*
X313602Y-1084343D01*
X313336Y-1084462D01*
X313040Y-1084580D01*
X312729Y-1084669D01*
X312403Y-1084743D01*
X312047Y-1084787D01*
X311692Y-1084802D01*
X311603D01*
X311500Y-1084787D01*
X311366Y-1084772D01*
X311189Y-1084758D01*
X310996Y-1084728D01*
X310774Y-1084684D01*
X310537Y-1084624D01*
X310285Y-1084550D01*
X310019Y-1084462D01*
X309737Y-1084343D01*
X309456Y-1084210D01*
X309175Y-1084062D01*
X308908Y-1083869D01*
X308641Y-1083662D01*
X308375Y-1083410D01*
X308360Y-1083395D01*
X308316Y-1083351D01*
X308256Y-1083262D01*
X308168Y-1083158D01*
X308064Y-1083010D01*
X307960Y-1082847D01*
X307827Y-1082655D01*
X307709Y-1082433D01*
X307590Y-1082181D01*
X307472Y-1081900D01*
X307353Y-1081604D01*
X307250Y-1081278D01*
X307161Y-1080937D01*
X307101Y-1080567D01*
X307057Y-1080182D01*
X307042Y-1079767D01*
Y-1079738D01*
Y-1079664D01*
X307057Y-1079545D01*
X307072Y-1079382D01*
X307087Y-1079190D01*
X307131Y-1078968D01*
X307176Y-1078716D01*
X307235Y-1078449D01*
X307324Y-1078153D01*
X307412Y-1077857D01*
X307546Y-1077546D01*
X307694Y-1077235D01*
X307871Y-1076924D01*
X308079Y-1076628D01*
X308316Y-1076332D01*
X308582Y-1076050D01*
X308597Y-1076036D01*
X308641Y-1075991D01*
X308716Y-1075932D01*
X308819Y-1075858D01*
X308953Y-1075754D01*
X309115Y-1075651D01*
X309293Y-1075532D01*
X309486Y-1075414D01*
X309722Y-1075310D01*
X309960Y-1075192D01*
X310226Y-1075088D01*
X310507Y-1074984D01*
X310818Y-1074910D01*
X311129Y-1074851D01*
X311470Y-1074807D01*
X311810Y-1074792D01*
X311899D01*
X311988Y-1074807D01*
D02*
G37*
%LPC*%
G36*
X379987Y-1075547D02*
X379825D01*
X379706Y-1075562D01*
X379543Y-1075577D01*
X379366Y-1075606D01*
X379143Y-1075636D01*
X378907Y-1075680D01*
Y-1079664D01*
X379054D01*
X379129Y-1079678D01*
X379425D01*
X379514Y-1079664D01*
X379632D01*
X379751Y-1079649D01*
X380047Y-1079604D01*
X380373Y-1079530D01*
X380713Y-1079427D01*
X381039Y-1079279D01*
X381187Y-1079190D01*
X381320Y-1079086D01*
X381335D01*
X381350Y-1079056D01*
X381424Y-1078982D01*
X381542Y-1078849D01*
X381676Y-1078671D01*
X381794Y-1078449D01*
X381912Y-1078198D01*
X381987Y-1077902D01*
X382016Y-1077739D01*
Y-1077576D01*
Y-1077561D01*
Y-1077531D01*
Y-1077487D01*
X382001Y-1077428D01*
X381987Y-1077265D01*
X381942Y-1077057D01*
X381883Y-1076821D01*
X381779Y-1076569D01*
X381646Y-1076332D01*
X381454Y-1076110D01*
X381424Y-1076080D01*
X381350Y-1076021D01*
X381231Y-1075932D01*
X381068Y-1075828D01*
X380861Y-1075725D01*
X380609Y-1075636D01*
X380313Y-1075577D01*
X379987Y-1075547D01*
D02*
G37*
G36*
X361092D02*
X360974D01*
X360855Y-1075562D01*
X360678Y-1075577D01*
X360455Y-1075591D01*
X360219Y-1075636D01*
X359952Y-1075680D01*
X359656Y-1075754D01*
Y-1083884D01*
X359671D01*
X359700Y-1083899D01*
X359745D01*
X359804Y-1083914D01*
X359967Y-1083943D01*
X360174Y-1083973D01*
X360411Y-1084017D01*
X360663Y-1084047D01*
X360914Y-1084062D01*
X361151Y-1084077D01*
X361226D01*
X361314Y-1084062D01*
X361418D01*
X361566Y-1084047D01*
X361729Y-1084017D01*
X361907Y-1083988D01*
X362099Y-1083928D01*
X362307Y-1083869D01*
X362529Y-1083795D01*
X362751Y-1083706D01*
X362988Y-1083588D01*
X363210Y-1083469D01*
X363432Y-1083307D01*
X363654Y-1083144D01*
X363861Y-1082936D01*
X363876Y-1082922D01*
X363906Y-1082877D01*
X363965Y-1082818D01*
X364024Y-1082729D01*
X364113Y-1082610D01*
X364202Y-1082462D01*
X364306Y-1082299D01*
X364409Y-1082107D01*
X364498Y-1081900D01*
X364602Y-1081663D01*
X364691Y-1081411D01*
X364779Y-1081130D01*
X364839Y-1080834D01*
X364898Y-1080508D01*
X364927Y-1080167D01*
X364942Y-1079812D01*
Y-1079782D01*
Y-1079723D01*
Y-1079619D01*
X364927Y-1079486D01*
X364913Y-1079323D01*
X364883Y-1079131D01*
X364854Y-1078908D01*
X364809Y-1078686D01*
X364750Y-1078435D01*
X364676Y-1078183D01*
X364587Y-1077931D01*
X364483Y-1077665D01*
X364365Y-1077413D01*
X364217Y-1077161D01*
X364054Y-1076924D01*
X363861Y-1076702D01*
X363847Y-1076687D01*
X363817Y-1076658D01*
X363758Y-1076598D01*
X363669Y-1076524D01*
X363565Y-1076435D01*
X363432Y-1076332D01*
X363284Y-1076228D01*
X363106Y-1076124D01*
X362914Y-1076021D01*
X362706Y-1075917D01*
X362484Y-1075814D01*
X362232Y-1075725D01*
X361981Y-1075651D01*
X361699Y-1075591D01*
X361403Y-1075562D01*
X361092Y-1075547D01*
D02*
G37*
G36*
X301385Y-1075488D02*
X301030D01*
X300897Y-1075503D01*
X300734D01*
X300541Y-1075532D01*
X300319Y-1075562D01*
X300112Y-1075591D01*
X299890Y-1075651D01*
Y-1079308D01*
X299934D01*
X299994Y-1079323D01*
X300053Y-1079338D01*
X300142Y-1079353D01*
X300245D01*
X300467Y-1079382D01*
X300690D01*
X300808Y-1079397D01*
X301474D01*
X301578Y-1079382D01*
X301800Y-1079368D01*
X302052Y-1079353D01*
X302304Y-1079308D01*
X302555Y-1079264D01*
X302763Y-1079190D01*
X302792Y-1079175D01*
X302852Y-1079145D01*
X302940Y-1079101D01*
X303059Y-1079027D01*
X303192Y-1078923D01*
X303325Y-1078805D01*
X303459Y-1078671D01*
X303562Y-1078509D01*
X303577Y-1078494D01*
X303607Y-1078435D01*
X303651Y-1078331D01*
X303710Y-1078213D01*
X303755Y-1078064D01*
X303799Y-1077902D01*
X303829Y-1077709D01*
X303844Y-1077516D01*
Y-1077502D01*
Y-1077472D01*
Y-1077428D01*
X303829Y-1077368D01*
X303814Y-1077220D01*
X303755Y-1077013D01*
X303681Y-1076791D01*
X303547Y-1076554D01*
X303385Y-1076317D01*
X303266Y-1076199D01*
X303148Y-1076080D01*
X303133D01*
X303118Y-1076050D01*
X303074Y-1076021D01*
X303014Y-1075991D01*
X302955Y-1075947D01*
X302866Y-1075888D01*
X302763Y-1075843D01*
X302644Y-1075784D01*
X302511Y-1075725D01*
X302363Y-1075680D01*
X302200Y-1075621D01*
X302022Y-1075577D01*
X301830Y-1075547D01*
X301608Y-1075517D01*
X301385Y-1075488D01*
D02*
G37*
G36*
X301134Y-1079901D02*
X300630D01*
X300379Y-1079915D01*
X300275D01*
X300201Y-1079930D01*
X300038Y-1079945D01*
X299890Y-1079975D01*
Y-1083899D01*
X299934D01*
X299964Y-1083914D01*
X300023Y-1083928D01*
X300186Y-1083958D01*
X300393Y-1083988D01*
X300645Y-1084017D01*
X300912Y-1084047D01*
X301208Y-1084062D01*
X301504Y-1084077D01*
X301623D01*
X301711Y-1084062D01*
X301830D01*
X301948Y-1084047D01*
X302230Y-1084003D01*
X302555Y-1083943D01*
X302881Y-1083840D01*
X303192Y-1083706D01*
X303473Y-1083514D01*
X303488D01*
X303503Y-1083484D01*
X303577Y-1083410D01*
X303696Y-1083292D01*
X303814Y-1083114D01*
X303932Y-1082907D01*
X304051Y-1082670D01*
X304125Y-1082388D01*
X304155Y-1082240D01*
Y-1082092D01*
Y-1082063D01*
Y-1081989D01*
X304140Y-1081885D01*
X304110Y-1081752D01*
X304081Y-1081589D01*
X304021Y-1081411D01*
X303932Y-1081218D01*
X303829Y-1081026D01*
X303814Y-1080996D01*
X303770Y-1080937D01*
X303696Y-1080848D01*
X303592Y-1080730D01*
X303444Y-1080597D01*
X303266Y-1080463D01*
X303059Y-1080330D01*
X302822Y-1080212D01*
X302807D01*
X302792Y-1080197D01*
X302748Y-1080182D01*
X302703Y-1080167D01*
X302555Y-1080108D01*
X302363Y-1080049D01*
X302111Y-1080004D01*
X301830Y-1079945D01*
X301489Y-1079915D01*
X301134Y-1079901D01*
D02*
G37*
G36*
X342567Y-1075295D02*
X342449D01*
X342360Y-1075310D01*
X342241Y-1075325D01*
X342123Y-1075340D01*
X341827Y-1075414D01*
X341501Y-1075532D01*
X341323Y-1075606D01*
X341160Y-1075695D01*
X340983Y-1075814D01*
X340820Y-1075947D01*
X340657Y-1076095D01*
X340509Y-1076258D01*
X340494Y-1076273D01*
X340464Y-1076317D01*
X340420Y-1076376D01*
X340361Y-1076480D01*
X340287Y-1076598D01*
X340198Y-1076747D01*
X340124Y-1076924D01*
X340035Y-1077132D01*
X339931Y-1077368D01*
X339857Y-1077620D01*
X339768Y-1077916D01*
X339694Y-1078227D01*
X339635Y-1078568D01*
X339591Y-1078923D01*
X339561Y-1079323D01*
X339546Y-1079738D01*
Y-1079767D01*
Y-1079841D01*
Y-1079960D01*
X339561Y-1080123D01*
X339576Y-1080315D01*
X339605Y-1080537D01*
X339635Y-1080789D01*
X339665Y-1081070D01*
X339724Y-1081352D01*
X339783Y-1081648D01*
X339872Y-1081944D01*
X339961Y-1082255D01*
X340079Y-1082551D01*
X340213Y-1082833D01*
X340361Y-1083099D01*
X340538Y-1083351D01*
X340553Y-1083366D01*
X340568Y-1083395D01*
X340612Y-1083440D01*
X340672Y-1083499D01*
X340760Y-1083573D01*
X340849Y-1083647D01*
X340953Y-1083736D01*
X341086Y-1083825D01*
X341368Y-1084003D01*
X341723Y-1084151D01*
X341916Y-1084210D01*
X342123Y-1084254D01*
X342330Y-1084284D01*
X342567Y-1084299D01*
X342700D01*
X342789Y-1084284D01*
X342908Y-1084269D01*
X343041Y-1084239D01*
X343189Y-1084210D01*
X343352Y-1084165D01*
X343530Y-1084106D01*
X343707Y-1084047D01*
X343885Y-1083958D01*
X344078Y-1083854D01*
X344255Y-1083736D01*
X344448Y-1083588D01*
X344626Y-1083425D01*
X344788Y-1083247D01*
X344803Y-1083232D01*
X344833Y-1083203D01*
X344877Y-1083129D01*
X344922Y-1083040D01*
X344996Y-1082936D01*
X345070Y-1082788D01*
X345144Y-1082625D01*
X345233Y-1082433D01*
X345322Y-1082225D01*
X345396Y-1081974D01*
X345470Y-1081707D01*
X345544Y-1081411D01*
X345588Y-1081070D01*
X345632Y-1080730D01*
X345662Y-1080345D01*
X345677Y-1079930D01*
Y-1079901D01*
Y-1079827D01*
Y-1079693D01*
X345662Y-1079530D01*
X345647Y-1079323D01*
X345632Y-1079086D01*
X345603Y-1078834D01*
X345558Y-1078553D01*
X345440Y-1077946D01*
X345366Y-1077650D01*
X345262Y-1077339D01*
X345159Y-1077043D01*
X345025Y-1076761D01*
X344877Y-1076495D01*
X344700Y-1076258D01*
X344685Y-1076243D01*
X344670Y-1076213D01*
X344626Y-1076169D01*
X344551Y-1076110D01*
X344477Y-1076036D01*
X344389Y-1075947D01*
X344270Y-1075873D01*
X344152Y-1075769D01*
X344003Y-1075680D01*
X343841Y-1075606D01*
X343663Y-1075517D01*
X343470Y-1075443D01*
X343263Y-1075384D01*
X343056Y-1075340D01*
X342819Y-1075310D01*
X342567Y-1075295D01*
D02*
G37*
G36*
X311677D02*
X311559D01*
X311470Y-1075310D01*
X311351Y-1075325D01*
X311233Y-1075340D01*
X310937Y-1075414D01*
X310611Y-1075532D01*
X310433Y-1075606D01*
X310270Y-1075695D01*
X310093Y-1075814D01*
X309930Y-1075947D01*
X309767Y-1076095D01*
X309619Y-1076258D01*
X309604Y-1076273D01*
X309575Y-1076317D01*
X309530Y-1076376D01*
X309471Y-1076480D01*
X309397Y-1076598D01*
X309308Y-1076747D01*
X309234Y-1076924D01*
X309145Y-1077132D01*
X309041Y-1077368D01*
X308967Y-1077620D01*
X308878Y-1077916D01*
X308804Y-1078227D01*
X308745Y-1078568D01*
X308701Y-1078923D01*
X308671Y-1079323D01*
X308656Y-1079738D01*
Y-1079767D01*
Y-1079841D01*
Y-1079960D01*
X308671Y-1080123D01*
X308686Y-1080315D01*
X308716Y-1080537D01*
X308745Y-1080789D01*
X308775Y-1081070D01*
X308834Y-1081352D01*
X308893Y-1081648D01*
X308982Y-1081944D01*
X309071Y-1082255D01*
X309189Y-1082551D01*
X309323Y-1082833D01*
X309471Y-1083099D01*
X309648Y-1083351D01*
X309663Y-1083366D01*
X309678Y-1083395D01*
X309722Y-1083440D01*
X309782Y-1083499D01*
X309871Y-1083573D01*
X309960Y-1083647D01*
X310063Y-1083736D01*
X310196Y-1083825D01*
X310478Y-1084003D01*
X310833Y-1084151D01*
X311026Y-1084210D01*
X311233Y-1084254D01*
X311440Y-1084284D01*
X311677Y-1084299D01*
X311810D01*
X311899Y-1084284D01*
X312018Y-1084269D01*
X312151Y-1084239D01*
X312299Y-1084210D01*
X312462Y-1084165D01*
X312640Y-1084106D01*
X312817Y-1084047D01*
X312995Y-1083958D01*
X313188Y-1083854D01*
X313365Y-1083736D01*
X313558Y-1083588D01*
X313736Y-1083425D01*
X313899Y-1083247D01*
X313913Y-1083232D01*
X313943Y-1083203D01*
X313987Y-1083129D01*
X314032Y-1083040D01*
X314106Y-1082936D01*
X314180Y-1082788D01*
X314254Y-1082625D01*
X314343Y-1082433D01*
X314432Y-1082225D01*
X314506Y-1081974D01*
X314580Y-1081707D01*
X314654Y-1081411D01*
X314698Y-1081070D01*
X314743Y-1080730D01*
X314772Y-1080345D01*
X314787Y-1079930D01*
Y-1079901D01*
Y-1079827D01*
Y-1079693D01*
X314772Y-1079530D01*
X314757Y-1079323D01*
X314743Y-1079086D01*
X314713Y-1078834D01*
X314669Y-1078553D01*
X314550Y-1077946D01*
X314476Y-1077650D01*
X314372Y-1077339D01*
X314269Y-1077043D01*
X314135Y-1076761D01*
X313987Y-1076495D01*
X313810Y-1076258D01*
X313795Y-1076243D01*
X313780Y-1076213D01*
X313736Y-1076169D01*
X313661Y-1076110D01*
X313587Y-1076036D01*
X313499Y-1075947D01*
X313380Y-1075873D01*
X313262Y-1075769D01*
X313114Y-1075680D01*
X312951Y-1075606D01*
X312773Y-1075517D01*
X312581Y-1075443D01*
X312373Y-1075384D01*
X312166Y-1075340D01*
X311929Y-1075310D01*
X311677Y-1075295D01*
D02*
G37*
%LPD*%
D12*
X10000Y-270000D02*
G03*
X20599Y-280599I5300J-5300D01*
G01*
Y-159401D02*
G03*
X10000Y-170000I-5300J-5300D01*
G01*
X-20599Y-280599D02*
G03*
X-10000Y-270000I5300J5300D01*
G01*
Y-170000D02*
G03*
X-20599Y-159401I-5300J5300D01*
G01*
X45001Y-256200D02*
Y-183800D01*
X20599Y-280599D02*
X45001Y-256200D01*
X20599Y-159401D02*
X45001Y-183800D01*
X10000Y-270000D02*
X30000Y-250000D01*
X10000Y-170000D02*
X30000Y-190000D01*
X-45001Y-256200D02*
Y-183800D01*
Y-256200D02*
X-20599Y-280599D01*
X-30000Y-250000D02*
X-10000Y-270000D01*
X-45001Y-183800D02*
X-20599Y-159401D01*
X-30000Y-190000D02*
X-10000Y-170000D01*
D19*
X30000Y-250000D02*
Y-190000D01*
X-30000Y-250000D02*
Y-190000D01*
D20*
X-174450Y-227000D02*
D03*
X-104535Y-347200D02*
D03*
X-95635D02*
D03*
X-131350Y-47728D02*
D03*
X-140250D02*
D03*
X41259Y-33881D02*
D03*
X50159D02*
D03*
X-91450Y-36000D02*
D03*
X-82550D02*
D03*
X-187960Y24130D02*
D03*
X-196860D02*
D03*
X-176550Y41000D02*
D03*
X-185450D02*
D03*
X-185723Y86958D02*
D03*
X-176823D02*
D03*
X-220450Y110000D02*
D03*
X-211550D02*
D03*
X-182550Y99000D02*
D03*
X-191450D02*
D03*
X-108847Y-404000D02*
D03*
X-117747D02*
D03*
X-152253Y-407000D02*
D03*
X-161153D02*
D03*
X-159000Y-36881D02*
D03*
X-150100D02*
D03*
X-91450Y-24000D02*
D03*
X-82550D02*
D03*
X85512Y-73000D02*
D03*
X94412D02*
D03*
X-51900Y27350D02*
D03*
X-60800D02*
D03*
X-14600Y34290D02*
D03*
X-23500D02*
D03*
X201450Y114000D02*
D03*
X210350D02*
D03*
X137087Y200000D02*
D03*
X128187D02*
D03*
X55550Y-431000D02*
D03*
X64450D02*
D03*
Y-442000D02*
D03*
X55550D02*
D03*
X-135258Y-259000D02*
D03*
X-144157D02*
D03*
X-125586Y-249000D02*
D03*
X-116686D02*
D03*
X-118753Y-259000D02*
D03*
X-127653D02*
D03*
X-104550Y-337000D02*
D03*
X-113450D02*
D03*
X-165550Y-227000D02*
D03*
X-133875Y-153771D02*
D03*
X-142775D02*
D03*
X-63390Y-323000D02*
D03*
X-72290D02*
D03*
D21*
X-88900Y-401320D02*
D03*
X-167640Y-387350D02*
D03*
X129540Y-396918D02*
D03*
X169278Y166370D02*
D03*
X-70000Y-41000D02*
D03*
X21171Y39000D02*
D03*
X157480Y31750D02*
D03*
X148000Y60000D02*
D03*
X-43219Y77059D02*
D03*
X85000Y-42000D02*
D03*
X196350Y59690D02*
D03*
X114266Y-25860D02*
D03*
X118076Y-55521D02*
D03*
X101845Y48630D02*
D03*
X-88597Y197863D02*
D03*
X-202431Y130805D02*
D03*
X-183684Y67000D02*
D03*
X-142000Y-165000D02*
D03*
X-219302Y17405D02*
D03*
X-105087Y115089D02*
D03*
X-77707Y-162000D02*
D03*
X-160000Y-426000D02*
D03*
X-93980Y-422910D02*
D03*
X-112297Y-422738D02*
D03*
X-99000Y77723D02*
D03*
X176056Y92874D02*
D03*
X162560Y66040D02*
D03*
X204710Y17497D02*
D03*
X-11473Y-45506D02*
D03*
X23050Y-32981D02*
D03*
X62230Y-51895D02*
D03*
X157776Y8784D02*
D03*
X-2540Y45918D02*
D03*
X220526Y83146D02*
D03*
X-13000Y-240853D02*
D03*
X94000Y196000D02*
D03*
X-69653Y-299350D02*
D03*
X-168474Y-277735D02*
D03*
X-166000Y-321000D02*
D03*
X-55300Y-271000D02*
D03*
X-172426Y-299350D02*
D03*
X-23000Y-310000D02*
D03*
X86617Y-435602D02*
D03*
X64450Y-416114D02*
D03*
X36817Y-439000D02*
D03*
X113000Y-409800D02*
D03*
X-116287Y214312D02*
D03*
X-118000Y274000D02*
D03*
X-144425Y-484402D02*
D03*
X-276000Y-71000D02*
D03*
X192000Y-243000D02*
D03*
X-10853Y73781D02*
D03*
X-111147Y-388620D02*
D03*
X65000Y-268520D02*
D03*
X62000Y-184000D02*
D03*
X-86747Y-440001D02*
D03*
X-107950Y-469601D02*
D03*
X-47000Y-28000D02*
D03*
D25*
X180635Y-21665D02*
D03*
X185635D02*
D03*
X190635D02*
D03*
X195635D02*
D03*
Y8335D02*
D03*
X190635D02*
D03*
X185635D02*
D03*
X180635D02*
D03*
D29*
X171750Y-69393D02*
D03*
Y-76393D02*
D03*
D31*
X-206000Y-374254D02*
D03*
X-164491Y-466500D02*
D03*
X-164578Y-454000D02*
D03*
X-104146Y-36000D02*
D03*
D32*
X-206000Y-361054D02*
D03*
X-164491Y-479700D02*
D03*
X-164578Y-440800D02*
D03*
X-104146Y-49200D02*
D03*
D35*
X-116400Y59690D02*
D03*
Y68490D02*
D03*
X20848Y-214999D02*
D03*
Y-206199D02*
D03*
X53218Y-325400D02*
D03*
Y-316600D02*
D03*
X-44525Y-424946D02*
D03*
Y-433746D02*
D03*
X145000Y-10600D02*
D03*
Y-19400D02*
D03*
X192000Y144070D02*
D03*
Y152870D02*
D03*
X148000Y192400D02*
D03*
Y183600D02*
D03*
X-41910Y27350D02*
D03*
Y36150D02*
D03*
X-33020D02*
D03*
Y27350D02*
D03*
X116797Y198613D02*
D03*
Y207413D02*
D03*
D36*
X-184000Y-391450D02*
D03*
Y-382550D02*
D03*
X-129540Y-116850D02*
D03*
Y-107950D02*
D03*
X-49530Y114300D02*
D03*
Y123200D02*
D03*
X-54036Y-471115D02*
D03*
Y-480015D02*
D03*
X104000Y-305450D02*
D03*
Y-296550D02*
D03*
X95000D02*
D03*
Y-305450D02*
D03*
X-128350Y-414349D02*
D03*
Y-423249D02*
D03*
X-141057Y-389100D02*
D03*
Y-398000D02*
D03*
X145000Y-2450D02*
D03*
Y6450D02*
D03*
X174000Y39924D02*
D03*
Y31024D02*
D03*
X185635Y39900D02*
D03*
Y31000D02*
D03*
X93999Y-146550D02*
D03*
Y-155450D02*
D03*
X-217000Y-382550D02*
D03*
Y-391450D02*
D03*
X-206000D02*
D03*
Y-382550D02*
D03*
X51000Y3975D02*
D03*
Y12874D02*
D03*
X201101Y152920D02*
D03*
Y144020D02*
D03*
X-73124Y-406550D02*
D03*
Y-415450D02*
D03*
X39370Y-318140D02*
D03*
Y-309240D02*
D03*
X-127000Y-177450D02*
D03*
Y-168550D02*
D03*
X-49530Y102240D02*
D03*
Y93340D02*
D03*
D39*
X50059Y-25045D02*
D03*
X41259D02*
D03*
X103200Y-386969D02*
D03*
X112000D02*
D03*
X98770Y-344828D02*
D03*
X89970D02*
D03*
X-136400Y-197000D02*
D03*
X-127600D02*
D03*
X-105600Y-150960D02*
D03*
X-114400D02*
D03*
X-67557Y-346150D02*
D03*
X-58757D02*
D03*
X79200Y-395500D02*
D03*
X70400D02*
D03*
X-129600Y-337000D02*
D03*
X-138400D02*
D03*
X-114400Y-161000D02*
D03*
X-105600D02*
D03*
X-126992Y-187197D02*
D03*
X-135792D02*
D03*
X-73600Y-200000D02*
D03*
X-82400D02*
D03*
X-63007Y-314000D02*
D03*
X-71807D02*
D03*
X-159250Y62000D02*
D03*
X-168050D02*
D03*
X-210656Y33000D02*
D03*
X-219456D02*
D03*
X183200Y132000D02*
D03*
X192000D02*
D03*
X210400Y94200D02*
D03*
X201600D02*
D03*
X210400Y104349D02*
D03*
X201600D02*
D03*
X-168023Y-36881D02*
D03*
X-176823D02*
D03*
X-34800Y62000D02*
D03*
X-26000D02*
D03*
X51000Y-12000D02*
D03*
X59800D02*
D03*
Y-4000D02*
D03*
X51000D02*
D03*
X2600Y69000D02*
D03*
X11400D02*
D03*
X146928Y174685D02*
D03*
X155728D02*
D03*
X-16600Y86000D02*
D03*
X-25400D02*
D03*
X-16600Y100000D02*
D03*
X-25400D02*
D03*
X140400Y144000D02*
D03*
X131600D02*
D03*
D54*
X-247500Y-580000D02*
D03*
X-234800D02*
D03*
X-196700D02*
D03*
X-184000D02*
D03*
X-171300D02*
D03*
X-158600D02*
D03*
X-145900D02*
D03*
X-133200D02*
D03*
X-95100D02*
D03*
X-82400D02*
D03*
X-69700D02*
D03*
X-57000D02*
D03*
X-44300D02*
D03*
X-31600D02*
D03*
X-18900D02*
D03*
X19200Y-579995D02*
D03*
X31900Y-580000D02*
D03*
X44600D02*
D03*
X57300D02*
D03*
X70000D02*
D03*
X82700D02*
D03*
X95400Y-579995D02*
D03*
X133500D02*
D03*
X146200Y-580000D02*
D03*
X158900D02*
D03*
X171600D02*
D03*
X184300D02*
D03*
X197000Y-579995D02*
D03*
X235100D02*
D03*
X247800Y-580000D02*
D03*
D56*
X171600Y-498000D02*
D03*
X158900D02*
D03*
X57388D02*
D03*
X44600Y-484000D02*
D03*
X31900Y-498000D02*
D03*
D57*
X184800D02*
D03*
X145700D02*
D03*
X70588D02*
D03*
X57800Y-484000D02*
D03*
X18700Y-498000D02*
D03*
D58*
X-173147Y140647D02*
D03*
X-166853Y134353D02*
D03*
X-178853Y132853D02*
D03*
X-185147Y139147D02*
D03*
X-149853Y127853D02*
D03*
X-156147Y134147D02*
D03*
X-55853Y168853D02*
D03*
X-62147Y175147D02*
D03*
X-119560Y125853D02*
D03*
X-125853Y132147D02*
D03*
X-111147Y141147D02*
D03*
X-104853Y134853D02*
D03*
X-105147Y149147D02*
D03*
X-98853Y142853D02*
D03*
X-173147Y127147D02*
D03*
X-166853Y120853D02*
D03*
D59*
X-158147Y186853D02*
D03*
X-151853Y193147D02*
D03*
X-105647Y171853D02*
D03*
X-99353Y178147D02*
D03*
X-77707Y181041D02*
D03*
X-84000Y174748D02*
D03*
X-112676Y178404D02*
D03*
X-106382Y184697D02*
D03*
X-132500Y195000D02*
D03*
X-138793Y188707D02*
D03*
X-158853Y200147D02*
D03*
X-165147Y193853D02*
D03*
D64*
X-188166Y153318D02*
D03*
X-181943Y159541D02*
D03*
D68*
X-156000Y-245796D02*
D03*
Y-227000D02*
D03*
X-135680Y-236400D02*
D03*
D87*
X-228347Y-369985D02*
D03*
D88*
X-225692Y-344724D02*
D03*
X-224364Y-332093D02*
D03*
X-223037Y-319463D02*
D03*
X-227019Y-357354D02*
D03*
X-194119Y-466700D02*
D03*
Y-454000D02*
D03*
D89*
X-197990Y197990D02*
D03*
X-236149Y150444D02*
D03*
X236149D02*
D03*
X263113Y95765D02*
D03*
X-263113D02*
D03*
X150444Y236149D02*
D03*
X-150444D02*
D03*
X197990Y197990D02*
D03*
D90*
X-97131Y274706D02*
D03*
X-42288Y288287D02*
D03*
D91*
X150Y-542135D02*
D03*
X-114150D02*
D03*
X-215750Y-542135D02*
D03*
X216050Y-542135D02*
D03*
X114450D02*
D03*
D92*
X-194119Y-441300D02*
D03*
D93*
X140110Y94500D02*
D03*
X87000Y-233000D02*
D03*
X-87000D02*
D03*
X-140010Y94500D02*
D03*
D94*
X-273500Y-25045D02*
D03*
Y25045D02*
D03*
X273505Y-25045D02*
D03*
Y25045D02*
D03*
D95*
X-252500Y-12855D02*
D03*
Y-155D02*
D03*
Y12545D02*
D03*
X252505Y-12545D02*
D03*
Y155D02*
D03*
Y12855D02*
D03*
D96*
X-281250Y-155D02*
D03*
X281255Y155D02*
D03*
X-28307Y171402D02*
D03*
X-113195Y-214000D02*
D03*
X-36307Y171402D02*
D03*
X-113195Y-206000D02*
D03*
D97*
X-121565Y-391565D02*
D03*
D98*
X-148435Y-418435D02*
D03*
D107*
X-210000Y79000D02*
D03*
Y69000D02*
D03*
X-219000Y79000D02*
D03*
Y69000D02*
D03*
X-201000Y79000D02*
D03*
Y69000D02*
D03*
X188135Y-6664D02*
D03*
X193935Y-12465D02*
D03*
X182335Y-12464D02*
D03*
Y-865D02*
D03*
X193935Y-864D02*
D03*
D110*
X-171750Y20000D02*
D03*
X-108250D02*
D03*
D111*
X-146250Y49000D02*
D03*
X-133750D02*
D03*
D112*
X-127250Y-61499D02*
D03*
X-133750D02*
D03*
X-140250D02*
D03*
Y-81499D02*
D03*
X-133750D02*
D03*
X-127250D02*
D03*
D113*
X-126250Y-95250D02*
D03*
X-133750D02*
D03*
D114*
X-154150Y-79950D02*
D03*
Y-72450D02*
D03*
D115*
X31750Y14735D02*
D03*
Y29855D02*
D03*
D116*
X-155941Y-117712D02*
D03*
X-159441Y-111650D02*
D03*
D117*
X-200732Y-37000D02*
D03*
X-193732D02*
D03*
D121*
X206824Y-84769D02*
D03*
X196824Y-102090D02*
D03*
X186824Y-119410D02*
D03*
X176825Y-136731D02*
D03*
D122*
X214188Y-186015D02*
D03*
X268188Y-92485D02*
D03*
D123*
X-214192Y-186015D02*
D03*
X-268192Y-92485D02*
D03*
D124*
X-206828Y-84769D02*
D03*
X-196828Y-102090D02*
D03*
X-186828Y-119410D02*
D03*
X-176828Y-136731D02*
D03*
D125*
X-210000Y74000D02*
D03*
D126*
X-200000Y54250D02*
D03*
X-204000D02*
D03*
X-208000D02*
D03*
X-212000D02*
D03*
X-216000D02*
D03*
X-220000D02*
D03*
Y93750D02*
D03*
X-216000D02*
D03*
X-212000D02*
D03*
X-208000D02*
D03*
X-204000D02*
D03*
X-200000D02*
D03*
D127*
X-210000Y85000D02*
D03*
Y63000D02*
D03*
D129*
X-58790Y284201D02*
D03*
X-80630Y278792D02*
D03*
D130*
X-50649Y258607D02*
D03*
X-56958Y257045D02*
D03*
X-63268Y255482D02*
D03*
X-69577Y253920D02*
D03*
X-75886Y252357D02*
D03*
D131*
X-100000Y-72500D02*
D03*
X-100000Y-137500D02*
D03*
D132*
X-142344Y143850D02*
D03*
X-145879Y147385D02*
D03*
X-149415Y150921D02*
D03*
X-152950Y154456D02*
D03*
X-132656Y174750D02*
D03*
X-129121Y171215D02*
D03*
X-125585Y167679D02*
D03*
X-122050Y164144D02*
D03*
D133*
Y154456D02*
D03*
X-125585Y150921D02*
D03*
X-129121Y147385D02*
D03*
X-132656Y143850D02*
D03*
X-152950Y164144D02*
D03*
X-149415Y167679D02*
D03*
X-145879Y171215D02*
D03*
X-142344Y174750D02*
D03*
D134*
X-137500Y159300D02*
D03*
D135*
X-32500Y13500D02*
D03*
X-27500Y13500D02*
D03*
X-22500Y13500D02*
D03*
X-17500Y13500D02*
D03*
X-17500Y-13500D02*
D03*
X-22500Y-13500D02*
D03*
X-27500Y-13500D02*
D03*
X-32500Y-13500D02*
D03*
D136*
X-14000Y5000D02*
D03*
X-14000Y0D02*
D03*
X-14000Y-5000D02*
D03*
X-36000Y-5000D02*
D03*
X-36000Y-0D02*
D03*
X-36000Y5000D02*
D03*
D137*
X17000Y-7500D02*
D03*
Y-2500D02*
D03*
Y2500D02*
D03*
Y7500D02*
D03*
X33000D02*
D03*
Y2500D02*
D03*
Y-2500D02*
D03*
Y-7500D02*
D03*
D138*
X22500Y7499D02*
D03*
X27500Y7500D02*
D03*
Y-7500D02*
D03*
X22500D02*
D03*
D139*
X144000Y132000D02*
D03*
X120000D02*
D03*
D140*
X188135Y-6665D02*
D03*
D141*
X203135Y-14165D02*
D03*
Y-9165D02*
D03*
Y-4165D02*
D03*
Y835D02*
D03*
X173135D02*
D03*
Y-4165D02*
D03*
Y-9165D02*
D03*
Y-14165D02*
D03*
D142*
X27500Y-341200D02*
D03*
X22500D02*
D03*
X17500D02*
D03*
X12500D02*
D03*
X7500D02*
D03*
X2500D02*
D03*
X-2500D02*
D03*
X-7500D02*
D03*
X-12500D02*
D03*
X-17500D02*
D03*
X-22500D02*
D03*
X-27500D02*
D03*
Y-424800D02*
D03*
X-22500D02*
D03*
X-17500D02*
D03*
X-12500D02*
D03*
X-7500D02*
D03*
X-2500D02*
D03*
X2500D02*
D03*
X7500D02*
D03*
X12500D02*
D03*
X17500D02*
D03*
X22500D02*
D03*
X27500D02*
D03*
D143*
X-41800Y-355500D02*
D03*
Y-360500D02*
D03*
Y-365500D02*
D03*
Y-370500D02*
D03*
Y-375500D02*
D03*
Y-380500D02*
D03*
Y-385500D02*
D03*
Y-390500D02*
D03*
Y-395500D02*
D03*
Y-400500D02*
D03*
Y-405500D02*
D03*
Y-410500D02*
D03*
X41800D02*
D03*
Y-405500D02*
D03*
Y-400500D02*
D03*
Y-395500D02*
D03*
Y-390500D02*
D03*
Y-385500D02*
D03*
Y-380500D02*
D03*
Y-375500D02*
D03*
Y-370500D02*
D03*
Y-365500D02*
D03*
Y-360500D02*
D03*
Y-355500D02*
D03*
D144*
X-65440Y80000D02*
D03*
X-80560D02*
D03*
X15560Y-239000D02*
D03*
X440D02*
D03*
Y-251000D02*
D03*
X15560D02*
D03*
X-76620Y66000D02*
D03*
X-61500D02*
D03*
D145*
X-142450Y-312050D02*
D03*
Y-299350D02*
D03*
Y-286650D02*
D03*
Y-273950D02*
D03*
X-85550D02*
D03*
Y-286650D02*
D03*
Y-299350D02*
D03*
Y-312050D02*
D03*
D146*
X-114000Y-293000D02*
D03*
D147*
X-36798Y248643D02*
D03*
X-28202Y250946D02*
D03*
D148*
X85500Y-120750D02*
D03*
Y-89250D02*
D03*
X-63000Y-127750D02*
D03*
Y-96250D02*
D03*
D149*
X82558Y-140960D02*
D03*
Y-160960D02*
D03*
X62558Y-150960D02*
D03*
D150*
X-184645Y-25442D02*
D03*
X-200644D02*
D03*
D151*
X111000Y186147D02*
D03*
X133000D02*
D03*
Y170147D02*
D03*
X111000D02*
D03*
X112000Y-374474D02*
D03*
X90000D02*
D03*
Y-358474D02*
D03*
X112000D02*
D03*
D152*
X-5474Y99874D02*
D03*
Y85874D02*
D03*
D153*
X28000Y80000D02*
D03*
X32000D02*
D03*
X36000D02*
D03*
X40000D02*
D03*
X44000D02*
D03*
X48000D02*
D03*
X52000D02*
D03*
X56000D02*
D03*
X60000D02*
D03*
X64000D02*
D03*
X68000D02*
D03*
X72000D02*
D03*
X76000D02*
D03*
X80000D02*
D03*
X84000D02*
D03*
X88000D02*
D03*
X24000Y156400D02*
D03*
X28000D02*
D03*
X32000D02*
D03*
X36000D02*
D03*
X40000D02*
D03*
X44000D02*
D03*
X48000D02*
D03*
X52000D02*
D03*
X56000D02*
D03*
X60000D02*
D03*
X64000D02*
D03*
X68000D02*
D03*
X72000D02*
D03*
X76000D02*
D03*
X80000D02*
D03*
X84000D02*
D03*
X88000D02*
D03*
X24000Y80000D02*
D03*
D154*
X94200Y150200D02*
D03*
X17800D02*
D03*
Y146200D02*
D03*
Y142200D02*
D03*
Y138200D02*
D03*
Y134200D02*
D03*
Y130200D02*
D03*
Y126200D02*
D03*
Y122200D02*
D03*
Y118200D02*
D03*
Y114200D02*
D03*
Y110200D02*
D03*
Y106200D02*
D03*
Y102200D02*
D03*
Y98200D02*
D03*
Y94200D02*
D03*
Y90200D02*
D03*
Y86200D02*
D03*
X94200D02*
D03*
Y90200D02*
D03*
Y94200D02*
D03*
Y98200D02*
D03*
Y102200D02*
D03*
Y106200D02*
D03*
Y110200D02*
D03*
Y114200D02*
D03*
Y118200D02*
D03*
Y122200D02*
D03*
Y126200D02*
D03*
Y130200D02*
D03*
Y134200D02*
D03*
Y138200D02*
D03*
Y142200D02*
D03*
Y146200D02*
D03*
D155*
X56000Y118200D02*
D03*
D156*
X-87000Y93500D02*
D03*
Y103000D02*
D03*
Y112500D02*
D03*
X-61000D02*
D03*
Y93500D02*
D03*
D157*
X-90750Y228000D02*
D03*
X-107250Y228000D02*
D03*
D158*
X70995Y183138D02*
D03*
X71000Y177268D02*
D03*
X71005Y171398D02*
D03*
X76005Y171402D02*
D03*
X76000Y177272D02*
D03*
X75995Y183142D02*
D03*
D159*
X-114400Y-194400D02*
D03*
X-95400D02*
D03*
Y-171000D02*
D03*
X-104900D02*
D03*
X-114400D02*
D03*
D160*
X-58330Y156428D02*
D03*
X-72472Y142286D02*
D03*
X-79543Y163499D02*
D03*
D161*
X-54641Y203262D02*
D03*
X-50767Y189289D02*
D03*
X-45948Y190626D02*
D03*
X-49823Y204598D02*
D03*
D162*
X-74640Y231882D02*
D03*
X-72012Y222753D02*
D03*
X-69384Y213623D02*
D03*
X-45360Y220539D02*
D03*
X-50616Y238797D02*
D03*
X-47988Y229668D02*
D03*
D164*
X-281250Y12545D02*
D03*
Y-155D02*
D03*
X281255Y155D02*
D03*
Y-12545D02*
D03*
D165*
X-278750Y-12855D02*
D03*
X278755Y12855D02*
D03*
D174*
X7501Y-214999D02*
D03*
Y-225001D02*
D03*
X-7501Y-214999D02*
D03*
Y-225001D02*
D03*
D175*
X0Y-212499D02*
D03*
Y-227501D02*
D03*
M02*
