G04*
G04 #@! TF.GenerationSoftware,Altium Limited,Altium Designer,18.1.9 (240)*
G04*
G04 Layer_Color=16711935*
%FSLAX44Y44*%
%MOMM*%
G71*
G01*
G75*
%ADD11C,0.2000*%
%ADD12C,0.1000*%
%ADD19C,0.1001*%
%ADD180C,0.1200*%
G36*
X650Y-223520D02*
Y-222520D01*
X-350D01*
Y-223520D01*
X650D01*
D02*
G37*
D11*
X238151Y-610709D02*
G03*
X258151Y-590735I26J19974D01*
G01*
X-257850Y-590735D02*
G03*
X-237850Y-610735I20000J0D01*
G01*
X299631Y64442D02*
G03*
X-300000Y62700I-299631J-64442D01*
G01*
X-257850Y-590735D02*
G03*
X-237850Y-610735I20000J0D01*
G01*
X238151Y-610735D02*
G03*
X258151Y-590735I0J20000D01*
G01*
X290000Y52593D02*
G03*
X300000Y62593I0J10000D01*
G01*
X257005Y52855D02*
G03*
X247005Y42855I0J-10000D01*
G01*
X247005D02*
G03*
X257005Y32855I10000J0D01*
G01*
X305505Y24855D02*
G03*
X297505Y32855I-8000J0D01*
G01*
X257005Y-32545D02*
G03*
X247005Y-42545I-0J-10000D01*
G01*
X247005D02*
G03*
X257005Y-52545I10000J0D01*
G01*
X300000Y-62512D02*
G03*
X290000Y-52512I-10000J0D01*
G01*
X297505Y-32545D02*
G03*
X305505Y-24545I0J8000D01*
G01*
X-290000Y-52700D02*
G03*
X-300000Y-62700I0J-10000D01*
G01*
X-300000Y62700D02*
G03*
X-290000Y52700I10000J0D01*
G01*
X-257000Y32700D02*
G03*
X-247000Y42700I0J10000D01*
G01*
D02*
G03*
X-257000Y52700I-10000J0D01*
G01*
Y-52700D02*
G03*
X-247000Y-42700I0J10000D01*
G01*
D02*
G03*
X-257000Y-32700I-10000J-0D01*
G01*
X-305500Y-24700D02*
G03*
X-297500Y-32700I8000J0D01*
G01*
Y32700D02*
G03*
X-305500Y24700I0J-8000D01*
G01*
X258000Y-592500D02*
Y-509537D01*
X243218Y-413520D02*
X258000Y-509537D01*
X-258000D02*
X-245829Y-431007D01*
X-258000Y-590735D02*
Y-509537D01*
X228074Y-610735D02*
X237490D01*
X226050Y-601845D02*
X228074Y-610735D01*
X-227750Y-610735D02*
X-225750Y-601735D01*
X-205750D01*
X204074Y-610845D02*
X206050Y-601845D01*
X-237850Y-610735D02*
X-227750D01*
X-237850D02*
X-227750Y-610735D01*
X126474Y-610845D02*
X204074D01*
X124450Y-601845D02*
X126474Y-610845D01*
X204074D02*
X206050Y-601845D01*
X226050D02*
X228074Y-610735D01*
X206050Y-601845D02*
X226050D01*
X228074Y-610735D02*
X238151D01*
X-225750Y-601735D02*
X-205750D01*
X-227750Y-610735D02*
X-225750Y-601735D01*
X-203752Y-610726D02*
X-126150Y-610845D01*
X-124150Y-601735D01*
X-104150Y-601845D01*
X-102126Y-610731D01*
X-11826Y-610849D01*
X-9850Y-601845D01*
X10150D01*
X12174Y-610845D01*
X102474D01*
X104450Y-601845D01*
X124450D01*
X-205750Y-601735D02*
X-203752Y-610726D01*
X-300000Y-62700D02*
X-299353Y-65017D01*
X299353D02*
X300000Y-62512D01*
X299778Y64473D02*
X300000Y62593D01*
X257085Y52854D02*
X290000Y52593D01*
X257005Y-52545D02*
X290033D01*
X257005Y-32545D02*
X297505D01*
X305505Y-24545D02*
Y24855D01*
X257005Y32855D02*
X297505D01*
X-290000Y-52700D02*
X-257000D01*
X-290000Y52700D02*
X-257000D01*
X-297500Y32700D02*
X-257000Y32700D01*
X-305500Y-24700D02*
Y24700D01*
X-297500Y-32700D02*
X-257000D01*
X-245829Y-431007D02*
X-239007Y-384316D01*
X-233527Y-342045D01*
X-230813Y-314760D01*
X-229690Y-294945D01*
X-229667Y-278978D01*
X-230570Y-264781D02*
X-229667Y-278978D01*
X-232430Y-250881D02*
X-230570Y-264781D01*
X-235469Y-235906D02*
X-232430Y-250881D01*
X-240168Y-218169D02*
X-235469Y-235906D01*
X-246785Y-197066D02*
X-240168Y-218169D01*
X-258000Y-165000D02*
X-246785Y-197066D01*
X-267106Y-149812D02*
X-258000Y-165000D01*
X-275318Y-134123D02*
X-267106Y-149812D01*
X-282610Y-117986D02*
X-275318Y-134123D01*
X-288957Y-101454D02*
X-282610Y-117986D01*
X-294338Y-84582D02*
X-288957Y-101454D01*
X-299353Y-65017D02*
X-294338Y-84582D01*
X294338Y-84582D02*
X299353Y-65017D01*
X288957Y-101454D02*
X294338Y-84582D01*
X282610Y-117985D02*
X288957Y-101454D01*
X275318Y-134123D02*
X282610Y-117985D01*
X267106Y-149812D02*
X275318Y-134123D01*
X258000Y-165000D02*
X267106Y-149812D01*
X246675Y-197398D02*
X258000Y-165000D01*
X240032Y-218638D02*
X246675Y-197398D01*
X235585Y-235413D02*
X240032Y-218638D01*
X232645Y-249630D02*
X235585Y-235413D01*
X230775Y-262799D02*
X232645Y-249630D01*
X229773Y-276102D02*
X230775Y-262799D01*
X229593Y-290732D02*
X229773Y-276102D01*
X229593Y-290732D02*
X230338Y-308215D01*
X232301Y-330881D01*
X236087Y-362769D01*
X243218Y-413520D01*
D12*
X258151Y-590735D02*
Y-581660D01*
X-237490Y-610735D02*
X-227750D01*
X206050Y-601845D02*
X226050D01*
X-257850Y-590735D02*
X-257780Y-552448D01*
X-104150Y-601845D02*
X-102150Y-610845D01*
X10150Y-601845D02*
X12174Y-610845D01*
X-11826Y-610849D02*
X-9850Y-601845D01*
X102474Y-610845D02*
X104450Y-601845D01*
X124450D02*
X126474Y-610845D01*
X-126150D02*
X-124150Y-601845D01*
X126474Y-610845D02*
X204074D01*
X-203750Y-610735D02*
X-126126D01*
X-124150Y-601735D02*
X-104150D01*
X-9850Y-601845D02*
X10150D01*
X-102126Y-610731D02*
X-11826Y-610849D01*
X104450Y-601845D02*
X124450D01*
X12174Y-610845D02*
X102474D01*
X-205750Y-601735D02*
X-203750Y-610735D01*
X-205750Y-601735D02*
X-203752Y-610726D01*
X10000Y-270000D02*
G03*
X20599Y-280599I5300J-5300D01*
G01*
Y-159401D02*
G03*
X10000Y-170000I-5300J-5300D01*
G01*
X-20599Y-280599D02*
G03*
X-10000Y-270000I5300J5300D01*
G01*
Y-170000D02*
G03*
X-20599Y-159401I-5300J5300D01*
G01*
X45001Y-256200D02*
Y-183800D01*
X20599Y-280599D02*
X45001Y-256200D01*
X20599Y-159401D02*
X45001Y-183800D01*
X10000Y-270000D02*
X30000Y-250000D01*
X10000Y-170000D02*
X30000Y-190000D01*
X-45001Y-256200D02*
Y-183800D01*
Y-256200D02*
X-20599Y-280599D01*
X-30000Y-250000D02*
X-10000Y-270000D01*
X-45001Y-183800D02*
X-20599Y-159401D01*
X-30000Y-190000D02*
X-10000Y-170000D01*
D19*
X30000Y-250000D02*
Y-190000D01*
X-30000Y-250000D02*
Y-190000D01*
D180*
X-257000Y32545D02*
G03*
X-247000Y42545I0J10000D01*
G01*
X-297500Y32545D02*
G03*
X-305500Y24545I0J-8000D01*
G01*
Y-24855D02*
G03*
X-297500Y-32855I8000J0D01*
G01*
X-247000Y-42855D02*
G03*
X-257000Y-32855I-10000J0D01*
G01*
Y32545D02*
G03*
X-247000Y42545I0J10000D01*
G01*
X-297500Y32545D02*
G03*
X-305500Y24545I0J-8000D01*
G01*
Y-24855D02*
G03*
X-297500Y-32855I8000J0D01*
G01*
X-247000Y-42855D02*
G03*
X-257000Y-32855I-10000J0D01*
G01*
Y-52855D02*
G03*
X-247000Y-42855I0J10000D01*
G01*
Y42545D02*
G03*
X-257000Y52545I-10000J0D01*
G01*
X247005Y-42545D02*
G03*
X257005Y-52545I10000J0D01*
G01*
Y52855D02*
G03*
X247005Y42855I0J-10000D01*
G01*
D02*
G03*
X257005Y32855I10000J0D01*
G01*
X305505Y24855D02*
G03*
X297505Y32855I-8000J0D01*
G01*
Y-32545D02*
G03*
X305505Y-24545I0J8000D01*
G01*
X257005Y-32545D02*
G03*
X247005Y-42545I0J-10000D01*
G01*
Y42855D02*
G03*
X257005Y32855I10000J0D01*
G01*
X305505Y24855D02*
G03*
X297505Y32855I-8000J0D01*
G01*
Y-32545D02*
G03*
X305505Y-24545I0J8000D01*
G01*
X257005Y-32545D02*
G03*
X247005Y-42545I0J-10000D01*
G01*
X-297500Y32545D02*
X-257000D01*
X-305500Y-24855D02*
Y24545D01*
X-297500Y-32855D02*
X-257000D01*
X-297500Y32545D02*
X-257000D01*
X-305500Y-24855D02*
Y24545D01*
X-297500Y-32855D02*
X-257000D01*
X-273500Y-52855D02*
X-257000D01*
X-273500Y52545D02*
X-257000D01*
X257005Y-52545D02*
X273505D01*
X257005Y52855D02*
X273505D01*
X257005Y32855D02*
X297505D01*
X305505Y-24545D02*
Y24855D01*
X257005Y-32545D02*
X297505D01*
X257005Y32855D02*
X297505D01*
X305505Y-24545D02*
Y24855D01*
X257005Y-32545D02*
X297505D01*
M02*
