G04*
G04 #@! TF.GenerationSoftware,Altium Limited,Altium Designer,18.1.9 (240)*
G04*
G04 Layer_Color=255*
%FSLAX44Y44*%
%MOMM*%
G71*
G01*
G75*
%ADD12C,0.1000*%
%ADD19C,0.1001*%
%ADD20R,0.5100X0.6000*%
%ADD21C,1.0000*%
G04:AMPARAMS|DCode=22|XSize=0.5mm|YSize=0.35mm|CornerRadius=0mm|HoleSize=0mm|Usage=FLASHONLY|Rotation=221.874|XOffset=0mm|YOffset=0mm|HoleType=Round|Shape=Rectangle|*
%AMROTATEDRECTD22*
4,1,4,0.0693,0.2972,0.3030,0.0366,-0.0693,-0.2972,-0.3030,-0.0366,0.0693,0.2972,0.0*
%
%ADD22ROTATEDRECTD22*%

%ADD24R,2.4000X3.0500*%
%ADD25R,0.3000X0.8000*%
G04:AMPARAMS|DCode=26|XSize=1.2mm|YSize=0.6mm|CornerRadius=0mm|HoleSize=0mm|Usage=FLASHONLY|Rotation=105.969|XOffset=0mm|YOffset=0mm|HoleType=Round|Shape=Rectangle|*
%AMROTATEDRECTD26*
4,1,4,0.4535,-0.4943,-0.1234,-0.6594,-0.4535,0.4943,0.1234,0.6594,0.4535,-0.4943,0.0*
%
%ADD26ROTATEDRECTD26*%

G04:AMPARAMS|DCode=27|XSize=0.25mm|YSize=0.08mm|CornerRadius=0mm|HoleSize=0mm|Usage=FLASHONLY|Rotation=199.000|XOffset=0mm|YOffset=0mm|HoleType=Round|Shape=Rectangle|*
%AMROTATEDRECTD27*
4,1,4,0.1052,0.0785,0.1312,0.0029,-0.1052,-0.0785,-0.1312,-0.0029,0.1052,0.0785,0.0*
%
%ADD27ROTATEDRECTD27*%

%ADD28P,0.7071X4X244.0*%
%ADD29R,0.7000X0.4000*%
%ADD30R,0.5500X1.0500*%
%ADD31R,0.4000X0.4800*%
%ADD32R,0.3750X0.4170*%
%ADD33R,0.8000X1.0000*%
%ADD34R,2.0000X1.1000*%
%ADD35R,0.6200X0.6500*%
%ADD36R,0.6000X0.5100*%
%ADD37R,3.0000X1.0000*%
%ADD38R,0.8890X1.0414*%
%ADD39R,0.6500X0.6200*%
G04:AMPARAMS|DCode=41|XSize=0.72mm|YSize=0.6mm|CornerRadius=0mm|HoleSize=0mm|Usage=FLASHONLY|Rotation=323.838|XOffset=0mm|YOffset=0mm|HoleType=Round|Shape=Rectangle|*
%AMROTATEDRECTD41*
4,1,4,-0.4677,-0.0298,-0.1136,0.4546,0.4677,0.0298,0.1136,-0.4546,-0.4677,-0.0298,0.0*
%
%ADD41ROTATEDRECTD41*%

%ADD42P,1.1314X4X338.0*%
%ADD43P,1.1314X4X341.0*%
%ADD44P,1.1314X4X144.5*%
%ADD45R,2.8000X1.0000*%
%ADD46R,0.8000X0.8000*%
%ADD47R,2.3000X0.3500*%
%ADD48R,0.3500X1.3000*%
%ADD49R,0.9500X0.4000*%
%ADD50R,1.5000X4.4000*%
%ADD51R,1.1176X1.7526*%
%ADD52R,4.0000X1.7000*%
%ADD53R,5.0000X2.0000*%
%ADD54R,1.0000X6.1470*%
%ADD55R,1.0000X3.0000*%
%ADD56R,0.4800X0.4000*%
%ADD57R,0.4170X0.3750*%
G04:AMPARAMS|DCode=58|XSize=0.51mm|YSize=0.6mm|CornerRadius=0mm|HoleSize=0mm|Usage=FLASHONLY|Rotation=135.000|XOffset=0mm|YOffset=0mm|HoleType=Round|Shape=Rectangle|*
%AMROTATEDRECTD58*
4,1,4,0.3925,0.0318,-0.0318,-0.3925,-0.3925,-0.0318,0.0318,0.3925,0.3925,0.0318,0.0*
%
%ADD58ROTATEDRECTD58*%

G04:AMPARAMS|DCode=59|XSize=0.51mm|YSize=0.6mm|CornerRadius=0mm|HoleSize=0mm|Usage=FLASHONLY|Rotation=45.000|XOffset=0mm|YOffset=0mm|HoleType=Round|Shape=Rectangle|*
%AMROTATEDRECTD59*
4,1,4,0.0318,-0.3925,-0.3925,0.0318,-0.0318,0.3925,0.3925,-0.0318,0.0318,-0.3925,0.0*
%
%ADD59ROTATEDRECTD59*%

G04:AMPARAMS|DCode=60|XSize=0.51mm|YSize=0.6mm|CornerRadius=0mm|HoleSize=0mm|Usage=FLASHONLY|Rotation=110.000|XOffset=0mm|YOffset=0mm|HoleType=Round|Shape=Rectangle|*
%AMROTATEDRECTD60*
4,1,4,0.3691,-0.1370,-0.1947,-0.3422,-0.3691,0.1370,0.1947,0.3422,0.3691,-0.1370,0.0*
%
%ADD60ROTATEDRECTD60*%

G04:AMPARAMS|DCode=61|XSize=0.51mm|YSize=0.6mm|CornerRadius=0mm|HoleSize=0mm|Usage=FLASHONLY|Rotation=102.500|XOffset=0mm|YOffset=0mm|HoleType=Round|Shape=Rectangle|*
%AMROTATEDRECTD61*
4,1,4,0.3481,-0.1840,-0.2377,-0.3139,-0.3481,0.1840,0.2377,0.3139,0.3481,-0.1840,0.0*
%
%ADD61ROTATEDRECTD61*%

G04:AMPARAMS|DCode=62|XSize=0.51mm|YSize=0.6mm|CornerRadius=0mm|HoleSize=0mm|Usage=FLASHONLY|Rotation=212.703|XOffset=0mm|YOffset=0mm|HoleType=Round|Shape=Rectangle|*
%AMROTATEDRECTD62*
4,1,4,0.0525,0.3902,0.3767,-0.1147,-0.0525,-0.3902,-0.3767,0.1147,0.0525,0.3902,0.0*
%
%ADD62ROTATEDRECTD62*%

G04:AMPARAMS|DCode=63|XSize=0.65mm|YSize=0.62mm|CornerRadius=0mm|HoleSize=0mm|Usage=FLASHONLY|Rotation=135.000|XOffset=0mm|YOffset=0mm|HoleType=Round|Shape=Rectangle|*
%AMROTATEDRECTD63*
4,1,4,0.4490,-0.0106,0.0106,-0.4490,-0.4490,0.0106,-0.0106,0.4490,0.4490,-0.0106,0.0*
%
%ADD63ROTATEDRECTD63*%

G04:AMPARAMS|DCode=64|XSize=0.65mm|YSize=0.62mm|CornerRadius=0mm|HoleSize=0mm|Usage=FLASHONLY|Rotation=225.000|XOffset=0mm|YOffset=0mm|HoleType=Round|Shape=Rectangle|*
%AMROTATEDRECTD64*
4,1,4,0.0106,0.4490,0.4490,0.0106,-0.0106,-0.4490,-0.4490,-0.0106,0.0106,0.4490,0.0*
%
%ADD64ROTATEDRECTD64*%

G04:AMPARAMS|DCode=65|XSize=0.65mm|YSize=0.62mm|CornerRadius=0mm|HoleSize=0mm|Usage=FLASHONLY|Rotation=233.000|XOffset=0mm|YOffset=0mm|HoleType=Round|Shape=Rectangle|*
%AMROTATEDRECTD65*
4,1,4,-0.0520,0.4461,0.4432,0.0730,0.0520,-0.4461,-0.4432,-0.0730,-0.0520,0.4461,0.0*
%
%ADD65ROTATEDRECTD65*%

%ADD66R,0.6000X1.1000*%
%ADD67R,0.9000X0.9500*%
%ADD68R,1.0414X0.8890*%
%ADD69R,1.0000X0.6500*%
%ADD70R,2.7940X1.5240*%
%ADD71R,1.1000X1.1000*%
%ADD72R,1.1000X0.6000*%
%ADD73R,0.3000X0.8750*%
%ADD75R,0.8750X0.3000*%
%ADD76R,0.3000X0.5250*%
%ADD77R,0.4250X0.3000*%
G04:AMPARAMS|DCode=78|XSize=1.35mm|YSize=1mm|CornerRadius=0mm|HoleSize=0mm|Usage=FLASHONLY|Rotation=315.000|XOffset=0mm|YOffset=0mm|HoleType=Round|Shape=Rectangle|*
%AMROTATEDRECTD78*
4,1,4,-0.8309,0.1237,-0.1237,0.8309,0.8309,-0.1237,0.1237,-0.8309,-0.8309,0.1237,0.0*
%
%ADD78ROTATEDRECTD78*%

G04:AMPARAMS|DCode=79|XSize=2mm|YSize=1.8mm|CornerRadius=0mm|HoleSize=0mm|Usage=FLASHONLY|Rotation=315.000|XOffset=0mm|YOffset=0mm|HoleType=Round|Shape=Rectangle|*
%AMROTATEDRECTD79*
4,1,4,-1.3435,0.0707,-0.0707,1.3435,1.3435,-0.0707,0.0707,-1.3435,-1.3435,0.0707,0.0*
%
%ADD79ROTATEDRECTD79*%

G04:AMPARAMS|DCode=80|XSize=1.55mm|YSize=1mm|CornerRadius=0mm|HoleSize=0mm|Usage=FLASHONLY|Rotation=135.000|XOffset=0mm|YOffset=0mm|HoleType=Round|Shape=Rectangle|*
%AMROTATEDRECTD80*
4,1,4,0.9016,-0.1945,0.1945,-0.9016,-0.9016,0.1945,-0.1945,0.9016,0.9016,-0.1945,0.0*
%
%ADD80ROTATEDRECTD80*%

%ADD81R,1.0000X1.5500*%
%ADD84R,2.6000X1.5000*%
G04:AMPARAMS|DCode=85|XSize=0.9mm|YSize=4.55mm|CornerRadius=0.1755mm|HoleSize=0mm|Usage=FLASHONLY|Rotation=90.000|XOffset=0mm|YOffset=0mm|HoleType=Round|Shape=RoundedRectangle|*
%AMROUNDEDRECTD85*
21,1,0.9000,4.1990,0,0,90.0*
21,1,0.5490,4.5500,0,0,90.0*
1,1,0.3510,2.0995,0.2745*
1,1,0.3510,2.0995,-0.2745*
1,1,0.3510,-2.0995,-0.2745*
1,1,0.3510,-2.0995,0.2745*
%
%ADD85ROUNDEDRECTD85*%
G04:AMPARAMS|DCode=86|XSize=0.9mm|YSize=5.05mm|CornerRadius=0.1755mm|HoleSize=0mm|Usage=FLASHONLY|Rotation=90.000|XOffset=0mm|YOffset=0mm|HoleType=Round|Shape=RoundedRectangle|*
%AMROUNDEDRECTD86*
21,1,0.9000,4.6990,0,0,90.0*
21,1,0.5490,5.0500,0,0,90.0*
1,1,0.3510,2.3495,0.2745*
1,1,0.3510,2.3495,-0.2745*
1,1,0.3510,-2.3495,-0.2745*
1,1,0.3510,-2.3495,0.2745*
%
%ADD86ROUNDEDRECTD86*%
%ADD87P,1.5132X4X129.0*%
%ADD88C,1.0700*%
%ADD89C,1.5000*%
G04:AMPARAMS|DCode=90|XSize=1.05mm|YSize=2.15mm|CornerRadius=0mm|HoleSize=0mm|Usage=FLASHONLY|Rotation=13.909|XOffset=0mm|YOffset=0mm|HoleType=Round|Shape=Round|*
%AMOVALD90*
21,1,1.1000,1.0500,0.0000,0.0000,103.9*
1,1,1.0500,0.1322,-0.5339*
1,1,1.0500,-0.1322,0.5339*
%
%ADD90OVALD90*%

%ADD91C,5.0000*%
%ADD92R,1.0700X1.0700*%
%ADD93C,3.0000*%
G04:AMPARAMS|DCode=94|XSize=0.7mm|YSize=1.5mm|CornerRadius=0.35mm|HoleSize=0mm|Usage=FLASHONLY|Rotation=90.000|XOffset=0mm|YOffset=0mm|HoleType=Round|Shape=RoundedRectangle|*
%AMROUNDEDRECTD94*
21,1,0.7000,0.8000,0,0,90.0*
21,1,0.0000,1.5000,0,0,90.0*
1,1,0.7000,0.4000,0.0000*
1,1,0.7000,0.4000,0.0000*
1,1,0.7000,-0.4000,0.0000*
1,1,0.7000,-0.4000,0.0000*
%
%ADD94ROUNDEDRECTD94*%
%ADD95C,1.1000*%
%ADD96C,0.6500*%
%ADD97C,0.7500*%
%ADD98C,1.0500*%
G04:AMPARAMS|DCode=99|XSize=0.35mm|YSize=0.375mm|CornerRadius=0mm|HoleSize=0mm|Usage=FLASHONLY|Rotation=303.000|XOffset=0mm|YOffset=0mm|HoleType=Round|Shape=Rectangle|*
%AMROTATEDRECTD99*
4,1,4,-0.2526,0.0447,0.0619,0.2489,0.2526,-0.0447,-0.0619,-0.2489,-0.2526,0.0447,0.0*
%
%ADD99ROTATEDRECTD99*%

G04:AMPARAMS|DCode=100|XSize=0.375mm|YSize=0.35mm|CornerRadius=0mm|HoleSize=0mm|Usage=FLASHONLY|Rotation=303.000|XOffset=0mm|YOffset=0mm|HoleType=Round|Shape=Rectangle|*
%AMROTATEDRECTD100*
4,1,4,-0.2489,0.0619,0.0447,0.2526,0.2489,-0.0619,-0.0447,-0.2526,-0.2489,0.0619,0.0*
%
%ADD100ROTATEDRECTD100*%

%ADD107C,0.5000*%
D12*
X10000Y-270000D02*
G03*
X20599Y-280599I5300J-5300D01*
G01*
Y-159401D02*
G03*
X10000Y-170000I-5300J-5300D01*
G01*
X-20599Y-280599D02*
G03*
X-10000Y-270000I5300J5300D01*
G01*
Y-170000D02*
G03*
X-20599Y-159401I-5300J5300D01*
G01*
X45001Y-256200D02*
Y-183800D01*
X20599Y-280599D02*
X45001Y-256200D01*
X20599Y-159401D02*
X45001Y-183800D01*
X10000Y-270000D02*
X30000Y-250000D01*
X10000Y-170000D02*
X30000Y-190000D01*
X-45001Y-256200D02*
Y-183800D01*
Y-256200D02*
X-20599Y-280599D01*
X-30000Y-250000D02*
X-10000Y-270000D01*
X-45001Y-183800D02*
X-20599Y-159401D01*
X-30000Y-190000D02*
X-10000Y-170000D01*
D19*
X30000Y-250000D02*
Y-190000D01*
X-30000Y-250000D02*
Y-190000D01*
D20*
X-100970Y124460D02*
D03*
X-92070D02*
D03*
X-100970Y116840D02*
D03*
X-92070D02*
D03*
X-226700Y-64770D02*
D03*
X-217800D02*
D03*
X216000Y40000D02*
D03*
X224900D02*
D03*
X-27450Y106000D02*
D03*
X-18550D02*
D03*
X-85550Y34000D02*
D03*
X-94450D02*
D03*
X-51900Y30000D02*
D03*
X-43000D02*
D03*
X-89707Y-71150D02*
D03*
X-80807D02*
D03*
X-132070Y-39370D02*
D03*
X-140970D02*
D03*
X-114300Y-48260D02*
D03*
X-105400D02*
D03*
X-195450Y-419000D02*
D03*
X-186550D02*
D03*
X-26400Y-64787D02*
D03*
X-17500D02*
D03*
X47550Y-320000D02*
D03*
X56450D02*
D03*
Y-335000D02*
D03*
X47550D02*
D03*
Y-305000D02*
D03*
X56450D02*
D03*
X-60367Y-1592D02*
D03*
X-69267D02*
D03*
X-23900Y147000D02*
D03*
X-15000D02*
D03*
X-37450Y137000D02*
D03*
X-28550D02*
D03*
X-45000D02*
D03*
X-53900D02*
D03*
D21*
X-173990Y-36830D02*
D03*
X-58215Y273881D02*
D03*
X13970Y-32414D02*
D03*
X-76000Y-29000D02*
D03*
Y-52000D02*
D03*
X12000Y98000D02*
D03*
X-146646Y-483350D02*
D03*
X210468Y-79000D02*
D03*
X-26778Y-36941D02*
D03*
X-199500Y-253000D02*
D03*
D22*
X184947Y154503D02*
D03*
X180608Y159343D02*
D03*
X176270Y164183D02*
D03*
X171931Y169023D02*
D03*
X156666Y155339D02*
D03*
X161006Y150500D02*
D03*
X165344Y145659D02*
D03*
X169683Y140820D02*
D03*
D24*
X82000Y-95000D02*
D03*
X-82000D02*
D03*
D25*
X57500Y-75750D02*
D03*
X52500D02*
D03*
X47500D02*
D03*
X42500D02*
D03*
X37500D02*
D03*
X32500D02*
D03*
X27500D02*
D03*
X22500D02*
D03*
X17500D02*
D03*
X12500D02*
D03*
X7500D02*
D03*
X2500D02*
D03*
X-2500D02*
D03*
X-7500D02*
D03*
X-12500D02*
D03*
X-17500D02*
D03*
X-22500D02*
D03*
X-27500D02*
D03*
X-32500D02*
D03*
X-37500D02*
D03*
X-42500D02*
D03*
X-47500D02*
D03*
X-52500D02*
D03*
X-57500D02*
D03*
D26*
X-71675Y233213D02*
D03*
X-66723Y215908D02*
D03*
X-57590Y218521D02*
D03*
X-62542Y235827D02*
D03*
D27*
X217240Y54813D02*
D03*
D28*
X222679Y59752D02*
D03*
X230243Y62357D02*
D03*
X227638Y69921D02*
D03*
X225033Y77485D02*
D03*
X222429Y85049D02*
D03*
X219825Y92614D02*
D03*
X212260Y90009D02*
D03*
X204696Y87404D02*
D03*
X207301Y79840D02*
D03*
X209905Y72276D02*
D03*
X212510Y64712D02*
D03*
X215114Y57148D02*
D03*
D29*
X-17000Y59500D02*
D03*
Y66500D02*
D03*
X-92000Y95000D02*
D03*
Y102000D02*
D03*
D30*
X-236274Y-88706D02*
D03*
X-217274D02*
D03*
Y-114706D02*
D03*
X-226774D02*
D03*
X-236274D02*
D03*
D31*
X-226701Y-9949D02*
D03*
D32*
Y3251D02*
D03*
D33*
X-244264Y-134908D02*
D03*
D34*
X-225264D02*
D03*
D35*
X-191770Y-122510D02*
D03*
Y-113710D02*
D03*
X225000Y28400D02*
D03*
Y19600D02*
D03*
X-28000Y-453600D02*
D03*
Y-462400D02*
D03*
X-109000Y-450600D02*
D03*
Y-459400D02*
D03*
X-89248Y-430600D02*
D03*
Y-439400D02*
D03*
X3000Y42600D02*
D03*
Y51400D02*
D03*
X-7000Y42600D02*
D03*
Y51400D02*
D03*
X-9354Y-39974D02*
D03*
Y-31174D02*
D03*
X-51000Y-56400D02*
D03*
Y-47600D02*
D03*
X-60000Y-56378D02*
D03*
Y-47578D02*
D03*
X-101642Y93500D02*
D03*
Y102300D02*
D03*
X-96000Y19300D02*
D03*
Y10500D02*
D03*
X124217Y-216400D02*
D03*
Y-207600D02*
D03*
X132217D02*
D03*
Y-216400D02*
D03*
X-15000Y138400D02*
D03*
Y129600D02*
D03*
X-7000D02*
D03*
Y138400D02*
D03*
X1000Y129600D02*
D03*
Y138400D02*
D03*
X77098Y142400D02*
D03*
Y133600D02*
D03*
X85644Y128639D02*
D03*
Y137439D02*
D03*
X56000Y147548D02*
D03*
Y138748D02*
D03*
X64600Y138747D02*
D03*
Y147547D02*
D03*
X83000Y99600D02*
D03*
Y108400D02*
D03*
X75000D02*
D03*
Y99600D02*
D03*
X67000D02*
D03*
Y108400D02*
D03*
X217000Y28400D02*
D03*
Y19600D02*
D03*
D36*
X-203200Y-93340D02*
D03*
Y-102240D02*
D03*
Y-113660D02*
D03*
Y-122560D02*
D03*
X96000Y129450D02*
D03*
Y120550D02*
D03*
X-35000Y43350D02*
D03*
Y34450D02*
D03*
X-98000Y76000D02*
D03*
Y84900D02*
D03*
X-94127Y-28597D02*
D03*
Y-19697D02*
D03*
X192217Y-214550D02*
D03*
Y-223450D02*
D03*
Y-200450D02*
D03*
Y-191550D02*
D03*
X12000Y117550D02*
D03*
Y126450D02*
D03*
X-29000Y-387650D02*
D03*
Y-378750D02*
D03*
X58000Y-401050D02*
D03*
Y-409950D02*
D03*
X-89215Y-458450D02*
D03*
Y-449550D02*
D03*
X-109000Y-469550D02*
D03*
Y-478450D02*
D03*
X-28000Y-479450D02*
D03*
Y-470550D02*
D03*
X120345Y-266731D02*
D03*
Y-275631D02*
D03*
X132345D02*
D03*
Y-266731D02*
D03*
X8000Y-59450D02*
D03*
Y-50550D02*
D03*
X-42000Y145550D02*
D03*
Y154450D02*
D03*
X234000Y18450D02*
D03*
Y9550D02*
D03*
X95000Y194550D02*
D03*
Y203450D02*
D03*
X-53000Y-1550D02*
D03*
Y-10450D02*
D03*
X-40000D02*
D03*
Y-1550D02*
D03*
X124217Y-223550D02*
D03*
Y-232450D02*
D03*
D37*
X-260680Y-86206D02*
D03*
Y-107206D02*
D03*
D38*
X-206502Y-154940D02*
D03*
X-220218D02*
D03*
D39*
X-217274Y-74930D02*
D03*
X-226074D02*
D03*
X-186600Y-428000D02*
D03*
X-195400D02*
D03*
X-33700Y-64000D02*
D03*
X-42500D02*
D03*
X-33700Y-53000D02*
D03*
X-42500D02*
D03*
X-68600Y34000D02*
D03*
X-77400D02*
D03*
X-140970Y-48260D02*
D03*
X-132170D02*
D03*
X3600Y71000D02*
D03*
X12400D02*
D03*
X24000Y97000D02*
D03*
X32800D02*
D03*
Y89000D02*
D03*
X24000D02*
D03*
X56400Y80000D02*
D03*
X47600D02*
D03*
X60600Y126000D02*
D03*
X69400D02*
D03*
Y118000D02*
D03*
X60600D02*
D03*
X-49400Y8000D02*
D03*
X-40600D02*
D03*
Y16000D02*
D03*
X-49400D02*
D03*
D41*
X148877Y183212D02*
D03*
X141046Y188936D02*
D03*
X133215Y194660D02*
D03*
X125384Y200384D02*
D03*
X117123Y189081D02*
D03*
X124954Y183357D02*
D03*
X132785Y177633D02*
D03*
X140616Y171909D02*
D03*
D42*
X-95045Y223912D02*
D03*
X-88598Y208724D02*
D03*
D43*
X-99401Y203801D02*
D03*
X-106634Y218631D02*
D03*
D44*
X-40313Y240900D02*
D03*
X-37589Y224626D02*
D03*
D45*
X-22000Y-335000D02*
D03*
X22000D02*
D03*
Y-320000D02*
D03*
X-22000D02*
D03*
X22000Y-305000D02*
D03*
X-22000D02*
D03*
D46*
X120345Y-285931D02*
D03*
Y-302431D02*
D03*
X132345D02*
D03*
Y-285931D02*
D03*
D47*
X160217Y-215000D02*
D03*
Y-192500D02*
D03*
D48*
X176467Y-203750D02*
D03*
X143967D02*
D03*
D49*
X166967Y-208000D02*
D03*
Y-199500D02*
D03*
X153467D02*
D03*
Y-208000D02*
D03*
D50*
X-120861Y26797D02*
D03*
X-151361D02*
D03*
D51*
X63268Y57675D02*
D03*
X92732D02*
D03*
D52*
X129000Y-50750D02*
D03*
D53*
X129000Y50750D02*
D03*
D54*
X235100Y-579995D02*
D03*
X197000D02*
D03*
X133500D02*
D03*
X95400D02*
D03*
X19200D02*
D03*
X-18900Y-580000D02*
D03*
X-196700D02*
D03*
X-234800D02*
D03*
X-95100D02*
D03*
X-133200D02*
D03*
X247800D02*
D03*
X184300D02*
D03*
X171600D02*
D03*
X158900D02*
D03*
X146200D02*
D03*
X82700D02*
D03*
X70000D02*
D03*
X57300D02*
D03*
X44600D02*
D03*
X31900D02*
D03*
X-184000D02*
D03*
X-171300D02*
D03*
X-158600D02*
D03*
X-145900D02*
D03*
X-82400D02*
D03*
X-69700D02*
D03*
X-57000D02*
D03*
X-44300D02*
D03*
X-31600D02*
D03*
X-247500D02*
D03*
D55*
X-75500Y100000D02*
D03*
X-54500D02*
D03*
D56*
X-194000Y-332000D02*
D03*
Y-345000D02*
D03*
Y-319463D02*
D03*
D57*
X-180800Y-332000D02*
D03*
Y-345000D02*
D03*
Y-319463D02*
D03*
D58*
X95853Y-338853D02*
D03*
X102147Y-345147D02*
D03*
X138147Y-446147D02*
D03*
X131853Y-439853D02*
D03*
X171853Y-399853D02*
D03*
X178147Y-406147D02*
D03*
D59*
X-146147Y-324147D02*
D03*
X-139853Y-317853D02*
D03*
D60*
X-81897Y225009D02*
D03*
X-78853Y216646D02*
D03*
D61*
X-50117Y226061D02*
D03*
X-52043Y234750D02*
D03*
D62*
X209491Y112050D02*
D03*
X202002Y107241D02*
D03*
D63*
X164889Y-406889D02*
D03*
X171111Y-413111D02*
D03*
X124889Y-446889D02*
D03*
X131111Y-453111D02*
D03*
D64*
X-139111Y-331111D02*
D03*
X-132889Y-324889D02*
D03*
D65*
X118648Y213283D02*
D03*
X113352Y206255D02*
D03*
X103325Y207717D02*
D03*
X108621Y214745D02*
D03*
D66*
X-14000Y29843D02*
D03*
X0D02*
D03*
D67*
X17050Y39676D02*
D03*
X48550D02*
D03*
X17250Y59000D02*
D03*
X48750D02*
D03*
D68*
X-34000Y61142D02*
D03*
Y74858D02*
D03*
D69*
X-12000Y93750D02*
D03*
Y78250D02*
D03*
D70*
X-117293Y-62502D02*
D03*
Y-93998D02*
D03*
D71*
X-153483Y-5425D02*
D03*
Y-37424D02*
D03*
D72*
X-107000Y-8474D02*
D03*
Y-26864D02*
D03*
X-135000D02*
D03*
Y-17364D02*
D03*
Y-7864D02*
D03*
D73*
X-54817Y75272D02*
D03*
X-59817Y75272D02*
D03*
X-64817D02*
D03*
X-69817Y75272D02*
D03*
X-74817Y75272D02*
D03*
Y45022D02*
D03*
X-69817Y45022D02*
D03*
X-64817D02*
D03*
X-59817D02*
D03*
X-54817D02*
D03*
D75*
X-49692Y57647D02*
D03*
X-49692Y62647D02*
D03*
X-79942Y57647D02*
D03*
X-79942Y62647D02*
D03*
D76*
X-22500Y15625D02*
D03*
X-22500Y-15625D02*
D03*
X-17500Y-15625D02*
D03*
X-12500Y-15625D02*
D03*
X-7500Y-15625D02*
D03*
X-2500D02*
D03*
X2500Y-15625D02*
D03*
X7500Y-15625D02*
D03*
X12500Y-15625D02*
D03*
X17500D02*
D03*
X22500D02*
D03*
X22500Y15625D02*
D03*
X17500Y15625D02*
D03*
X12500Y15625D02*
D03*
X7500Y15625D02*
D03*
X2500D02*
D03*
X-2500Y15625D02*
D03*
X-7500Y15625D02*
D03*
X-12500Y15625D02*
D03*
X-17500D02*
D03*
D77*
X-23125Y7500D02*
D03*
X-23125Y2500D02*
D03*
X-23125Y-2500D02*
D03*
X-23125Y-7500D02*
D03*
X23125Y-7500D02*
D03*
X23125Y-2500D02*
D03*
X23125Y2500D02*
D03*
X23125Y7500D02*
D03*
D78*
X-150203Y-369645D02*
D03*
X-160279Y-379721D02*
D03*
X-170355Y-389797D02*
D03*
X-99645Y-420203D02*
D03*
X-109721Y-430279D02*
D03*
X-119797Y-440355D02*
D03*
D79*
X-106362Y-376362D02*
D03*
X-163638Y-433638D02*
D03*
D80*
X152248Y-394875D02*
D03*
X115125Y-357752D02*
D03*
X174875Y-372248D02*
D03*
X137752Y-335125D02*
D03*
X112248Y-434875D02*
D03*
X75125Y-397752D02*
D03*
X134875Y-412248D02*
D03*
X97752Y-375125D02*
D03*
D81*
X-16000Y-431250D02*
D03*
Y-378750D02*
D03*
X16000Y-431250D02*
D03*
Y-378750D02*
D03*
D84*
X-64817Y60147D02*
D03*
D85*
X-270750Y12545D02*
D03*
X270755Y-12545D02*
D03*
D86*
X-273250Y-155D02*
D03*
Y-12855D02*
D03*
X273255Y12855D02*
D03*
Y155D02*
D03*
D87*
X-228347Y-369985D02*
D03*
D88*
X-225692Y-344724D02*
D03*
X-224364Y-332093D02*
D03*
X-223037Y-319463D02*
D03*
X-227019Y-357354D02*
D03*
X-194119Y-466700D02*
D03*
Y-454000D02*
D03*
D89*
X-197990Y197990D02*
D03*
X-236149Y150444D02*
D03*
X236149D02*
D03*
X263113Y95765D02*
D03*
X-263113D02*
D03*
X150444Y236149D02*
D03*
X-150444D02*
D03*
X197990Y197990D02*
D03*
D90*
X-97131Y274706D02*
D03*
X-42288Y288287D02*
D03*
D91*
X150Y-542135D02*
D03*
X-114150D02*
D03*
X-215750Y-542135D02*
D03*
X216050Y-542135D02*
D03*
X114450D02*
D03*
D92*
X-194119Y-441300D02*
D03*
D93*
X140110Y94500D02*
D03*
X87000Y-233000D02*
D03*
X-87000D02*
D03*
X-140010Y94500D02*
D03*
D94*
X-273500Y-25045D02*
D03*
Y25045D02*
D03*
X273505Y-25045D02*
D03*
Y25045D02*
D03*
D95*
X-252500Y-12855D02*
D03*
Y-155D02*
D03*
Y12545D02*
D03*
X252505Y-12545D02*
D03*
Y155D02*
D03*
Y12855D02*
D03*
D96*
X-281250Y-155D02*
D03*
X281255Y155D02*
D03*
D97*
X-121565Y-391565D02*
D03*
D98*
X-148435Y-418435D02*
D03*
D99*
X183183Y118922D02*
D03*
X180459Y123115D02*
D03*
X185906Y114729D02*
D03*
X198653Y123008D02*
D03*
X195930Y127201D02*
D03*
X193207Y131394D02*
D03*
D100*
X187514Y130797D02*
D03*
X183321Y128074D02*
D03*
X191599Y115326D02*
D03*
X195792Y118049D02*
D03*
D107*
X-210000Y79000D02*
D03*
Y69000D02*
D03*
X-219000Y79000D02*
D03*
Y69000D02*
D03*
X-201000Y79000D02*
D03*
Y69000D02*
D03*
X-137500Y159300D02*
D03*
X-129298D02*
D03*
X-137500Y167502D02*
D03*
X-145702Y159300D02*
D03*
X-137500Y151098D02*
D03*
X188135Y-6664D02*
D03*
X193935Y-12465D02*
D03*
X182335Y-12464D02*
D03*
Y-865D02*
D03*
X193935Y-864D02*
D03*
M02*
