G04*
G04 #@! TF.GenerationSoftware,Altium Limited,Altium Designer,18.1.9 (240)*
G04*
G04 Layer_Color=32896*
%FSLAX44Y44*%
%MOMM*%
G71*
G01*
G75*
%ADD10C,0.2500*%
%ADD11C,0.2000*%
%ADD12C,0.1000*%
%ADD13C,0.1500*%
%ADD17C,0.1270*%
%ADD19C,0.1001*%
%ADD101C,0.2540*%
%ADD102C,0.3000*%
%ADD104C,0.4500*%
%ADD178R,1.7000X0.3810*%
G36*
X-45720Y-99920D02*
X-52070Y-105000D01*
X-45720Y-110080D01*
Y-99920D01*
D02*
G37*
G36*
X369662Y-1064550D02*
X369395D01*
X369366Y-1064328D01*
X369336Y-1064120D01*
X369277Y-1063943D01*
X369233Y-1063795D01*
X369188Y-1063676D01*
X369144Y-1063602D01*
X369114Y-1063543D01*
X369099Y-1063528D01*
X368996Y-1063395D01*
X368892Y-1063291D01*
X368773Y-1063188D01*
X368685Y-1063128D01*
X368596Y-1063069D01*
X368522Y-1063039D01*
X368477Y-1063010D01*
X368462D01*
X368344Y-1062980D01*
X368196Y-1062951D01*
X367885Y-1062921D01*
X367737Y-1062906D01*
X366360D01*
Y-1070221D01*
Y-1070503D01*
X366389Y-1070725D01*
X366404Y-1070903D01*
X366434Y-1071051D01*
X366463Y-1071140D01*
X366493Y-1071214D01*
X366508Y-1071243D01*
X366523Y-1071258D01*
X366626Y-1071376D01*
X366760Y-1071465D01*
X366908Y-1071525D01*
X367041Y-1071569D01*
X367174Y-1071599D01*
X367278Y-1071613D01*
X367722D01*
Y-1071880D01*
X363665D01*
Y-1071613D01*
X364005D01*
X364198Y-1071599D01*
X364375Y-1071569D01*
X364509Y-1071525D01*
X364627Y-1071465D01*
X364716Y-1071421D01*
X364790Y-1071376D01*
X364820Y-1071347D01*
X364835Y-1071332D01*
X364864Y-1071288D01*
X364894Y-1071214D01*
X364938Y-1071066D01*
X364968Y-1070888D01*
X364983Y-1070695D01*
X364997Y-1070518D01*
X365012Y-1070370D01*
Y-1070310D01*
Y-1070266D01*
Y-1070236D01*
Y-1070221D01*
Y-1062906D01*
X363680D01*
X363472Y-1062921D01*
X363280Y-1062936D01*
X363117Y-1062965D01*
X362984Y-1063010D01*
X362880Y-1063054D01*
X362791Y-1063084D01*
X362747Y-1063099D01*
X362732Y-1063113D01*
X362598Y-1063188D01*
X362480Y-1063291D01*
X362376Y-1063380D01*
X362302Y-1063484D01*
X362228Y-1063573D01*
X362184Y-1063647D01*
X362154Y-1063691D01*
X362139Y-1063706D01*
X362095Y-1063810D01*
X362051Y-1063943D01*
X361991Y-1064224D01*
X361962Y-1064343D01*
X361947Y-1064446D01*
X361932Y-1064520D01*
Y-1064550D01*
X361651D01*
X361754Y-1062314D01*
X369558D01*
X369662Y-1064550D01*
D02*
G37*
G36*
X336521Y-1062580D02*
X336195D01*
X335988Y-1062595D01*
X335811Y-1062625D01*
X335662Y-1062669D01*
X335544Y-1062714D01*
X335455Y-1062773D01*
X335396Y-1062817D01*
X335366Y-1062847D01*
X335351Y-1062862D01*
X335322Y-1062906D01*
X335292Y-1062965D01*
X335233Y-1063128D01*
X335203Y-1063306D01*
X335188Y-1063499D01*
X335174Y-1063676D01*
X335159Y-1063824D01*
Y-1063884D01*
Y-1063928D01*
Y-1063958D01*
Y-1063972D01*
Y-1070192D01*
Y-1070429D01*
X335174Y-1070636D01*
X335188Y-1070799D01*
X335203Y-1070918D01*
X335218Y-1071021D01*
X335233Y-1071080D01*
X335248Y-1071110D01*
Y-1071125D01*
X335277Y-1071199D01*
X335322Y-1071273D01*
X335425Y-1071376D01*
X335514Y-1071436D01*
X335544Y-1071465D01*
X335559D01*
X335781Y-1071554D01*
X335988Y-1071599D01*
X336077D01*
X336136Y-1071613D01*
X336521D01*
Y-1071880D01*
X329147D01*
X328317Y-1069481D01*
X328599D01*
X328777Y-1069792D01*
X328939Y-1070059D01*
X329087Y-1070295D01*
X329221Y-1070473D01*
X329339Y-1070621D01*
X329428Y-1070725D01*
X329487Y-1070799D01*
X329502Y-1070814D01*
X329635Y-1070932D01*
X329754Y-1071021D01*
X329872Y-1071095D01*
X329991Y-1071154D01*
X330080Y-1071199D01*
X330154Y-1071228D01*
X330198Y-1071258D01*
X330213D01*
X330376Y-1071288D01*
X330554Y-1071317D01*
X330746Y-1071332D01*
X330939Y-1071347D01*
X331116Y-1071362D01*
X333160D01*
X333278Y-1071347D01*
X333382Y-1071332D01*
X333456Y-1071317D01*
X333500D01*
X333545Y-1071302D01*
X333560Y-1071288D01*
X333574D01*
X333663Y-1071228D01*
X333722Y-1071154D01*
X333752Y-1071095D01*
X333767Y-1071080D01*
X333782Y-1071006D01*
X333797Y-1070888D01*
Y-1070769D01*
X333811Y-1070636D01*
Y-1070503D01*
Y-1070399D01*
Y-1070325D01*
Y-1070295D01*
Y-1067127D01*
X331487D01*
X331309Y-1067156D01*
X331161Y-1067171D01*
X331027Y-1067201D01*
X330939Y-1067230D01*
X330879Y-1067245D01*
X330835Y-1067275D01*
X330820D01*
X330716Y-1067334D01*
X330628Y-1067393D01*
X330554Y-1067467D01*
X330494Y-1067526D01*
X330435Y-1067615D01*
X330406Y-1067645D01*
Y-1067660D01*
X330361Y-1067748D01*
X330331Y-1067882D01*
X330287Y-1068030D01*
X330257Y-1068178D01*
X330243Y-1068311D01*
X330213Y-1068430D01*
X330198Y-1068519D01*
Y-1068533D01*
Y-1068548D01*
X329932D01*
Y-1065216D01*
X330198D01*
X330228Y-1065498D01*
X330287Y-1065749D01*
X330346Y-1065942D01*
X330420Y-1066105D01*
X330494Y-1066223D01*
X330554Y-1066312D01*
X330598Y-1066357D01*
X330613Y-1066371D01*
X330731Y-1066445D01*
X330894Y-1066505D01*
X331072Y-1066549D01*
X331250Y-1066579D01*
X331427Y-1066593D01*
X331561Y-1066608D01*
X333811D01*
Y-1062832D01*
X330939D01*
X330731Y-1062847D01*
X330568Y-1062862D01*
X330420Y-1062891D01*
X330331Y-1062906D01*
X330257Y-1062936D01*
X330213Y-1062951D01*
X330198D01*
X330080Y-1063010D01*
X329961Y-1063084D01*
X329872Y-1063158D01*
X329798Y-1063217D01*
X329739Y-1063276D01*
X329695Y-1063336D01*
X329680Y-1063365D01*
X329665Y-1063380D01*
X329606Y-1063499D01*
X329532Y-1063661D01*
X329473Y-1063824D01*
X329428Y-1064002D01*
X329384Y-1064165D01*
X329354Y-1064298D01*
X329324Y-1064387D01*
Y-1064402D01*
Y-1064417D01*
X329043D01*
X329147Y-1062314D01*
X336521D01*
Y-1062580D01*
D02*
G37*
G36*
X298968D02*
X298790Y-1062595D01*
X298657Y-1062610D01*
X298583Y-1062640D01*
X298553Y-1062654D01*
X298375Y-1062743D01*
X298227Y-1062832D01*
X298109Y-1062906D01*
X298020Y-1062965D01*
X297946Y-1063010D01*
X297901Y-1063054D01*
X297887Y-1063069D01*
X297872Y-1063084D01*
X297798Y-1063173D01*
X297709Y-1063291D01*
X297605Y-1063425D01*
X297487Y-1063573D01*
X297398Y-1063721D01*
X297309Y-1063824D01*
X297250Y-1063913D01*
X297235Y-1063928D01*
Y-1063943D01*
X294614Y-1068000D01*
Y-1070221D01*
Y-1070503D01*
X294644Y-1070725D01*
X294659Y-1070903D01*
X294688Y-1071051D01*
X294718Y-1071140D01*
X294747Y-1071214D01*
X294762Y-1071243D01*
X294777Y-1071258D01*
X294881Y-1071376D01*
X295014Y-1071465D01*
X295162Y-1071525D01*
X295295Y-1071569D01*
X295429Y-1071599D01*
X295532Y-1071613D01*
X295976D01*
Y-1071880D01*
X291904D01*
Y-1071613D01*
X292230D01*
X292437Y-1071599D01*
X292600Y-1071569D01*
X292748Y-1071525D01*
X292867Y-1071465D01*
X292955Y-1071421D01*
X293030Y-1071376D01*
X293059Y-1071347D01*
X293074Y-1071332D01*
X293104Y-1071288D01*
X293133Y-1071214D01*
X293178Y-1071066D01*
X293222Y-1070888D01*
X293237Y-1070695D01*
X293252Y-1070518D01*
X293267Y-1070370D01*
Y-1070310D01*
Y-1070266D01*
Y-1070236D01*
Y-1070221D01*
Y-1067808D01*
X290971Y-1064194D01*
X290823Y-1063958D01*
X290675Y-1063750D01*
X290557Y-1063587D01*
X290453Y-1063454D01*
X290379Y-1063351D01*
X290305Y-1063276D01*
X290275Y-1063232D01*
X290260Y-1063217D01*
X290038Y-1063010D01*
X289831Y-1062862D01*
X289742Y-1062817D01*
X289683Y-1062773D01*
X289639Y-1062743D01*
X289624D01*
X289490Y-1062684D01*
X289387Y-1062654D01*
X289298Y-1062625D01*
X289209Y-1062595D01*
X289150D01*
X289105Y-1062580D01*
X288898D01*
Y-1062314D01*
X292230D01*
Y-1062580D01*
X292097D01*
X291978Y-1062595D01*
X291889Y-1062610D01*
X291815Y-1062625D01*
X291741Y-1062640D01*
X291697Y-1062654D01*
X291682Y-1062669D01*
X291667D01*
X291534Y-1062743D01*
X291445Y-1062832D01*
X291386Y-1062891D01*
X291371Y-1062906D01*
Y-1062921D01*
X291312Y-1063039D01*
X291282Y-1063158D01*
X291267Y-1063247D01*
Y-1063262D01*
Y-1063276D01*
X291282Y-1063410D01*
X291327Y-1063558D01*
X291401Y-1063721D01*
X291475Y-1063884D01*
X291564Y-1064032D01*
X291623Y-1064150D01*
X291682Y-1064224D01*
X291697Y-1064239D01*
Y-1064254D01*
X293577Y-1067201D01*
X295562Y-1064120D01*
X295710Y-1063884D01*
X295814Y-1063691D01*
X295888Y-1063543D01*
X295932Y-1063410D01*
X295962Y-1063321D01*
X295991Y-1063247D01*
Y-1063217D01*
Y-1063202D01*
X295976Y-1063099D01*
X295947Y-1062995D01*
X295902Y-1062921D01*
X295843Y-1062862D01*
X295754Y-1062773D01*
X295725Y-1062743D01*
X295710D01*
X295606Y-1062684D01*
X295502Y-1062654D01*
X295295Y-1062595D01*
X295221D01*
X295162Y-1062580D01*
X294881D01*
Y-1062314D01*
X298968D01*
Y-1062580D01*
D02*
G37*
G36*
X347139D02*
X346976Y-1062595D01*
X346843Y-1062625D01*
X346724Y-1062654D01*
X346620Y-1062684D01*
X346546Y-1062714D01*
X346487Y-1062743D01*
X346457Y-1062758D01*
X346443D01*
X346265Y-1062862D01*
X346117Y-1062965D01*
X346028Y-1063054D01*
X346013Y-1063069D01*
X345998Y-1063084D01*
X345954Y-1063158D01*
X345895Y-1063262D01*
X345836Y-1063395D01*
X345762Y-1063528D01*
X345702Y-1063661D01*
X345658Y-1063765D01*
X345628Y-1063839D01*
X345614Y-1063854D01*
Y-1063869D01*
X342030Y-1072102D01*
X341763D01*
X338432Y-1063972D01*
X338328Y-1063721D01*
X338209Y-1063499D01*
X338106Y-1063321D01*
X338002Y-1063173D01*
X337913Y-1063054D01*
X337839Y-1062965D01*
X337795Y-1062921D01*
X337780Y-1062906D01*
X337676Y-1062832D01*
X337543Y-1062758D01*
X337291Y-1062654D01*
X337188Y-1062625D01*
X337099Y-1062595D01*
X337025Y-1062580D01*
X337010D01*
Y-1062314D01*
X339942D01*
Y-1062580D01*
X339883Y-1062595D01*
X339853D01*
X339823Y-1062610D01*
X339646Y-1062640D01*
X339512Y-1062684D01*
X339394Y-1062729D01*
X339290Y-1062773D01*
X339216Y-1062817D01*
X339172Y-1062847D01*
X339142Y-1062862D01*
X339128Y-1062877D01*
X339053Y-1062951D01*
X339009Y-1063010D01*
X338950Y-1063128D01*
X338920Y-1063232D01*
Y-1063247D01*
Y-1063262D01*
X338935Y-1063410D01*
X338965Y-1063573D01*
X339024Y-1063765D01*
X339083Y-1063958D01*
X339142Y-1064120D01*
X339202Y-1064269D01*
X339216Y-1064328D01*
X339231Y-1064372D01*
X339246Y-1064387D01*
Y-1064402D01*
X341512Y-1069940D01*
X343940Y-1064328D01*
X344044Y-1064061D01*
X344133Y-1063839D01*
X344192Y-1063661D01*
X344221Y-1063499D01*
X344251Y-1063380D01*
X344266Y-1063291D01*
Y-1063247D01*
Y-1063232D01*
X344251Y-1063143D01*
X344236Y-1063054D01*
X344162Y-1062936D01*
X344103Y-1062847D01*
X344088Y-1062817D01*
X344073D01*
X343985Y-1062758D01*
X343851Y-1062714D01*
X343718Y-1062669D01*
X343570Y-1062640D01*
X343437Y-1062610D01*
X343318Y-1062595D01*
X343244Y-1062580D01*
X343215D01*
Y-1062314D01*
X347139D01*
Y-1062580D01*
D02*
G37*
G36*
X318070D02*
X317715D01*
X317522Y-1062595D01*
X317359Y-1062625D01*
X317226Y-1062684D01*
X317108Y-1062729D01*
X317034Y-1062788D01*
X316960Y-1062847D01*
X316930Y-1062877D01*
X316915Y-1062891D01*
X316886Y-1062936D01*
X316841Y-1062995D01*
X316797Y-1063158D01*
X316752Y-1063336D01*
X316737Y-1063528D01*
X316723Y-1063706D01*
X316708Y-1063854D01*
Y-1063913D01*
Y-1063958D01*
Y-1063987D01*
Y-1064002D01*
Y-1070192D01*
Y-1070473D01*
X316737Y-1070695D01*
X316752Y-1070873D01*
X316782Y-1071021D01*
X316812Y-1071110D01*
X316826Y-1071184D01*
X316856Y-1071214D01*
Y-1071228D01*
X316974Y-1071362D01*
X317108Y-1071451D01*
X317241Y-1071525D01*
X317389Y-1071569D01*
X317507Y-1071599D01*
X317611Y-1071613D01*
X318070D01*
Y-1071880D01*
X310681D01*
X309867Y-1069289D01*
X310103Y-1069229D01*
X310237Y-1069540D01*
X310370Y-1069822D01*
X310503Y-1070044D01*
X310607Y-1070221D01*
X310711Y-1070370D01*
X310785Y-1070473D01*
X310829Y-1070533D01*
X310844Y-1070547D01*
X310992Y-1070695D01*
X311125Y-1070814D01*
X311259Y-1070918D01*
X311392Y-1070992D01*
X311495Y-1071051D01*
X311584Y-1071095D01*
X311644Y-1071110D01*
X311658Y-1071125D01*
X311747Y-1071154D01*
X311851Y-1071169D01*
X312088Y-1071214D01*
X312339Y-1071243D01*
X312591Y-1071258D01*
X312828D01*
X312932Y-1071273D01*
X314339D01*
X314457Y-1071258D01*
X314650D01*
X314783Y-1071243D01*
X314886Y-1071228D01*
X314946D01*
X314975Y-1071214D01*
X314990D01*
X315109Y-1071154D01*
X315183Y-1071080D01*
X315242Y-1071021D01*
X315257Y-1070992D01*
X315286Y-1070888D01*
X315316Y-1070769D01*
X315345Y-1070503D01*
X315360Y-1070370D01*
Y-1070266D01*
Y-1070207D01*
Y-1070177D01*
Y-1064150D01*
Y-1063869D01*
X315345Y-1063632D01*
X315331Y-1063454D01*
X315301Y-1063306D01*
X315286Y-1063217D01*
X315271Y-1063143D01*
X315257Y-1063113D01*
Y-1063099D01*
X315197Y-1063025D01*
X315138Y-1062951D01*
X315005Y-1062832D01*
X314946Y-1062788D01*
X314886Y-1062758D01*
X314857Y-1062729D01*
X314842D01*
X314709Y-1062684D01*
X314546Y-1062640D01*
X314191Y-1062595D01*
X314028Y-1062580D01*
X313761D01*
Y-1062314D01*
X318070D01*
Y-1062580D01*
D02*
G37*
G36*
X389890D02*
X389549D01*
X389357Y-1062595D01*
X389194Y-1062625D01*
X389046Y-1062684D01*
X388942Y-1062729D01*
X388853Y-1062788D01*
X388779Y-1062847D01*
X388750Y-1062877D01*
X388735Y-1062891D01*
X388705Y-1062936D01*
X388661Y-1063010D01*
X388616Y-1063158D01*
X388572Y-1063351D01*
X388557Y-1063528D01*
X388543Y-1063706D01*
X388528Y-1063854D01*
Y-1063913D01*
Y-1063958D01*
Y-1063987D01*
Y-1064002D01*
Y-1070192D01*
Y-1070473D01*
X388557Y-1070695D01*
X388572Y-1070873D01*
X388602Y-1071021D01*
X388631Y-1071125D01*
X388661Y-1071184D01*
X388676Y-1071228D01*
X388690Y-1071243D01*
X388809Y-1071362D01*
X388942Y-1071451D01*
X389076Y-1071525D01*
X389224Y-1071569D01*
X389342Y-1071599D01*
X389446Y-1071613D01*
X389890D01*
Y-1071880D01*
X385092D01*
X384826Y-1071865D01*
X384574Y-1071850D01*
X384337Y-1071836D01*
X384115Y-1071806D01*
X383922Y-1071791D01*
X383745Y-1071761D01*
X383582Y-1071732D01*
X383448Y-1071702D01*
X383315Y-1071673D01*
X383226Y-1071658D01*
X383138Y-1071628D01*
X383078Y-1071613D01*
X383019Y-1071599D01*
X383004Y-1071584D01*
X382989D01*
X382708Y-1071451D01*
X382471Y-1071317D01*
X382249Y-1071154D01*
X382086Y-1070992D01*
X381938Y-1070858D01*
X381834Y-1070740D01*
X381775Y-1070666D01*
X381760Y-1070636D01*
X381612Y-1070384D01*
X381494Y-1070147D01*
X381420Y-1069911D01*
X381361Y-1069703D01*
X381331Y-1069526D01*
X381301Y-1069377D01*
Y-1069289D01*
Y-1069274D01*
Y-1069259D01*
Y-1069081D01*
X381331Y-1068918D01*
X381405Y-1068622D01*
X381523Y-1068341D01*
X381642Y-1068119D01*
X381775Y-1067926D01*
X381894Y-1067793D01*
X381968Y-1067704D01*
X381982Y-1067674D01*
X381997D01*
X382205Y-1067512D01*
X382441Y-1067378D01*
X382678Y-1067260D01*
X382915Y-1067156D01*
X383138Y-1067082D01*
X383315Y-1067038D01*
X383389Y-1067023D01*
X383434Y-1067008D01*
X383463Y-1066993D01*
X383478D01*
X383182Y-1066875D01*
X382915Y-1066756D01*
X382693Y-1066608D01*
X382515Y-1066475D01*
X382367Y-1066357D01*
X382279Y-1066253D01*
X382205Y-1066194D01*
X382190Y-1066164D01*
X382042Y-1065942D01*
X381938Y-1065720D01*
X381849Y-1065498D01*
X381805Y-1065305D01*
X381775Y-1065127D01*
X381745Y-1064994D01*
Y-1064905D01*
Y-1064891D01*
Y-1064876D01*
X381775Y-1064565D01*
X381834Y-1064283D01*
X381923Y-1064032D01*
X382027Y-1063824D01*
X382131Y-1063647D01*
X382219Y-1063513D01*
X382279Y-1063425D01*
X382308Y-1063395D01*
X382545Y-1063173D01*
X382797Y-1062980D01*
X383063Y-1062817D01*
X383330Y-1062699D01*
X383552Y-1062610D01*
X383656Y-1062566D01*
X383745Y-1062536D01*
X383819Y-1062521D01*
X383878Y-1062506D01*
X383908Y-1062492D01*
X383922D01*
X384204Y-1062432D01*
X384500Y-1062388D01*
X384811Y-1062358D01*
X385107Y-1062329D01*
X385373D01*
X385477Y-1062314D01*
X389890D01*
Y-1062580D01*
D02*
G37*
G36*
X327725D02*
X327370D01*
X327177Y-1062595D01*
X327014Y-1062625D01*
X326881Y-1062684D01*
X326763Y-1062729D01*
X326689Y-1062788D01*
X326615Y-1062847D01*
X326585Y-1062877D01*
X326570Y-1062891D01*
X326540Y-1062936D01*
X326496Y-1062995D01*
X326452Y-1063158D01*
X326407Y-1063336D01*
X326392Y-1063528D01*
X326378Y-1063706D01*
X326363Y-1063854D01*
Y-1063913D01*
Y-1063958D01*
Y-1063987D01*
Y-1064002D01*
Y-1070192D01*
Y-1070473D01*
X326392Y-1070695D01*
X326407Y-1070873D01*
X326437Y-1071021D01*
X326466Y-1071110D01*
X326481Y-1071184D01*
X326511Y-1071214D01*
Y-1071228D01*
X326629Y-1071362D01*
X326763Y-1071451D01*
X326896Y-1071525D01*
X327044Y-1071569D01*
X327163Y-1071599D01*
X327266Y-1071613D01*
X327725D01*
Y-1071880D01*
X323653D01*
Y-1071613D01*
X324023D01*
X324216Y-1071599D01*
X324379Y-1071569D01*
X324512Y-1071525D01*
X324616Y-1071465D01*
X324704Y-1071406D01*
X324778Y-1071362D01*
X324808Y-1071332D01*
X324823Y-1071317D01*
X324852Y-1071273D01*
X324882Y-1071199D01*
X324926Y-1071051D01*
X324971Y-1070858D01*
X324986Y-1070666D01*
X325000Y-1070488D01*
X325015Y-1070340D01*
Y-1070281D01*
Y-1070236D01*
Y-1070207D01*
Y-1070192D01*
Y-1067408D01*
X324941Y-1067423D01*
X324438D01*
X324245Y-1067408D01*
X324038D01*
X320795Y-1071880D01*
X318233D01*
Y-1071613D01*
X318514Y-1071569D01*
X318766Y-1071525D01*
X318974Y-1071465D01*
X319166Y-1071391D01*
X319314Y-1071332D01*
X319418Y-1071273D01*
X319477Y-1071243D01*
X319507Y-1071228D01*
X319596Y-1071169D01*
X319699Y-1071080D01*
X319892Y-1070903D01*
X320084Y-1070695D01*
X320262Y-1070488D01*
X320425Y-1070281D01*
X320543Y-1070118D01*
X320602Y-1070059D01*
X320632Y-1070014D01*
X320647Y-1069985D01*
X320662Y-1069970D01*
X322646Y-1067230D01*
X322231Y-1067112D01*
X321861Y-1066979D01*
X321550Y-1066816D01*
X321313Y-1066667D01*
X321121Y-1066534D01*
X320973Y-1066416D01*
X320899Y-1066342D01*
X320869Y-1066312D01*
X320676Y-1066060D01*
X320528Y-1065794D01*
X320425Y-1065542D01*
X320365Y-1065305D01*
X320321Y-1065098D01*
X320306Y-1064935D01*
X320291Y-1064876D01*
Y-1064831D01*
Y-1064802D01*
Y-1064787D01*
X320306Y-1064491D01*
X320365Y-1064209D01*
X320454Y-1063972D01*
X320543Y-1063765D01*
X320632Y-1063602D01*
X320721Y-1063469D01*
X320780Y-1063395D01*
X320795Y-1063365D01*
X320987Y-1063158D01*
X321195Y-1062980D01*
X321402Y-1062847D01*
X321595Y-1062729D01*
X321772Y-1062654D01*
X321906Y-1062595D01*
X321994Y-1062566D01*
X322009Y-1062551D01*
X322024D01*
X322172Y-1062506D01*
X322335Y-1062477D01*
X322676Y-1062418D01*
X323046Y-1062373D01*
X323416Y-1062344D01*
X323579Y-1062329D01*
X323742D01*
X323890Y-1062314D01*
X327725D01*
Y-1062580D01*
D02*
G37*
G36*
X307867Y-1069970D02*
X307941Y-1070162D01*
X308030Y-1070325D01*
X308104Y-1070488D01*
X308178Y-1070621D01*
X308312Y-1070858D01*
X308430Y-1071051D01*
X308534Y-1071184D01*
X308608Y-1071273D01*
X308652Y-1071332D01*
X308667Y-1071347D01*
X308741Y-1071406D01*
X308860Y-1071451D01*
X308978Y-1071495D01*
X309111Y-1071539D01*
X309230Y-1071569D01*
X309333Y-1071599D01*
X309407Y-1071613D01*
X309437D01*
Y-1071880D01*
X306416D01*
Y-1071613D01*
X306653Y-1071599D01*
X306846Y-1071569D01*
X307008Y-1071525D01*
X307127Y-1071495D01*
X307216Y-1071465D01*
X307275Y-1071436D01*
X307305Y-1071406D01*
X307320D01*
X307393Y-1071347D01*
X307438Y-1071273D01*
X307497Y-1071154D01*
X307527Y-1071051D01*
Y-1071036D01*
Y-1071021D01*
X307512Y-1070903D01*
X307482Y-1070784D01*
X307393Y-1070503D01*
X307349Y-1070384D01*
X307320Y-1070281D01*
X307290Y-1070221D01*
X307275Y-1070192D01*
X306638Y-1068681D01*
X302936D01*
X302374Y-1070059D01*
X302285Y-1070295D01*
X302211Y-1070488D01*
X302166Y-1070666D01*
X302122Y-1070799D01*
X302107Y-1070903D01*
X302092Y-1070977D01*
Y-1071021D01*
Y-1071036D01*
X302107Y-1071125D01*
X302122Y-1071199D01*
X302196Y-1071317D01*
X302270Y-1071406D01*
X302285Y-1071421D01*
X302299Y-1071436D01*
X302388Y-1071495D01*
X302492Y-1071525D01*
X302744Y-1071584D01*
X302862Y-1071599D01*
X302966Y-1071613D01*
X303055D01*
Y-1071880D01*
X299293D01*
Y-1071613D01*
X299501Y-1071584D01*
X299678Y-1071554D01*
X299827Y-1071495D01*
X299960Y-1071451D01*
X300063Y-1071391D01*
X300138Y-1071347D01*
X300182Y-1071317D01*
X300197Y-1071302D01*
X300256Y-1071243D01*
X300315Y-1071169D01*
X300448Y-1070992D01*
X300567Y-1070784D01*
X300685Y-1070577D01*
X300774Y-1070384D01*
X300848Y-1070207D01*
X300878Y-1070147D01*
X300907Y-1070103D01*
X300922Y-1070073D01*
Y-1070059D01*
X304254Y-1062092D01*
X304491D01*
X307867Y-1069970D01*
D02*
G37*
G36*
X375600Y-1062107D02*
X375941Y-1062151D01*
X376252Y-1062210D01*
X376563Y-1062284D01*
X376844Y-1062388D01*
X377110Y-1062492D01*
X377347Y-1062610D01*
X377584Y-1062714D01*
X377777Y-1062832D01*
X377955Y-1062951D01*
X378117Y-1063054D01*
X378251Y-1063158D01*
X378354Y-1063232D01*
X378428Y-1063291D01*
X378473Y-1063336D01*
X378488Y-1063351D01*
X378754Y-1063632D01*
X378991Y-1063928D01*
X379198Y-1064224D01*
X379376Y-1064535D01*
X379524Y-1064846D01*
X379658Y-1065157D01*
X379746Y-1065453D01*
X379835Y-1065749D01*
X379894Y-1066016D01*
X379939Y-1066268D01*
X379983Y-1066490D01*
X379998Y-1066682D01*
X380013Y-1066845D01*
X380028Y-1066964D01*
Y-1067038D01*
Y-1067067D01*
X380013Y-1067482D01*
X379968Y-1067867D01*
X379909Y-1068237D01*
X379820Y-1068578D01*
X379717Y-1068904D01*
X379598Y-1069200D01*
X379480Y-1069481D01*
X379361Y-1069733D01*
X379243Y-1069955D01*
X379110Y-1070147D01*
X379006Y-1070310D01*
X378902Y-1070458D01*
X378814Y-1070562D01*
X378754Y-1070651D01*
X378710Y-1070695D01*
X378695Y-1070710D01*
X378428Y-1070962D01*
X378162Y-1071169D01*
X377895Y-1071362D01*
X377614Y-1071510D01*
X377333Y-1071643D01*
X377051Y-1071761D01*
X376785Y-1071850D01*
X376533Y-1071924D01*
X376296Y-1071984D01*
X376074Y-1072028D01*
X375881Y-1072058D01*
X375704Y-1072073D01*
X375570Y-1072087D01*
X375467Y-1072102D01*
X375378D01*
X375023Y-1072087D01*
X374667Y-1072043D01*
X374341Y-1071969D01*
X374030Y-1071880D01*
X373734Y-1071761D01*
X373468Y-1071643D01*
X373216Y-1071525D01*
X372979Y-1071376D01*
X372772Y-1071243D01*
X372579Y-1071125D01*
X372431Y-1070992D01*
X372298Y-1070888D01*
X372179Y-1070799D01*
X372105Y-1070725D01*
X372061Y-1070680D01*
X372046Y-1070666D01*
X371809Y-1070384D01*
X371587Y-1070103D01*
X371409Y-1069792D01*
X371246Y-1069496D01*
X371113Y-1069185D01*
X371009Y-1068889D01*
X370921Y-1068593D01*
X370847Y-1068326D01*
X370787Y-1068059D01*
X370743Y-1067823D01*
X370713Y-1067600D01*
X370684Y-1067408D01*
Y-1067260D01*
X370669Y-1067141D01*
Y-1067082D01*
Y-1067053D01*
X370684Y-1066667D01*
X370728Y-1066297D01*
X370802Y-1065942D01*
X370876Y-1065601D01*
X370995Y-1065290D01*
X371098Y-1065009D01*
X371232Y-1064728D01*
X371350Y-1064491D01*
X371483Y-1064269D01*
X371617Y-1064076D01*
X371720Y-1063913D01*
X371824Y-1063765D01*
X371913Y-1063661D01*
X371987Y-1063573D01*
X372031Y-1063528D01*
X372046Y-1063513D01*
X372313Y-1063262D01*
X372579Y-1063039D01*
X372846Y-1062847D01*
X373127Y-1062684D01*
X373394Y-1062551D01*
X373660Y-1062432D01*
X373912Y-1062344D01*
X374164Y-1062270D01*
X374386Y-1062210D01*
X374608Y-1062166D01*
X374786Y-1062136D01*
X374949Y-1062107D01*
X375082D01*
X375171Y-1062092D01*
X375260D01*
X375600Y-1062107D01*
D02*
G37*
G36*
X352736D02*
X353077Y-1062151D01*
X353388Y-1062210D01*
X353699Y-1062284D01*
X353980Y-1062388D01*
X354247Y-1062492D01*
X354484Y-1062610D01*
X354720Y-1062714D01*
X354913Y-1062832D01*
X355091Y-1062951D01*
X355254Y-1063054D01*
X355387Y-1063158D01*
X355491Y-1063232D01*
X355565Y-1063291D01*
X355609Y-1063336D01*
X355624Y-1063351D01*
X355890Y-1063632D01*
X356127Y-1063928D01*
X356335Y-1064224D01*
X356512Y-1064535D01*
X356660Y-1064846D01*
X356794Y-1065157D01*
X356883Y-1065453D01*
X356971Y-1065749D01*
X357031Y-1066016D01*
X357075Y-1066268D01*
X357119Y-1066490D01*
X357134Y-1066682D01*
X357149Y-1066845D01*
X357164Y-1066964D01*
Y-1067038D01*
Y-1067067D01*
X357149Y-1067482D01*
X357105Y-1067867D01*
X357045Y-1068237D01*
X356957Y-1068578D01*
X356853Y-1068904D01*
X356734Y-1069200D01*
X356616Y-1069481D01*
X356497Y-1069733D01*
X356379Y-1069955D01*
X356246Y-1070147D01*
X356142Y-1070310D01*
X356039Y-1070458D01*
X355950Y-1070562D01*
X355890Y-1070651D01*
X355846Y-1070695D01*
X355831Y-1070710D01*
X355565Y-1070962D01*
X355298Y-1071169D01*
X355032Y-1071362D01*
X354750Y-1071510D01*
X354469Y-1071643D01*
X354187Y-1071761D01*
X353921Y-1071850D01*
X353669Y-1071924D01*
X353432Y-1071984D01*
X353210Y-1072028D01*
X353018Y-1072058D01*
X352840Y-1072073D01*
X352707Y-1072087D01*
X352603Y-1072102D01*
X352514D01*
X352159Y-1072087D01*
X351803Y-1072043D01*
X351478Y-1071969D01*
X351167Y-1071880D01*
X350870Y-1071761D01*
X350604Y-1071643D01*
X350352Y-1071525D01*
X350115Y-1071376D01*
X349908Y-1071243D01*
X349715Y-1071125D01*
X349567Y-1070992D01*
X349434Y-1070888D01*
X349315Y-1070799D01*
X349241Y-1070725D01*
X349197Y-1070680D01*
X349182Y-1070666D01*
X348945Y-1070384D01*
X348723Y-1070103D01*
X348545Y-1069792D01*
X348383Y-1069496D01*
X348249Y-1069185D01*
X348146Y-1068889D01*
X348057Y-1068593D01*
X347983Y-1068326D01*
X347924Y-1068059D01*
X347879Y-1067823D01*
X347850Y-1067600D01*
X347820Y-1067408D01*
Y-1067260D01*
X347805Y-1067141D01*
Y-1067082D01*
Y-1067053D01*
X347820Y-1066667D01*
X347864Y-1066297D01*
X347938Y-1065942D01*
X348012Y-1065601D01*
X348131Y-1065290D01*
X348234Y-1065009D01*
X348368Y-1064728D01*
X348486Y-1064491D01*
X348619Y-1064269D01*
X348753Y-1064076D01*
X348857Y-1063913D01*
X348960Y-1063765D01*
X349049Y-1063661D01*
X349123Y-1063573D01*
X349167Y-1063528D01*
X349182Y-1063513D01*
X349449Y-1063262D01*
X349715Y-1063039D01*
X349982Y-1062847D01*
X350263Y-1062684D01*
X350530Y-1062551D01*
X350796Y-1062432D01*
X351048Y-1062344D01*
X351300Y-1062270D01*
X351522Y-1062210D01*
X351744Y-1062166D01*
X351922Y-1062136D01*
X352085Y-1062107D01*
X352218D01*
X352307Y-1062092D01*
X352396D01*
X352736Y-1062107D01*
D02*
G37*
%LPC*%
G36*
X386040Y-1062788D02*
X385685D01*
X385462Y-1062817D01*
X385240Y-1062847D01*
X385048Y-1062877D01*
X384870Y-1062921D01*
X384707Y-1062980D01*
X384559Y-1063025D01*
X384426Y-1063084D01*
X384307Y-1063143D01*
X384204Y-1063188D01*
X384115Y-1063247D01*
X384056Y-1063291D01*
X383996Y-1063321D01*
X383952Y-1063351D01*
X383937Y-1063380D01*
X383922D01*
X383804Y-1063499D01*
X383685Y-1063617D01*
X383522Y-1063854D01*
X383389Y-1064091D01*
X383315Y-1064313D01*
X383256Y-1064520D01*
X383241Y-1064668D01*
X383226Y-1064728D01*
Y-1064772D01*
Y-1064802D01*
Y-1064817D01*
X383241Y-1065009D01*
X383271Y-1065201D01*
X383315Y-1065364D01*
X383360Y-1065512D01*
X383419Y-1065631D01*
X383463Y-1065735D01*
X383493Y-1065794D01*
X383508Y-1065809D01*
X383611Y-1065972D01*
X383745Y-1066105D01*
X383878Y-1066223D01*
X384011Y-1066327D01*
X384130Y-1066401D01*
X384218Y-1066445D01*
X384278Y-1066475D01*
X384307Y-1066490D01*
X384515Y-1066564D01*
X384766Y-1066608D01*
X385018Y-1066653D01*
X385270Y-1066667D01*
X385492Y-1066682D01*
X385596Y-1066697D01*
X386262D01*
X386381Y-1066682D01*
X386603D01*
X386825Y-1066653D01*
X386928D01*
X387017Y-1066638D01*
X387076Y-1066623D01*
X387136Y-1066608D01*
X387180D01*
Y-1062951D01*
X386958Y-1062891D01*
X386751Y-1062862D01*
X386529Y-1062832D01*
X386336Y-1062803D01*
X386173D01*
X386040Y-1062788D01*
D02*
G37*
G36*
X386440Y-1067201D02*
X385936D01*
X385581Y-1067215D01*
X385240Y-1067245D01*
X384959Y-1067304D01*
X384707Y-1067349D01*
X384515Y-1067408D01*
X384366Y-1067467D01*
X384322Y-1067482D01*
X384278Y-1067497D01*
X384263Y-1067512D01*
X384248D01*
X384011Y-1067630D01*
X383804Y-1067763D01*
X383626Y-1067897D01*
X383478Y-1068030D01*
X383374Y-1068148D01*
X383300Y-1068237D01*
X383256Y-1068296D01*
X383241Y-1068326D01*
X383138Y-1068519D01*
X383049Y-1068711D01*
X382989Y-1068889D01*
X382960Y-1069052D01*
X382930Y-1069185D01*
X382915Y-1069289D01*
Y-1069363D01*
Y-1069392D01*
Y-1069540D01*
X382945Y-1069688D01*
X383019Y-1069970D01*
X383138Y-1070207D01*
X383256Y-1070414D01*
X383374Y-1070592D01*
X383493Y-1070710D01*
X383567Y-1070784D01*
X383582Y-1070814D01*
X383596D01*
X383878Y-1071006D01*
X384189Y-1071140D01*
X384515Y-1071243D01*
X384840Y-1071302D01*
X385122Y-1071347D01*
X385240Y-1071362D01*
X385359D01*
X385448Y-1071376D01*
X385566D01*
X385862Y-1071362D01*
X386158Y-1071347D01*
X386425Y-1071317D01*
X386677Y-1071288D01*
X386884Y-1071258D01*
X387047Y-1071228D01*
X387106Y-1071214D01*
X387136Y-1071199D01*
X387180D01*
Y-1067275D01*
X387032Y-1067245D01*
X386869Y-1067230D01*
X386795Y-1067215D01*
X386691D01*
X386440Y-1067201D01*
D02*
G37*
G36*
X324097Y-1062847D02*
X323934D01*
X323609Y-1062877D01*
X323312Y-1062936D01*
X323061Y-1063025D01*
X322853Y-1063128D01*
X322690Y-1063232D01*
X322572Y-1063321D01*
X322498Y-1063380D01*
X322468Y-1063410D01*
X322276Y-1063632D01*
X322142Y-1063869D01*
X322039Y-1064120D01*
X321980Y-1064357D01*
X321935Y-1064565D01*
X321920Y-1064728D01*
X321906Y-1064787D01*
Y-1064831D01*
Y-1064861D01*
Y-1064876D01*
Y-1065039D01*
X321935Y-1065201D01*
X322009Y-1065498D01*
X322128Y-1065749D01*
X322246Y-1065972D01*
X322379Y-1066149D01*
X322498Y-1066283D01*
X322572Y-1066357D01*
X322587Y-1066386D01*
X322602D01*
X322735Y-1066490D01*
X322883Y-1066579D01*
X323209Y-1066727D01*
X323549Y-1066830D01*
X323875Y-1066904D01*
X324171Y-1066949D01*
X324290Y-1066964D01*
X324408D01*
X324497Y-1066979D01*
X324793D01*
X324867Y-1066964D01*
X325015D01*
Y-1062980D01*
X324778Y-1062936D01*
X324556Y-1062906D01*
X324379Y-1062877D01*
X324216Y-1062862D01*
X324097Y-1062847D01*
D02*
G37*
G36*
X304758Y-1064313D02*
X303158Y-1068163D01*
X306416D01*
X304758Y-1064313D01*
D02*
G37*
G36*
X375511Y-1062595D02*
X375393D01*
X375141Y-1062610D01*
X374904Y-1062640D01*
X374697Y-1062684D01*
X374490Y-1062743D01*
X374297Y-1062817D01*
X374119Y-1062906D01*
X373956Y-1062980D01*
X373808Y-1063069D01*
X373690Y-1063173D01*
X373571Y-1063247D01*
X373483Y-1063336D01*
X373409Y-1063410D01*
X373334Y-1063469D01*
X373290Y-1063513D01*
X373275Y-1063543D01*
X373260Y-1063558D01*
X373083Y-1063795D01*
X372935Y-1064061D01*
X372801Y-1064343D01*
X372698Y-1064639D01*
X372594Y-1064950D01*
X372520Y-1065246D01*
X372402Y-1065853D01*
X372357Y-1066134D01*
X372327Y-1066386D01*
X372313Y-1066623D01*
X372298Y-1066830D01*
X372283Y-1066993D01*
Y-1067127D01*
Y-1067201D01*
Y-1067230D01*
X372298Y-1067645D01*
X372327Y-1068030D01*
X372372Y-1068371D01*
X372416Y-1068711D01*
X372490Y-1069007D01*
X372564Y-1069274D01*
X372638Y-1069526D01*
X372727Y-1069733D01*
X372816Y-1069925D01*
X372890Y-1070088D01*
X372964Y-1070236D01*
X373038Y-1070340D01*
X373083Y-1070429D01*
X373127Y-1070503D01*
X373157Y-1070533D01*
X373172Y-1070547D01*
X373334Y-1070725D01*
X373512Y-1070888D01*
X373705Y-1071036D01*
X373882Y-1071154D01*
X374075Y-1071258D01*
X374253Y-1071347D01*
X374430Y-1071406D01*
X374608Y-1071465D01*
X374771Y-1071510D01*
X374919Y-1071539D01*
X375052Y-1071569D01*
X375171Y-1071584D01*
X375260Y-1071599D01*
X375393D01*
X375630Y-1071584D01*
X375837Y-1071554D01*
X376044Y-1071510D01*
X376237Y-1071451D01*
X376592Y-1071302D01*
X376874Y-1071125D01*
X377007Y-1071036D01*
X377110Y-1070947D01*
X377199Y-1070873D01*
X377288Y-1070799D01*
X377347Y-1070740D01*
X377392Y-1070695D01*
X377407Y-1070666D01*
X377421Y-1070651D01*
X377599Y-1070399D01*
X377747Y-1070133D01*
X377881Y-1069851D01*
X377999Y-1069555D01*
X378088Y-1069244D01*
X378177Y-1068948D01*
X378236Y-1068652D01*
X378295Y-1068371D01*
X378325Y-1068089D01*
X378354Y-1067837D01*
X378384Y-1067615D01*
X378399Y-1067423D01*
X378414Y-1067260D01*
Y-1067141D01*
Y-1067067D01*
Y-1067038D01*
X378399Y-1066623D01*
X378369Y-1066223D01*
X378325Y-1065868D01*
X378266Y-1065527D01*
X378191Y-1065216D01*
X378103Y-1064920D01*
X378029Y-1064668D01*
X377925Y-1064432D01*
X377836Y-1064224D01*
X377762Y-1064046D01*
X377673Y-1063898D01*
X377599Y-1063780D01*
X377540Y-1063676D01*
X377495Y-1063617D01*
X377466Y-1063573D01*
X377451Y-1063558D01*
X377303Y-1063395D01*
X377140Y-1063247D01*
X376977Y-1063113D01*
X376800Y-1062995D01*
X376637Y-1062906D01*
X376459Y-1062832D01*
X376133Y-1062714D01*
X375837Y-1062640D01*
X375719Y-1062625D01*
X375600Y-1062610D01*
X375511Y-1062595D01*
D02*
G37*
G36*
X352647D02*
X352529D01*
X352277Y-1062610D01*
X352040Y-1062640D01*
X351833Y-1062684D01*
X351626Y-1062743D01*
X351433Y-1062817D01*
X351255Y-1062906D01*
X351092Y-1062980D01*
X350944Y-1063069D01*
X350826Y-1063173D01*
X350708Y-1063247D01*
X350619Y-1063336D01*
X350545Y-1063410D01*
X350471Y-1063469D01*
X350426Y-1063513D01*
X350411Y-1063543D01*
X350396Y-1063558D01*
X350219Y-1063795D01*
X350071Y-1064061D01*
X349938Y-1064343D01*
X349834Y-1064639D01*
X349730Y-1064950D01*
X349656Y-1065246D01*
X349538Y-1065853D01*
X349493Y-1066134D01*
X349464Y-1066386D01*
X349449Y-1066623D01*
X349434Y-1066830D01*
X349419Y-1066993D01*
Y-1067127D01*
Y-1067201D01*
Y-1067230D01*
X349434Y-1067645D01*
X349464Y-1068030D01*
X349508Y-1068371D01*
X349552Y-1068711D01*
X349627Y-1069007D01*
X349701Y-1069274D01*
X349775Y-1069526D01*
X349863Y-1069733D01*
X349952Y-1069925D01*
X350026Y-1070088D01*
X350100Y-1070236D01*
X350174Y-1070340D01*
X350219Y-1070429D01*
X350263Y-1070503D01*
X350293Y-1070533D01*
X350308Y-1070547D01*
X350471Y-1070725D01*
X350648Y-1070888D01*
X350841Y-1071036D01*
X351018Y-1071154D01*
X351211Y-1071258D01*
X351389Y-1071347D01*
X351566Y-1071406D01*
X351744Y-1071465D01*
X351907Y-1071510D01*
X352055Y-1071539D01*
X352188Y-1071569D01*
X352307Y-1071584D01*
X352396Y-1071599D01*
X352529D01*
X352766Y-1071584D01*
X352973Y-1071554D01*
X353181Y-1071510D01*
X353373Y-1071451D01*
X353728Y-1071302D01*
X354010Y-1071125D01*
X354143Y-1071036D01*
X354247Y-1070947D01*
X354336Y-1070873D01*
X354424Y-1070799D01*
X354484Y-1070740D01*
X354528Y-1070695D01*
X354543Y-1070666D01*
X354558Y-1070651D01*
X354735Y-1070399D01*
X354883Y-1070133D01*
X355017Y-1069851D01*
X355135Y-1069555D01*
X355224Y-1069244D01*
X355313Y-1068948D01*
X355372Y-1068652D01*
X355431Y-1068371D01*
X355461Y-1068089D01*
X355491Y-1067837D01*
X355520Y-1067615D01*
X355535Y-1067423D01*
X355550Y-1067260D01*
Y-1067141D01*
Y-1067067D01*
Y-1067038D01*
X355535Y-1066623D01*
X355505Y-1066223D01*
X355461Y-1065868D01*
X355402Y-1065527D01*
X355328Y-1065216D01*
X355239Y-1064920D01*
X355165Y-1064668D01*
X355061Y-1064432D01*
X354972Y-1064224D01*
X354898Y-1064046D01*
X354809Y-1063898D01*
X354735Y-1063780D01*
X354676Y-1063676D01*
X354632Y-1063617D01*
X354602Y-1063573D01*
X354587Y-1063558D01*
X354439Y-1063395D01*
X354276Y-1063247D01*
X354113Y-1063113D01*
X353936Y-1062995D01*
X353773Y-1062906D01*
X353595Y-1062832D01*
X353269Y-1062714D01*
X352973Y-1062640D01*
X352855Y-1062625D01*
X352736Y-1062610D01*
X352647Y-1062595D01*
D02*
G37*
%LPD*%
D10*
X170385Y-21665D02*
G03*
X170385Y-21665I-1250J0D01*
G01*
X-175142Y-437489D02*
G03*
X-175142Y-437489I-1200J0D01*
G01*
D11*
X-124030Y47130D02*
G03*
X-126030Y47130I-1000J0D01*
G01*
D02*
G03*
X-124030Y47130I1000J0D01*
G01*
X-77000Y16000D02*
G03*
X-77000Y16000I-4000J0D01*
G01*
X-79978Y16056D02*
G03*
X-79978Y16056I-1000J0D01*
G01*
X63014Y22000D02*
G03*
X63014Y22000I-1000J0D01*
G01*
X66007D02*
G03*
X66007Y22000I-4000J0D01*
G01*
X-194188Y50853D02*
G03*
X-196188Y50853I-1000J0D01*
G01*
D02*
G03*
X-194188Y50853I1000J0D01*
G01*
X-71813Y242091D02*
G03*
X-71813Y242091I-1016J0D01*
G01*
X-114049Y154810D02*
G03*
X-114049Y154810I-1000J0D01*
G01*
X55610Y-355060D02*
G03*
X55610Y-355060I-1000J0D01*
G01*
X-148560Y-318400D02*
G03*
X-148560Y-318400I-1000J0D01*
G01*
X106736Y197239D02*
G03*
X106736Y197239I-1000J0D01*
G01*
X13000Y80200D02*
G03*
X13000Y80200I-1000J0D01*
G01*
X124500Y-373974D02*
G03*
X124500Y-373974I-1000J0D01*
G01*
X66000Y-43180D02*
X81280Y-30480D01*
Y-26670D01*
X42000Y-49530D02*
X46843Y-45720D01*
Y-41119D01*
X-139700Y-146050D02*
Y-143510D01*
X-121750Y-86499D02*
Y-76499D01*
X-143750Y-72999D02*
X-123750D01*
X-143750D02*
Y-69999D01*
X-123750D01*
Y-72999D02*
Y-69999D01*
X-87000Y61703D02*
Y66000D01*
X-82829Y72172D01*
X84900Y-449670D02*
Y-443539D01*
Y-449670D02*
X88900Y-453670D01*
X-10000Y-232000D02*
X10000D01*
X-10000Y-208000D02*
X10000D01*
X-88000Y-11000D02*
X-55000D01*
X-69987Y15000D02*
X-67987Y16000D01*
X-77000D02*
X-67987D01*
X-69987Y17000D02*
X-67987Y16000D01*
X-81000Y3000D02*
X-80000Y5000D01*
X-82000D02*
X-81000Y3000D01*
Y3000D02*
Y11000D01*
X62014Y26056D02*
Y34056D01*
Y34056D02*
X63014Y32056D01*
X61014D02*
X62014Y34056D01*
X73021Y23000D02*
X75020Y22000D01*
X66007D02*
X75020D01*
X73021Y21000D02*
X75020Y22000D01*
X234981Y-183000D02*
X276550Y-111000D01*
X159660Y-161462D02*
X192568Y-180462D01*
X219660Y-57539D02*
X252568Y-76539D01*
X208424Y-76998D02*
X219660Y-57539D01*
X159660Y-161462D02*
X170709Y-142322D01*
X-219663Y-57538D02*
X-208613Y-76678D01*
X-170898Y-142002D02*
X-159663Y-161462D01*
X-192572Y-180462D02*
X-159663Y-161462D01*
X-252572Y-76538D02*
X-219663Y-57538D01*
X-276245Y-111535D02*
X-234408Y-184000D01*
X-99015Y245909D02*
X-80571Y250476D01*
X-108509Y284251D02*
X-99015Y245909D01*
X-45627Y259130D02*
X-27184Y263697D01*
X-36679Y302039D02*
X-27184Y263697D01*
X-37500Y15000D02*
X-37000Y15000D01*
X-37500Y15000D02*
X-37500Y12500D01*
X-37500Y-12500D02*
X-37500Y-15000D01*
X-12500Y-15000D02*
X-12500D01*
X-12500Y-12500D02*
X-12500Y-15000D01*
X-12500Y15000D02*
X-12500Y12500D01*
X-13500Y15000D02*
X-12500D01*
X207000Y140000D02*
X208000Y139000D01*
Y132000D02*
Y139000D01*
X-37000Y82000D02*
X-33265Y86000D01*
Y116000D01*
X-30480Y49000D02*
X-15000D01*
X-12000Y52000D01*
Y63682D01*
X124430Y49000D02*
Y52172D01*
X100000Y-31000D02*
Y-28000D01*
X92108Y-37139D02*
X100000Y-31000D01*
X124430Y52172D02*
X139500Y60000D01*
X-181564Y76561D02*
X-170647Y76581D01*
X-182631Y75272D02*
X-181564Y76561D01*
X-55000Y-11000D02*
X-48204Y-19093D01*
X-180000Y-190000D02*
X-156000Y-164000D01*
X-151000D01*
X-69000Y-163000D02*
X-66000D01*
X-114000Y-436000D02*
X-112000Y-434000D01*
Y-431000D01*
X74000Y-417000D02*
X90000D01*
X100000Y-427000D01*
X132001Y125749D02*
Y138249D01*
X-147500Y-178644D02*
X-141857Y-173000D01*
X-198000Y-398000D02*
X-184000D01*
X-212000Y-409000D02*
X-198000Y-398000D01*
X193000Y114000D02*
X196186Y114000D01*
X-236000Y-409000D02*
X-212000D01*
X-141857Y-173000D02*
X-134000D01*
X-57636Y-323364D02*
X-56000Y-325000D01*
X-41000D01*
X-87000Y-45000D02*
Y-42000D01*
Y-45000D02*
X-81500Y-50500D01*
X-181419Y-474000D02*
Y-434000D01*
X-206819Y-474000D02*
Y-434000D01*
Y-474000D02*
X-202819D01*
X-185419D02*
X-181419D01*
X-185419Y-434000D02*
X-181419D01*
X-206819D02*
X-202819D01*
X-200920Y-372984D02*
Y-360094D01*
X-211080Y-372984D02*
Y-360284D01*
X-159411Y-480470D02*
Y-467770D01*
X-169571Y-480660D02*
Y-467770D01*
X-169657Y-452730D02*
Y-440030D01*
X-159497Y-452730D02*
Y-439840D01*
X126500Y207825D02*
X128000Y206325D01*
X126500Y207825D02*
Y214325D01*
Y221825D01*
X116000Y232325D02*
X126500Y221825D01*
X-99066Y-49970D02*
Y-37270D01*
X-109226Y-50160D02*
Y-37270D01*
X-192645Y-28442D02*
Y-22442D01*
X-63000Y40000D02*
X-58729D01*
X-54233Y34799D01*
X172870Y-503080D02*
X185760D01*
X172870Y-492920D02*
X185570D01*
X144740D02*
X157630D01*
X144930Y-503080D02*
X157630D01*
X58658D02*
X71548D01*
X58658Y-492920D02*
X71358D01*
X45870Y-489080D02*
X58760D01*
X45870Y-478920D02*
X58570D01*
X17930Y-503080D02*
X30630D01*
X17740Y-492920D02*
X30630D01*
X-78250Y88500D02*
X-69750D01*
Y117500D01*
X-78250D02*
X-69750D01*
X-78250Y88500D02*
Y117500D01*
X-258000Y-509537D02*
X258000D01*
X-89500Y-191700D02*
Y-173700D01*
X-120300Y-191700D02*
Y-173700D01*
X-148380Y-252400D02*
X-135680D01*
Y-243898D01*
X-148380Y-220650D02*
X-135680D01*
Y-228898D02*
Y-220650D01*
X-53861Y-143479D02*
Y-135482D01*
X-57860D01*
X-59193Y-136815D01*
Y-139480D01*
X-57860Y-140813D01*
X-53861D01*
X-56527D02*
X-59193Y-143479D01*
X-67190Y-136815D02*
X-65858Y-135482D01*
X-63192D01*
X-61859Y-136815D01*
Y-138148D01*
X-63192Y-139480D01*
X-65858D01*
X-67190Y-140813D01*
Y-142146D01*
X-65858Y-143479D01*
X-63192D01*
X-61859Y-142146D01*
X-69856Y-135482D02*
X-75188D01*
X-72522D01*
Y-143479D01*
X-252245Y-59725D02*
X-250912Y-58392D01*
X-248246D01*
X-246913Y-59725D01*
Y-65056D01*
X-248246Y-66389D01*
X-250912D01*
X-252245Y-65056D01*
Y-62390D01*
X-249579D01*
X-254911Y-66389D02*
Y-58392D01*
X-260242Y-66389D01*
Y-58392D01*
X-262908D02*
Y-66389D01*
X-266907D01*
X-268240Y-65056D01*
Y-59725D01*
X-266907Y-58392D01*
X-262908D01*
X-143245Y-496725D02*
X-141912Y-495392D01*
X-139246D01*
X-137913Y-496725D01*
Y-502056D01*
X-139246Y-503389D01*
X-141912D01*
X-143245Y-502056D01*
Y-499390D01*
X-140579D01*
X-145911Y-503389D02*
Y-495392D01*
X-151242Y-503389D01*
Y-495392D01*
X-153908D02*
Y-503389D01*
X-157907D01*
X-159240Y-502056D01*
Y-496725D01*
X-157907Y-495392D01*
X-153908D01*
X-222000Y-440000D02*
X-214003D01*
Y-436001D01*
X-215336Y-434668D01*
X-218001D01*
X-219334Y-436001D01*
Y-440000D01*
Y-437334D02*
X-222000Y-434668D01*
Y-432003D02*
Y-429337D01*
Y-430670D01*
X-214003D01*
X-215336Y-432003D01*
Y-425338D02*
X-214003Y-424005D01*
Y-421339D01*
X-215336Y-420006D01*
X-220667D01*
X-222000Y-421339D01*
Y-424005D01*
X-220667Y-425338D01*
X-215336D01*
X-222000Y-417341D02*
Y-414675D01*
Y-416008D01*
X-214003D01*
X-215336Y-417341D01*
X-112118Y-353193D02*
Y-345196D01*
X-116117D01*
X-117450Y-346529D01*
Y-349194D01*
X-116117Y-350527D01*
X-112118D01*
X-114784D02*
X-117450Y-353193D01*
X-120115D02*
X-122781D01*
X-121448D01*
Y-345196D01*
X-120115Y-346529D01*
X-126780Y-353193D02*
X-129446D01*
X-128113D01*
Y-345196D01*
X-126780Y-346529D01*
X-133444D02*
X-134777Y-345196D01*
X-137443D01*
X-138776Y-346529D01*
Y-351860D01*
X-137443Y-353193D01*
X-134777D01*
X-133444Y-351860D01*
Y-346529D01*
X38100Y-53340D02*
Y-45343D01*
X34101D01*
X32768Y-46676D01*
Y-49341D01*
X34101Y-50674D01*
X38100D01*
X35434D02*
X32768Y-53340D01*
X30103Y-45343D02*
X24771D01*
Y-46676D01*
X30103Y-52007D01*
Y-53340D01*
X22105Y-46676D02*
X20772Y-45343D01*
X18106D01*
X16774Y-46676D01*
Y-48008D01*
X18106Y-49341D01*
X19439D01*
X18106D01*
X16774Y-50674D01*
Y-52007D01*
X18106Y-53340D01*
X20772D01*
X22105Y-52007D01*
X-88003Y-389890D02*
Y-384558D01*
Y-387224D01*
X-96000D01*
Y-381893D02*
X-88003D01*
Y-377894D01*
X-89335Y-376561D01*
X-92001D01*
X-93334Y-377894D01*
Y-381893D01*
X-88003Y-373895D02*
Y-368564D01*
X-89335D01*
X-94667Y-373895D01*
X-96000D01*
X-88003Y-360566D02*
X-89335Y-363232D01*
X-92001Y-365898D01*
X-94667D01*
X-96000Y-364565D01*
Y-361899D01*
X-94667Y-360566D01*
X-93334D01*
X-92001Y-361899D01*
Y-365898D01*
X-152400Y-365851D02*
X-157732D01*
X-155066D01*
Y-373848D01*
X-160397D02*
Y-365851D01*
X-164396D01*
X-165729Y-367184D01*
Y-369850D01*
X-164396Y-371182D01*
X-160397D01*
X-168395Y-365851D02*
X-173726D01*
Y-367184D01*
X-168395Y-372515D01*
Y-373848D01*
X-181724Y-365851D02*
X-176392D01*
Y-369850D01*
X-179058Y-368517D01*
X-180391D01*
X-181724Y-369850D01*
Y-372515D01*
X-180391Y-373848D01*
X-177725D01*
X-176392Y-372515D01*
X163655Y-424617D02*
X159885Y-420846D01*
X161770Y-422732D01*
X156115Y-428386D01*
X152345Y-424617D02*
X158000Y-418961D01*
X155173Y-416134D01*
X153287D01*
X151403Y-418019D01*
X151402Y-419904D01*
X154230Y-422732D01*
X148575Y-409536D02*
X152345Y-413306D01*
X149517Y-416134D01*
X148575Y-413306D01*
X147632Y-412364D01*
X145747D01*
X143862Y-414249D01*
X143862Y-416134D01*
X145747Y-418019D01*
X147632D01*
X142920Y-403881D02*
X143862Y-406709D01*
Y-410479D01*
X141977Y-412364D01*
X140092D01*
X138207Y-410479D01*
X138207Y-408594D01*
X139150Y-407651D01*
X141035D01*
X143862Y-410479D01*
X163331Y127000D02*
Y132332D01*
Y129666D01*
X155333D01*
Y134997D02*
X163331D01*
Y138996D01*
X161998Y140329D01*
X159332D01*
X157999Y138996D01*
Y134997D01*
X155333Y146994D02*
X163331D01*
X159332Y142995D01*
Y148326D01*
X163331Y156324D02*
Y150992D01*
X159332D01*
X160665Y153658D01*
Y154991D01*
X159332Y156324D01*
X156666D01*
X155333Y154991D01*
Y152325D01*
X156666Y150992D01*
X-95000Y164997D02*
Y158333D01*
X-96333Y157000D01*
X-98999D01*
X-100332Y158333D01*
Y164997D01*
X-102997Y157000D02*
X-105663D01*
X-104330D01*
Y164997D01*
X-102997Y163664D01*
X-231000Y67997D02*
Y61333D01*
X-232333Y60000D01*
X-234999D01*
X-236332Y61333D01*
Y67997D01*
X-244329Y60000D02*
X-238997D01*
X-244329Y65332D01*
Y66665D01*
X-242996Y67997D01*
X-240330D01*
X-238997Y66665D01*
X9651Y-195003D02*
Y-201667D01*
X8318Y-203000D01*
X5652D01*
X4320Y-201667D01*
Y-195003D01*
X1654Y-203000D02*
X-1012D01*
X321D01*
Y-195003D01*
X1654Y-196336D01*
X-5011D02*
X-6344Y-195003D01*
X-9010D01*
X-10343Y-196336D01*
Y-197668D01*
X-9010Y-199001D01*
X-7677D01*
X-9010D01*
X-10343Y-200334D01*
Y-201667D01*
X-9010Y-203000D01*
X-6344D01*
X-5011Y-201667D01*
X-92000Y-15000D02*
Y-7003D01*
X-95999D01*
X-97332Y-8335D01*
Y-11001D01*
X-95999Y-12334D01*
X-92000D01*
X-94666D02*
X-97332Y-15000D01*
X-99997Y-7003D02*
X-105329Y-15000D01*
Y-7003D02*
X-99997Y-15000D01*
X-113326D02*
X-107995D01*
X-113326Y-9668D01*
Y-8335D01*
X-111994Y-7003D01*
X-109328D01*
X-107995Y-8335D01*
X-56003Y-72000D02*
Y-66668D01*
Y-69334D01*
X-64000D01*
X-56003Y-64003D02*
X-64000Y-58671D01*
X-56003D02*
X-64000Y-64003D01*
Y-50674D02*
Y-56005D01*
X-58668Y-50674D01*
X-57336D01*
X-56003Y-52006D01*
Y-54672D01*
X-57336Y-56005D01*
X-114771Y-465503D02*
X-120103D01*
X-117437D01*
Y-473501D01*
X-122768Y-465503D02*
X-128100Y-473501D01*
Y-465503D02*
X-122768Y-473501D01*
X-130766Y-466836D02*
X-132099Y-465503D01*
X-134765D01*
X-136097Y-466836D01*
Y-468169D01*
X-134765Y-469502D01*
X-133432D01*
X-134765D01*
X-136097Y-470835D01*
Y-472168D01*
X-134765Y-473501D01*
X-132099D01*
X-130766Y-472168D01*
X-57401Y-444000D02*
Y-436003D01*
X-61400D01*
X-62733Y-437335D01*
Y-440001D01*
X-61400Y-441334D01*
X-57401D01*
X-60067D02*
X-62733Y-444000D01*
X-65398Y-436003D02*
X-70730Y-444000D01*
Y-436003D02*
X-65398Y-444000D01*
X-73396Y-437335D02*
X-74729Y-436003D01*
X-77394D01*
X-78727Y-437335D01*
Y-438668D01*
X-77394Y-440001D01*
X-76062D01*
X-77394D01*
X-78727Y-441334D01*
Y-442667D01*
X-77394Y-444000D01*
X-74729D01*
X-73396Y-442667D01*
X156846Y-50742D02*
X151514D01*
X154180D01*
Y-58739D01*
X148848D02*
Y-50742D01*
X144850D01*
X143517Y-52075D01*
Y-54741D01*
X144850Y-56074D01*
X148848D01*
X140851Y-50742D02*
X135519D01*
Y-52075D01*
X140851Y-57407D01*
Y-58739D01*
X132853Y-52075D02*
X131521Y-50742D01*
X128855D01*
X127522Y-52075D01*
Y-57407D01*
X128855Y-58739D01*
X131521D01*
X132853Y-57407D01*
Y-52075D01*
X102221Y-183592D02*
X96890D01*
X99556D01*
Y-191589D01*
X94224D02*
Y-183592D01*
X90225D01*
X88892Y-184925D01*
Y-187591D01*
X90225Y-188923D01*
X94224D01*
X80895Y-183592D02*
X83561Y-184925D01*
X86226Y-187591D01*
Y-190256D01*
X84894Y-191589D01*
X82228D01*
X80895Y-190256D01*
Y-188923D01*
X82228Y-187591D01*
X86226D01*
X78229Y-190256D02*
X76896Y-191589D01*
X74230D01*
X72897Y-190256D01*
Y-184925D01*
X74230Y-183592D01*
X76896D01*
X78229Y-184925D01*
Y-186258D01*
X76896Y-187591D01*
X72897D01*
X111226Y-264003D02*
X105894D01*
X108560D01*
Y-272000D01*
X103229D02*
Y-264003D01*
X99230D01*
X97897Y-265336D01*
Y-268001D01*
X99230Y-269334D01*
X103229D01*
X89900Y-264003D02*
X92565Y-265336D01*
X95231Y-268001D01*
Y-270667D01*
X93898Y-272000D01*
X91233D01*
X89900Y-270667D01*
Y-269334D01*
X91233Y-268001D01*
X95231D01*
X87234Y-265336D02*
X85901Y-264003D01*
X83235D01*
X81902Y-265336D01*
Y-266668D01*
X83235Y-268001D01*
X81902Y-269334D01*
Y-270667D01*
X83235Y-272000D01*
X85901D01*
X87234Y-270667D01*
Y-269334D01*
X85901Y-268001D01*
X87234Y-266668D01*
Y-265336D01*
X85901Y-268001D02*
X83235D01*
X-35000Y-158003D02*
X-40332D01*
X-37666D01*
Y-166000D01*
X-42997D02*
Y-158003D01*
X-46996D01*
X-48329Y-159335D01*
Y-162001D01*
X-46996Y-163334D01*
X-42997D01*
X-56326Y-158003D02*
X-53661Y-159335D01*
X-50995Y-162001D01*
Y-164667D01*
X-52328Y-166000D01*
X-54994D01*
X-56326Y-164667D01*
Y-163334D01*
X-54994Y-162001D01*
X-50995D01*
X-58992Y-158003D02*
X-64324D01*
Y-159335D01*
X-58992Y-164667D01*
Y-166000D01*
X-107549Y-371199D02*
X-112880D01*
X-110214D01*
Y-379196D01*
X-115546D02*
Y-371199D01*
X-119545D01*
X-120878Y-372531D01*
Y-375197D01*
X-119545Y-376530D01*
X-115546D01*
X-128875Y-371199D02*
X-126209Y-372531D01*
X-123543Y-375197D01*
Y-377863D01*
X-124876Y-379196D01*
X-127542D01*
X-128875Y-377863D01*
Y-376530D01*
X-127542Y-375197D01*
X-123543D01*
X-136873Y-371199D02*
X-134207Y-372531D01*
X-131541Y-375197D01*
Y-377863D01*
X-132874Y-379196D01*
X-135540D01*
X-136873Y-377863D01*
Y-376530D01*
X-135540Y-375197D01*
X-131541D01*
X-171327Y-420912D02*
X-176659D01*
X-173993D01*
Y-428909D01*
X-179325D02*
Y-420912D01*
X-183323D01*
X-184656Y-422244D01*
Y-424910D01*
X-183323Y-426243D01*
X-179325D01*
X-192654Y-420912D02*
X-189988Y-422244D01*
X-187322Y-424910D01*
Y-427576D01*
X-188655Y-428909D01*
X-191321D01*
X-192654Y-427576D01*
Y-426243D01*
X-191321Y-424910D01*
X-187322D01*
X-200651Y-420912D02*
X-195320D01*
Y-424910D01*
X-197985Y-423577D01*
X-199318D01*
X-200651Y-424910D01*
Y-427576D01*
X-199318Y-428909D01*
X-196653D01*
X-195320Y-427576D01*
X-111000Y-440003D02*
X-116332D01*
X-113666D01*
Y-448000D01*
X-118997D02*
Y-440003D01*
X-122996D01*
X-124329Y-441335D01*
Y-444001D01*
X-122996Y-445334D01*
X-118997D01*
X-132326Y-440003D02*
X-129661Y-441335D01*
X-126995Y-444001D01*
Y-446667D01*
X-128328Y-448000D01*
X-130994D01*
X-132326Y-446667D01*
Y-445334D01*
X-130994Y-444001D01*
X-126995D01*
X-138991Y-448000D02*
Y-440003D01*
X-134992Y-444001D01*
X-140324D01*
X-54610Y-421263D02*
X-59942D01*
X-57276D01*
Y-429260D01*
X-62607D02*
Y-421263D01*
X-66606D01*
X-67939Y-422595D01*
Y-425261D01*
X-66606Y-426594D01*
X-62607D01*
X-75936Y-421263D02*
X-73271Y-422595D01*
X-70605Y-425261D01*
Y-427927D01*
X-71938Y-429260D01*
X-74604D01*
X-75936Y-427927D01*
Y-426594D01*
X-74604Y-425261D01*
X-70605D01*
X-78602Y-422595D02*
X-79935Y-421263D01*
X-82601D01*
X-83934Y-422595D01*
Y-423928D01*
X-82601Y-425261D01*
X-81268D01*
X-82601D01*
X-83934Y-426594D01*
Y-427927D01*
X-82601Y-429260D01*
X-79935D01*
X-78602Y-427927D01*
X115172Y64145D02*
X109840D01*
X112506D01*
Y56148D01*
X107175D02*
Y64145D01*
X103176D01*
X101843Y62813D01*
Y60147D01*
X103176Y58814D01*
X107175D01*
X93846Y64145D02*
X96511Y62813D01*
X99177Y60147D01*
Y57481D01*
X97844Y56148D01*
X95178D01*
X93846Y57481D01*
Y58814D01*
X95178Y60147D01*
X99177D01*
X85848Y56148D02*
X91180D01*
X85848Y61480D01*
Y62813D01*
X87181Y64145D01*
X89847D01*
X91180Y62813D01*
X-34290Y53717D02*
X-39622D01*
X-36956D01*
Y45720D01*
X-42287D02*
Y53717D01*
X-46286D01*
X-47619Y52385D01*
Y49719D01*
X-46286Y48386D01*
X-42287D01*
X-55616Y53717D02*
X-52951Y52385D01*
X-50285Y49719D01*
Y47053D01*
X-51618Y45720D01*
X-54284D01*
X-55616Y47053D01*
Y48386D01*
X-54284Y49719D01*
X-50285D01*
X-58282Y45720D02*
X-60948D01*
X-59615D01*
Y53717D01*
X-58282Y52385D01*
X178743Y-239003D02*
X173411D01*
X176077D01*
Y-247000D01*
X170746D02*
Y-239003D01*
X166747D01*
X165414Y-240336D01*
Y-243001D01*
X166747Y-244334D01*
X170746D01*
X157416Y-239003D02*
X160082Y-240336D01*
X162748Y-243001D01*
Y-245667D01*
X161415Y-247000D01*
X158749D01*
X157416Y-245667D01*
Y-244334D01*
X158749Y-243001D01*
X162748D01*
X154751Y-240336D02*
X153418Y-239003D01*
X150752D01*
X149419Y-240336D01*
Y-245667D01*
X150752Y-247000D01*
X153418D01*
X154751Y-245667D01*
Y-240336D01*
X-29503Y118623D02*
Y123954D01*
Y121289D01*
X-37500D01*
Y126620D02*
X-29503D01*
Y130619D01*
X-30836Y131952D01*
X-33502D01*
X-34834Y130619D01*
Y126620D01*
X-29503Y139949D02*
Y134618D01*
X-33502D01*
X-32169Y137283D01*
Y138616D01*
X-33502Y139949D01*
X-36167D01*
X-37500Y138616D01*
Y135950D01*
X-36167Y134618D01*
X-29503Y147947D02*
Y142615D01*
X-33502D01*
X-32169Y145281D01*
Y146614D01*
X-33502Y147947D01*
X-36167D01*
X-37500Y146614D01*
Y143948D01*
X-36167Y142615D01*
X-112003Y235000D02*
Y240332D01*
Y237666D01*
X-120000D01*
Y242997D02*
X-112003D01*
Y246996D01*
X-113336Y248329D01*
X-116001D01*
X-117334Y246996D01*
Y242997D01*
X-112003Y256327D02*
Y250995D01*
X-116001D01*
X-114668Y253661D01*
Y254994D01*
X-116001Y256327D01*
X-118667D01*
X-120000Y254994D01*
Y252328D01*
X-118667Y250995D01*
X-120000Y262991D02*
X-112003D01*
X-116001Y258992D01*
Y264324D01*
X-230003Y15290D02*
Y20622D01*
Y17956D01*
X-238000D01*
Y23287D02*
X-230003D01*
Y27286D01*
X-231336Y28619D01*
X-234001D01*
X-235334Y27286D01*
Y23287D01*
X-230003Y36616D02*
Y31285D01*
X-234001D01*
X-232668Y33951D01*
Y35284D01*
X-234001Y36616D01*
X-236667D01*
X-238000Y35284D01*
Y32618D01*
X-236667Y31285D01*
X-238000Y44614D02*
Y39282D01*
X-232668Y44614D01*
X-231336D01*
X-230003Y43281D01*
Y40615D01*
X-231336Y39282D01*
X-97000Y202997D02*
X-102332D01*
X-99666D01*
Y195000D01*
X-104997D02*
Y202997D01*
X-108996D01*
X-110329Y201665D01*
Y198999D01*
X-108996Y197666D01*
X-104997D01*
X-118327Y202997D02*
X-112995D01*
Y198999D01*
X-115661Y200332D01*
X-116994D01*
X-118327Y198999D01*
Y196333D01*
X-116994Y195000D01*
X-114328D01*
X-112995Y196333D01*
X-120992Y195000D02*
X-123658D01*
X-122325D01*
Y202997D01*
X-120992Y201665D01*
X-78000Y215997D02*
X-83332D01*
X-80666D01*
Y208000D01*
X-85997D02*
Y215997D01*
X-89996D01*
X-91329Y214664D01*
Y211999D01*
X-89996Y210666D01*
X-85997D01*
X-99326Y215997D02*
X-93995D01*
Y211999D01*
X-96661Y213332D01*
X-97994D01*
X-99326Y211999D01*
Y209333D01*
X-97994Y208000D01*
X-95328D01*
X-93995Y209333D01*
X-101992Y214664D02*
X-103325Y215997D01*
X-105991D01*
X-107324Y214664D01*
Y209333D01*
X-105991Y208000D01*
X-103325D01*
X-101992Y209333D01*
Y214664D01*
X-59051Y130865D02*
X-64383D01*
X-61717D01*
Y122868D01*
X-67049D02*
Y130865D01*
X-71048D01*
X-72381Y129532D01*
Y126866D01*
X-71048Y125533D01*
X-67049D01*
X-79045Y122868D02*
Y130865D01*
X-75046Y126866D01*
X-80378D01*
X-83044Y124200D02*
X-84377Y122868D01*
X-87043D01*
X-88375Y124200D01*
Y129532D01*
X-87043Y130865D01*
X-84377D01*
X-83044Y129532D01*
Y128199D01*
X-84377Y126866D01*
X-88375D01*
X140812Y-437345D02*
X137042Y-433575D01*
X138927Y-435460D01*
X133272Y-441115D01*
X129502Y-437345D02*
X135157Y-431690D01*
X132329Y-428862D01*
X130444D01*
X128559Y-430747D01*
X128559Y-432632D01*
X131387Y-435460D01*
X121019Y-428862D02*
X126674Y-423207D01*
X126674Y-428862D01*
X122904Y-425092D01*
Y-421322D02*
X122904Y-419437D01*
X121019Y-417552D01*
X119134D01*
X118192Y-418495D01*
Y-420380D01*
X116307D01*
X115364Y-421322D01*
X115364Y-423207D01*
X117249Y-425092D01*
X119134D01*
X120077Y-424150D01*
Y-422265D01*
X121962D01*
X122904Y-421322D01*
X120077Y-422265D02*
X118192Y-420380D01*
X66000Y-449003D02*
X60668D01*
X63334D01*
Y-457000D01*
X58003D02*
Y-449003D01*
X54004D01*
X52671Y-450336D01*
Y-453001D01*
X54004Y-454334D01*
X58003D01*
X46006Y-457000D02*
Y-449003D01*
X50005Y-453001D01*
X44674D01*
X42008Y-449003D02*
X36676D01*
Y-450336D01*
X42008Y-455667D01*
Y-457000D01*
X-171450Y-196473D02*
X-176782D01*
X-174116D01*
Y-204470D01*
X-179447D02*
Y-196473D01*
X-183446D01*
X-184779Y-197806D01*
Y-200471D01*
X-183446Y-201804D01*
X-179447D01*
X-191444Y-204470D02*
Y-196473D01*
X-187445Y-200471D01*
X-192776D01*
X-200774Y-196473D02*
X-198108Y-197806D01*
X-195442Y-200471D01*
Y-203137D01*
X-196775Y-204470D01*
X-199441D01*
X-200774Y-203137D01*
Y-201804D01*
X-199441Y-200471D01*
X-195442D01*
X132655Y-452345D02*
X128885Y-448575D01*
X130770Y-450460D01*
X125115Y-456115D01*
X120402Y-453288D02*
X116632Y-449518D01*
X121345Y-441035D02*
X117575Y-437265D01*
X119460Y-439150D01*
X113805Y-444805D01*
X115690Y-435380D02*
X106265Y-437265D01*
X111920Y-431610D02*
X110035Y-441035D01*
X100610Y-431610D02*
X104380Y-435380D01*
Y-427840D01*
X105322Y-426897D01*
X107207D01*
X109092Y-428782D01*
X109092Y-430667D01*
X123594Y-479620D02*
X119824Y-475850D01*
X121709Y-477735D01*
X116054Y-483390D01*
X111342Y-480563D02*
X107572Y-476793D01*
X106629Y-473965D02*
X112284Y-468310D01*
X109457Y-465483D01*
X107572D01*
X105687Y-467368D01*
X105687Y-469253D01*
X108514Y-472080D01*
X106629Y-470195D02*
X102859D01*
X106629Y-462655D02*
X97204Y-464540D01*
X102859Y-458885D02*
X100974Y-468310D01*
X91549Y-458885D02*
X95319Y-462655D01*
Y-455115D01*
X96262Y-454173D01*
X98147D01*
X100032Y-456058D01*
X100032Y-457943D01*
X5668Y-306336D02*
X7001Y-305003D01*
X9667D01*
X11000Y-306336D01*
Y-311667D01*
X9667Y-313000D01*
X7001D01*
X5668Y-311667D01*
X3003Y-305003D02*
Y-313000D01*
X-2329D01*
X-4995Y-305003D02*
Y-313000D01*
Y-310334D01*
X-10326Y-305003D01*
X-6328Y-309001D01*
X-10326Y-313000D01*
X-182859Y-303245D02*
Y-295248D01*
X-185525Y-297914D01*
X-188191Y-295248D01*
Y-303245D01*
X-190856Y-295248D02*
X-193522D01*
X-192190D01*
Y-303245D01*
X-190856D01*
X-193522D01*
X-202853Y-296581D02*
X-201520Y-295248D01*
X-198854D01*
X-197521Y-296581D01*
Y-297914D01*
X-198854Y-299247D01*
X-201520D01*
X-202853Y-300579D01*
Y-301912D01*
X-201520Y-303245D01*
X-198854D01*
X-197521Y-301912D01*
X-209517Y-295248D02*
X-206851D01*
X-205518Y-296581D01*
Y-301912D01*
X-206851Y-303245D01*
X-209517D01*
X-210850Y-301912D01*
Y-296581D01*
X-209517Y-295248D01*
X-56000Y-263062D02*
X-48003D01*
X-50668Y-260397D01*
X-48003Y-257731D01*
X-56000D01*
X-48003Y-251066D02*
Y-253732D01*
X-49335Y-255065D01*
X-54667D01*
X-56000Y-253732D01*
Y-251066D01*
X-54667Y-249734D01*
X-49335D01*
X-48003Y-251066D01*
X-49335Y-241736D02*
X-48003Y-243069D01*
Y-245735D01*
X-49335Y-247068D01*
X-50668D01*
X-52001Y-245735D01*
Y-243069D01*
X-53334Y-241736D01*
X-54667D01*
X-56000Y-243069D01*
Y-245735D01*
X-54667Y-247068D01*
X-48003Y-239070D02*
Y-236404D01*
Y-237737D01*
X-56000D01*
Y-239070D01*
Y-236404D01*
X-177911Y-324000D02*
X-183243Y-318668D01*
X-191240Y-317335D02*
X-189907Y-316003D01*
X-187242D01*
X-185909Y-317335D01*
Y-322667D01*
X-187242Y-324000D01*
X-189907D01*
X-191240Y-322667D01*
X-199238Y-317335D02*
X-197905Y-316003D01*
X-195239D01*
X-193906Y-317335D01*
Y-318668D01*
X-195239Y-320001D01*
X-197905D01*
X-199238Y-321334D01*
Y-322667D01*
X-197905Y-324000D01*
X-195239D01*
X-193906Y-322667D01*
X-180000Y-273003D02*
Y-281000D01*
X-182666Y-278334D01*
X-185332Y-281000D01*
Y-273003D01*
X-187997Y-281000D02*
Y-273003D01*
X-191996D01*
X-193329Y-274335D01*
Y-277001D01*
X-191996Y-278334D01*
X-187997D01*
X-36000Y-302798D02*
Y-294801D01*
X-39999D01*
X-41332Y-296134D01*
Y-298800D01*
X-39999Y-300133D01*
X-36000D01*
X-38666D02*
X-41332Y-302798D01*
X-49329Y-296134D02*
X-47996Y-294801D01*
X-45330D01*
X-43997Y-296134D01*
Y-297467D01*
X-45330Y-298800D01*
X-47996D01*
X-49329Y-300133D01*
Y-301465D01*
X-47996Y-302798D01*
X-45330D01*
X-43997Y-301465D01*
X-51995Y-294801D02*
X-57326D01*
X-54661D01*
Y-302798D01*
X234000Y75307D02*
X228668D01*
X231334D01*
Y67310D01*
X226002D02*
Y75307D01*
X222003D01*
X220671Y73974D01*
Y71309D01*
X222003Y69976D01*
X226002D01*
X218005Y73974D02*
X216672Y75307D01*
X214006D01*
X212673Y73974D01*
Y72642D01*
X214006Y71309D01*
X215339D01*
X214006D01*
X212673Y69976D01*
Y68643D01*
X214006Y67310D01*
X216672D01*
X218005Y68643D01*
X210007Y73974D02*
X208674Y75307D01*
X206009D01*
X204676Y73974D01*
Y68643D01*
X206009Y67310D01*
X208674D01*
X210007Y68643D01*
Y73974D01*
X39000Y55997D02*
X36334D01*
X37667D01*
Y48000D01*
X39000D01*
X36334D01*
X32336D02*
Y55997D01*
X27004Y48000D01*
Y55997D01*
X24338D02*
X19006D01*
X21672D01*
Y48000D01*
X16341D02*
Y55997D01*
X13675Y53332D01*
X11009Y55997D01*
Y48000D01*
X1997Y8000D02*
Y10666D01*
Y9333D01*
X-6000D01*
Y8000D01*
Y10666D01*
Y14664D02*
X1997D01*
X-6000Y19996D01*
X1997D01*
Y22662D02*
Y27994D01*
Y25328D01*
X-6000D01*
Y30659D02*
X-668D01*
X1997Y33325D01*
X-668Y35991D01*
X-6000D01*
X-2001D01*
Y30659D01*
X136161Y44827D02*
X133495D01*
X134828D01*
Y36830D01*
X136161D01*
X133495D01*
X129497D02*
Y44827D01*
X124165Y36830D01*
Y44827D01*
X121499D02*
X116168D01*
X118833D01*
Y36830D01*
X113502Y44827D02*
Y36830D01*
X109503D01*
X108170Y38163D01*
Y43495D01*
X109503Y44827D01*
X113502D01*
X138178Y25165D02*
X139511Y26498D01*
X142177D01*
X143510Y25165D01*
Y23832D01*
X142177Y22499D01*
X139511D01*
X138178Y21167D01*
Y19834D01*
X139511Y18501D01*
X142177D01*
X143510Y19834D01*
X130181Y25165D02*
X131514Y26498D01*
X134180D01*
X135513Y25165D01*
Y19834D01*
X134180Y18501D01*
X131514D01*
X130181Y19834D01*
X127515Y26498D02*
Y18501D01*
X122184D01*
X119518D02*
X116852D01*
X118185D01*
Y26498D01*
X119518Y25165D01*
X162463Y49123D02*
X163796Y50456D01*
X166462D01*
X167794Y49123D01*
Y47790D01*
X166462Y46457D01*
X163796D01*
X162463Y45125D01*
Y43792D01*
X163796Y42459D01*
X166462D01*
X167794Y43792D01*
X159797Y50456D02*
Y42459D01*
X155798D01*
X154465Y43792D01*
Y49123D01*
X155798Y50456D01*
X159797D01*
X151800Y42459D02*
Y47790D01*
X149134Y50456D01*
X146468Y47790D01*
Y42459D01*
Y46457D01*
X151800D01*
X143802Y42459D02*
X141136D01*
X142469D01*
Y50456D01*
X143802Y49123D01*
X103997Y-25000D02*
Y-19668D01*
Y-22334D01*
X96000D01*
Y-17003D02*
X103997D01*
Y-13004D01*
X102664Y-11671D01*
X99999D01*
X98666Y-13004D01*
Y-17003D01*
X96000Y-3674D02*
Y-9005D01*
X101332Y-3674D01*
X102664D01*
X103997Y-5006D01*
Y-7672D01*
X102664Y-9005D01*
X96000Y2991D02*
X103997D01*
X99999Y-1008D01*
Y4324D01*
X78000Y-21839D02*
X85997D01*
X83332Y-19173D01*
X85997Y-16507D01*
X78000D01*
X85997Y-9842D02*
Y-12508D01*
X84664Y-13841D01*
X79333D01*
X78000Y-12508D01*
Y-9842D01*
X79333Y-8510D01*
X84664D01*
X85997Y-9842D01*
X84664Y-512D02*
X85997Y-1845D01*
Y-4511D01*
X84664Y-5844D01*
X83332D01*
X81999Y-4511D01*
Y-1845D01*
X80666Y-512D01*
X79333D01*
X78000Y-1845D01*
Y-4511D01*
X79333Y-5844D01*
X85997Y2154D02*
Y4820D01*
Y3487D01*
X78000D01*
Y2154D01*
Y4820D01*
Y8818D02*
Y11484D01*
Y10151D01*
X85997D01*
X84664Y8818D01*
X27469Y-15174D02*
X28802Y-13841D01*
X31467D01*
X32800Y-15174D01*
Y-16507D01*
X31467Y-17840D01*
X28802D01*
X27469Y-19173D01*
Y-20506D01*
X28802Y-21839D01*
X31467D01*
X32800Y-20506D01*
X19471Y-15174D02*
X20804Y-13841D01*
X23470D01*
X24803Y-15174D01*
Y-20506D01*
X23470Y-21839D01*
X20804D01*
X19471Y-20506D01*
X16805Y-13841D02*
Y-21839D01*
Y-19173D01*
X11474Y-13841D01*
X15473Y-17840D01*
X11474Y-21839D01*
X8808D02*
X6142D01*
X7475D01*
Y-13841D01*
X8808Y-15174D01*
X131846Y-34000D02*
Y-28668D01*
Y-31334D01*
X123849D01*
Y-26003D02*
X131846D01*
Y-22004D01*
X130513Y-20671D01*
X127847D01*
X126515Y-22004D01*
Y-26003D01*
X123849Y-12674D02*
Y-18005D01*
X129180Y-12674D01*
X130513D01*
X131846Y-14006D01*
Y-16672D01*
X130513Y-18005D01*
X123849Y-10008D02*
Y-7342D01*
Y-8675D01*
X131846D01*
X130513Y-10008D01*
X-3810Y-28833D02*
X-9142D01*
X-6476D01*
Y-36830D01*
X-11807D02*
Y-28833D01*
X-15806D01*
X-17139Y-30166D01*
Y-32831D01*
X-15806Y-34164D01*
X-11807D01*
X-25136Y-36830D02*
X-19805D01*
X-25136Y-31498D01*
Y-30166D01*
X-23804Y-28833D01*
X-21138D01*
X-19805Y-30166D01*
X-27802D02*
X-29135Y-28833D01*
X-31801D01*
X-33134Y-30166D01*
Y-35497D01*
X-31801Y-36830D01*
X-29135D01*
X-27802Y-35497D01*
Y-30166D01*
X237490Y32144D02*
X232158D01*
X234824D01*
Y24147D01*
X229493D02*
Y32144D01*
X225494D01*
X224161Y30811D01*
Y28145D01*
X225494Y26812D01*
X229493D01*
X221495Y24147D02*
X218829D01*
X220162D01*
Y32144D01*
X221495Y30811D01*
X214831Y25480D02*
X213498Y24147D01*
X210832D01*
X209499Y25480D01*
Y30811D01*
X210832Y32144D01*
X213498D01*
X214831Y30811D01*
Y29478D01*
X213498Y28145D01*
X209499D01*
X235898Y62607D02*
X230566D01*
X233232D01*
Y54610D01*
X227900D02*
Y62607D01*
X223902D01*
X222569Y61274D01*
Y58609D01*
X223902Y57276D01*
X227900D01*
X219903Y54610D02*
X217237D01*
X218570D01*
Y62607D01*
X219903Y61274D01*
X213238D02*
X211905Y62607D01*
X209240D01*
X207907Y61274D01*
Y59942D01*
X209240Y58609D01*
X207907Y57276D01*
Y55943D01*
X209240Y54610D01*
X211905D01*
X213238Y55943D01*
Y57276D01*
X211905Y58609D01*
X213238Y59942D01*
Y61274D01*
X211905Y58609D02*
X209240D01*
X179447Y56412D02*
Y61744D01*
Y59078D01*
X171450D01*
Y64409D02*
X179447D01*
Y68408D01*
X178114Y69741D01*
X175449D01*
X174116Y68408D01*
Y64409D01*
X172783Y72407D02*
X171450Y73740D01*
Y76406D01*
X172783Y77738D01*
X178114D01*
X179447Y76406D01*
Y73740D01*
X178114Y72407D01*
X176782D01*
X175449Y73740D01*
Y77738D01*
X203850Y86935D02*
X198518D01*
X201184D01*
Y78938D01*
X195852D02*
Y86935D01*
X191854D01*
X190521Y85602D01*
Y82937D01*
X191854Y81604D01*
X195852D01*
X187855Y85602D02*
X186522Y86935D01*
X183856D01*
X182523Y85602D01*
Y84270D01*
X183856Y82937D01*
X182523Y81604D01*
Y80271D01*
X183856Y78938D01*
X186522D01*
X187855Y80271D01*
Y81604D01*
X186522Y82937D01*
X187855Y84270D01*
Y85602D01*
X186522Y82937D02*
X183856D01*
X-98142Y94997D02*
X-103474D01*
X-100808D01*
Y87000D01*
X-106139D02*
Y94997D01*
X-110138D01*
X-111471Y93665D01*
Y90999D01*
X-110138Y89666D01*
X-106139D01*
X-114137Y93665D02*
X-115470Y94997D01*
X-118136D01*
X-119468Y93665D01*
Y92332D01*
X-118136Y90999D01*
X-116803D01*
X-118136D01*
X-119468Y89666D01*
Y88333D01*
X-118136Y87000D01*
X-115470D01*
X-114137Y88333D01*
X-159003Y74000D02*
Y79332D01*
Y76666D01*
X-167000D01*
Y81997D02*
X-159003D01*
Y85996D01*
X-160336Y87329D01*
X-163001D01*
X-164334Y85996D01*
Y81997D01*
X-167000Y95326D02*
Y89995D01*
X-161668Y95326D01*
X-160336D01*
X-159003Y93994D01*
Y91328D01*
X-160336Y89995D01*
X-174345Y117655D02*
X-178115Y121425D01*
X-176230Y119540D01*
X-181885Y113885D01*
X-185655Y117655D02*
X-180000Y123310D01*
X-182827Y126138D01*
X-184713D01*
X-186597Y124253D01*
X-186597Y122368D01*
X-183770Y119540D01*
X-191310Y123310D02*
X-193195Y125195D01*
X-192253Y124253D01*
X-186597Y129908D01*
X-186597Y128023D01*
X-9786Y-327189D02*
Y-319192D01*
X-13784D01*
X-15117Y-320525D01*
Y-323191D01*
X-13784Y-324524D01*
X-9786D01*
X-12451D02*
X-15117Y-327189D01*
X-17783D02*
X-20449D01*
X-19116D01*
Y-319192D01*
X-17783Y-320525D01*
X-24448Y-327189D02*
X-27113D01*
X-25780D01*
Y-319192D01*
X-24448Y-320525D01*
X-36444Y-327189D02*
X-31112D01*
X-36444Y-321858D01*
Y-320525D01*
X-35111Y-319192D01*
X-32445D01*
X-31112Y-320525D01*
X-143750Y-193040D02*
Y-185043D01*
X-147749D01*
X-149082Y-186376D01*
Y-189041D01*
X-147749Y-190374D01*
X-143750D01*
X-146416D02*
X-149082Y-193040D01*
X-151747D02*
X-154413D01*
X-153080D01*
Y-185043D01*
X-151747Y-186376D01*
X-158412Y-193040D02*
X-161078D01*
X-159745D01*
Y-185043D01*
X-158412Y-186376D01*
X-165077Y-193040D02*
X-167742D01*
X-166409D01*
Y-185043D01*
X-165077Y-186376D01*
X-145000Y-139700D02*
X-137003D01*
Y-135701D01*
X-138336Y-134368D01*
X-141001D01*
X-142334Y-135701D01*
Y-139700D01*
Y-137034D02*
X-145000Y-134368D01*
Y-131703D02*
Y-129037D01*
Y-130370D01*
X-137003D01*
X-138336Y-131703D01*
Y-125038D02*
X-137003Y-123705D01*
Y-121039D01*
X-138336Y-119706D01*
X-143667D01*
X-145000Y-121039D01*
Y-123705D01*
X-143667Y-125038D01*
X-138336D01*
X-143667Y-117041D02*
X-145000Y-115708D01*
Y-113042D01*
X-143667Y-111709D01*
X-138336D01*
X-137003Y-113042D01*
Y-115708D01*
X-138336Y-117041D01*
X-139668D01*
X-141001Y-115708D01*
Y-111709D01*
X-79978Y49000D02*
Y56997D01*
X-83977D01*
X-85310Y55664D01*
Y52999D01*
X-83977Y51666D01*
X-79978D01*
X-82644D02*
X-85310Y49000D01*
X-87976D02*
X-90642D01*
X-89309D01*
Y56997D01*
X-87976Y55664D01*
X-94640D02*
X-95973Y56997D01*
X-98639D01*
X-99972Y55664D01*
Y50333D01*
X-98639Y49000D01*
X-95973D01*
X-94640Y50333D01*
Y55664D01*
X-102638Y56997D02*
X-107969D01*
Y55664D01*
X-102638Y50333D01*
Y49000D01*
X112000Y-310000D02*
X119997D01*
Y-306001D01*
X118665Y-304668D01*
X115999D01*
X114666Y-306001D01*
Y-310000D01*
Y-307334D02*
X112000Y-304668D01*
X113333Y-302003D02*
X112000Y-300670D01*
Y-298004D01*
X113333Y-296671D01*
X118665D01*
X119997Y-298004D01*
Y-300670D01*
X118665Y-302003D01*
X117332D01*
X115999Y-300670D01*
Y-296671D01*
X112000Y-288673D02*
Y-294005D01*
X117332Y-288673D01*
X118665D01*
X119997Y-290006D01*
Y-292672D01*
X118665Y-294005D01*
X78000Y-309000D02*
X85997D01*
Y-305001D01*
X84664Y-303668D01*
X81999D01*
X80666Y-305001D01*
Y-309000D01*
Y-306334D02*
X78000Y-303668D01*
X79333Y-301003D02*
X78000Y-299670D01*
Y-297004D01*
X79333Y-295671D01*
X84664D01*
X85997Y-297004D01*
Y-299670D01*
X84664Y-301003D01*
X83332D01*
X81999Y-299670D01*
Y-295671D01*
X78000Y-293005D02*
Y-290339D01*
Y-291672D01*
X85997D01*
X84664Y-293005D01*
X112000Y236803D02*
X119997D01*
Y240802D01*
X118665Y242135D01*
X115999D01*
X114666Y240802D01*
Y236803D01*
Y239469D02*
X112000Y242135D01*
X118665Y244801D02*
X119997Y246133D01*
Y248799D01*
X118665Y250132D01*
X117332D01*
X115999Y248799D01*
X114666Y250132D01*
X113333D01*
X112000Y248799D01*
Y246133D01*
X113333Y244801D01*
X114666D01*
X115999Y246133D01*
X117332Y244801D01*
X118665D01*
X115999Y246133D02*
Y248799D01*
X119997Y258130D02*
X118665Y255464D01*
X115999Y252798D01*
X113333D01*
X112000Y254131D01*
Y256797D01*
X113333Y258130D01*
X114666D01*
X115999Y256797D01*
Y252798D01*
X219000Y120000D02*
Y127997D01*
X215001D01*
X213668Y126664D01*
Y123999D01*
X215001Y122666D01*
X219000D01*
X216334D02*
X213668Y120000D01*
X211003Y126664D02*
X209670Y127997D01*
X207004D01*
X205671Y126664D01*
Y125332D01*
X207004Y123999D01*
X205671Y122666D01*
Y121333D01*
X207004Y120000D01*
X209670D01*
X211003Y121333D01*
Y122666D01*
X209670Y123999D01*
X211003Y125332D01*
Y126664D01*
X209670Y123999D02*
X207004D01*
X203005Y126664D02*
X201672Y127997D01*
X199006D01*
X197673Y126664D01*
Y121333D01*
X199006Y120000D01*
X201672D01*
X203005Y121333D01*
Y126664D01*
X188385Y114083D02*
Y122081D01*
X184386D01*
X183053Y120748D01*
Y118082D01*
X184386Y116749D01*
X188385D01*
X185719D02*
X183053Y114083D01*
X180387Y122081D02*
X175056D01*
Y120748D01*
X180387Y115416D01*
Y114083D01*
X172390Y115416D02*
X171057Y114083D01*
X168391D01*
X167058Y115416D01*
Y120748D01*
X168391Y122081D01*
X171057D01*
X172390Y120748D01*
Y119415D01*
X171057Y118082D01*
X167058D01*
X-69350Y36350D02*
Y44347D01*
X-73349D01*
X-74682Y43014D01*
Y40349D01*
X-73349Y39016D01*
X-69350D01*
X-72016D02*
X-74682Y36350D01*
X-77347Y44347D02*
X-82679D01*
Y43014D01*
X-77347Y37683D01*
Y36350D01*
X-89344D02*
Y44347D01*
X-85345Y40349D01*
X-90676D01*
X-99060Y-30480D02*
Y-22483D01*
X-103059D01*
X-104392Y-23816D01*
Y-26481D01*
X-103059Y-27814D01*
X-99060D01*
X-101726D02*
X-104392Y-30480D01*
X-111056D02*
Y-22483D01*
X-107057Y-26481D01*
X-112389D01*
X-115055Y-29147D02*
X-116388Y-30480D01*
X-119054D01*
X-120386Y-29147D01*
Y-23816D01*
X-119054Y-22483D01*
X-116388D01*
X-115055Y-23816D01*
Y-25148D01*
X-116388Y-26481D01*
X-120386D01*
X-77921Y-73660D02*
X-69923D01*
Y-69661D01*
X-71256Y-68328D01*
X-73922D01*
X-75255Y-69661D01*
Y-73660D01*
Y-70994D02*
X-77921Y-68328D01*
Y-61664D02*
X-69923D01*
X-73922Y-65663D01*
Y-60331D01*
X-71256Y-57665D02*
X-69923Y-56332D01*
Y-53666D01*
X-71256Y-52334D01*
X-72589D01*
X-73922Y-53666D01*
X-75255Y-52334D01*
X-76588D01*
X-77921Y-53666D01*
Y-56332D01*
X-76588Y-57665D01*
X-75255D01*
X-73922Y-56332D01*
X-72589Y-57665D01*
X-71256D01*
X-73922Y-56332D02*
Y-53666D01*
X-169208Y47037D02*
Y55034D01*
X-173207D01*
X-174540Y53701D01*
Y51035D01*
X-173207Y49703D01*
X-169208D01*
X-171874D02*
X-174540Y47037D01*
X-177205D02*
X-179871D01*
X-178538D01*
Y55034D01*
X-177205Y53701D01*
X-189202Y55034D02*
X-186536Y53701D01*
X-183870Y51035D01*
Y48370D01*
X-185203Y47037D01*
X-187869D01*
X-189202Y48370D01*
Y49703D01*
X-187869Y51035D01*
X-183870D01*
X-186603Y8234D02*
Y16232D01*
X-190602D01*
X-191935Y14899D01*
Y12233D01*
X-190602Y10900D01*
X-186603D01*
X-189269D02*
X-191935Y8234D01*
X-194601D02*
X-197267D01*
X-195934D01*
Y16232D01*
X-194601Y14899D01*
X-206597Y16232D02*
X-201265D01*
Y12233D01*
X-203931Y13566D01*
X-205264D01*
X-206597Y12233D01*
Y9567D01*
X-205264Y8234D01*
X-202598D01*
X-201265Y9567D01*
X-219962Y-451743D02*
X-217296D01*
X-218629D01*
Y-458407D01*
X-217296Y-459740D01*
X-215963D01*
X-214630Y-458407D01*
X-222627D02*
X-223960Y-459740D01*
X-226626D01*
X-227959Y-458407D01*
Y-453075D01*
X-226626Y-451743D01*
X-223960D01*
X-222627Y-453075D01*
Y-454408D01*
X-223960Y-455741D01*
X-227959D01*
X-103000Y-322153D02*
Y-328817D01*
X-104333Y-330150D01*
X-106999D01*
X-108332Y-328817D01*
Y-322153D01*
X-116329Y-330150D02*
X-110997D01*
X-116329Y-324818D01*
Y-323485D01*
X-114996Y-322153D01*
X-112330D01*
X-110997Y-323485D01*
X-118995D02*
X-120328Y-322153D01*
X-122994D01*
X-124326Y-323485D01*
Y-328817D01*
X-122994Y-330150D01*
X-120328D01*
X-118995Y-328817D01*
Y-323485D01*
X33000Y-320003D02*
Y-326667D01*
X31667Y-328000D01*
X29001D01*
X27668Y-326667D01*
Y-320003D01*
X25003Y-328000D02*
X22337D01*
X23670D01*
Y-320003D01*
X25003Y-321335D01*
X18338Y-320003D02*
X13007D01*
Y-321335D01*
X18338Y-326667D01*
Y-328000D01*
X-44003Y-3000D02*
X-50667D01*
X-52000Y-1667D01*
Y999D01*
X-50667Y2332D01*
X-44003D01*
X-52000Y4997D02*
Y7663D01*
Y6330D01*
X-44003D01*
X-45335Y4997D01*
Y11662D02*
X-44003Y12995D01*
Y15661D01*
X-45335Y16994D01*
X-50667D01*
X-52000Y15661D01*
Y12995D01*
X-50667Y11662D01*
X-45335D01*
X20714Y23467D02*
Y16803D01*
X19381Y15470D01*
X16715D01*
X15382Y16803D01*
Y23467D01*
X12716Y16803D02*
X11383Y15470D01*
X8717D01*
X7384Y16803D01*
Y22134D01*
X8717Y23467D01*
X11383D01*
X12716Y22134D01*
Y20801D01*
X11383Y19468D01*
X7384D01*
X-92332Y-57750D02*
X-90999Y-56417D01*
X-88333D01*
X-87000Y-57750D01*
Y-59083D01*
X-88333Y-60416D01*
X-90999D01*
X-92332Y-61749D01*
Y-63082D01*
X-90999Y-64415D01*
X-88333D01*
X-87000Y-63082D01*
X-94997Y-56417D02*
Y-64415D01*
X-97663Y-61749D01*
X-100329Y-64415D01*
Y-56417D01*
X-102995Y-64415D02*
X-105661D01*
X-104328D01*
Y-56417D01*
X-102995Y-57750D01*
X-214332Y-209003D02*
X-211666D01*
X-212999D01*
Y-215667D01*
X-211666Y-217000D01*
X-210333D01*
X-209000Y-215667D01*
X-220996Y-217000D02*
Y-209003D01*
X-216997Y-213001D01*
X-222329D01*
X208668Y-202003D02*
X211334D01*
X210001D01*
Y-208667D01*
X211334Y-210000D01*
X212667D01*
X214000Y-208667D01*
X206003Y-203335D02*
X204670Y-202003D01*
X202004D01*
X200671Y-203335D01*
Y-204668D01*
X202004Y-206001D01*
X203337D01*
X202004D01*
X200671Y-207334D01*
Y-208667D01*
X202004Y-210000D01*
X204670D01*
X206003Y-208667D01*
X-19332Y297997D02*
X-16666D01*
X-17999D01*
Y291333D01*
X-16666Y290000D01*
X-15333D01*
X-14000Y291333D01*
X-27329Y290000D02*
X-21997D01*
X-27329Y295332D01*
Y296665D01*
X-25996Y297997D01*
X-23330D01*
X-21997Y296665D01*
D12*
X-139700Y-95750D02*
G03*
X-139700Y-94750I0J500D01*
G01*
D02*
G03*
X-139700Y-95750I0J-500D01*
G01*
X-154650Y-66389D02*
G03*
X-153650Y-66389I500J0D01*
G01*
D02*
G03*
X-154650Y-66389I-500J0D01*
G01*
X-113465Y101686D02*
G03*
X-166994Y99802I-26544J-7186D01*
G01*
X-156222Y72287D02*
G03*
X-119723Y75934I16213J22213D01*
G01*
X167610Y94500D02*
G03*
X167610Y94500I-27500J0D01*
G01*
X114500Y-233000D02*
G03*
X114500Y-233000I-27500J0D01*
G01*
X-59500D02*
G03*
X-59500Y-233000I-27500J0D01*
G01*
X81495Y183776D02*
G03*
X81496Y182776I0J-500D01*
G01*
D02*
G03*
X81495Y183776I-0J500D01*
G01*
X-46014Y209575D02*
G03*
X-46014Y209575I488J107D01*
G01*
X-177500Y-3000D02*
Y3000D01*
Y-3000D02*
X-102500D01*
Y1000D01*
X-161020Y39000D02*
X-121484D01*
X-194760Y67000D02*
Y81000D01*
X-225240Y67000D02*
Y81000D01*
X-88000Y-73250D02*
X-81604D01*
X-81084Y-136750D01*
X-87300Y-136750D02*
X-81084Y-136750D01*
X-118500Y-73250D02*
X-112000Y-73250D01*
X-118500Y-73250D02*
X-118500Y-136750D01*
X-111430Y-136750D01*
X-75600Y85080D02*
X-70520D01*
X-75600Y74920D02*
X-70520D01*
X5520Y-233920D02*
X10600D01*
X5520Y-244080D02*
X10600D01*
X5400Y-256080D02*
X10480D01*
X5400Y-245920D02*
X10480D01*
X-211080Y-369174D02*
X-200920D01*
X-169571Y-471580D02*
X-159411D01*
X-169657Y-448920D02*
X-159497D01*
X-71660Y60920D02*
X-66580D01*
X-71660Y71080D02*
X-66580D01*
X77000Y-120750D02*
Y-89250D01*
X94000Y-120750D02*
Y-89250D01*
X78908Y-153500D02*
Y-148420D01*
X66208Y-136360D02*
X75098D01*
X66208Y-165561D02*
X75098D01*
X66208D02*
Y-158580D01*
Y-143340D02*
Y-136360D01*
X-109226Y-41080D02*
X-99066D01*
X-71500Y-127750D02*
Y-96250D01*
X-54500Y-127750D02*
Y-96250D01*
X176680Y-503080D02*
Y-492920D01*
X153820Y-503080D02*
Y-492920D01*
X62468Y-503080D02*
Y-492920D01*
X49680Y-489080D02*
Y-478920D01*
X26820Y-503080D02*
Y-492920D01*
X-69778Y150142D02*
X-66185Y153734D01*
X-66638Y171242D02*
X-60352Y164956D01*
X-87286Y150594D02*
X-81000Y144308D01*
X-87286Y150594D02*
X-82350Y155530D01*
X-71574Y166307D02*
X-66638Y171242D01*
X-54390Y195807D02*
X-46199Y198078D01*
X-52070Y-105000D02*
X-45720Y-99920D01*
X-52070Y-105000D02*
X-45720Y-110080D01*
Y-99920D01*
X10000Y-270000D02*
G03*
X20599Y-280599I5300J-5300D01*
G01*
Y-159401D02*
G03*
X10000Y-170000I-5300J-5300D01*
G01*
X-20599Y-280599D02*
G03*
X-10000Y-270000I5300J5300D01*
G01*
Y-170000D02*
G03*
X-20599Y-159401I-5300J5300D01*
G01*
X45001Y-256200D02*
Y-183800D01*
X20599Y-280599D02*
X45001Y-256200D01*
X20599Y-159401D02*
X45001Y-183800D01*
X10000Y-270000D02*
X30000Y-250000D01*
X10000Y-170000D02*
X30000Y-190000D01*
X-45001Y-256200D02*
Y-183800D01*
Y-256200D02*
X-20599Y-280599D01*
X-30000Y-250000D02*
X-10000Y-270000D01*
X-45001Y-183800D02*
X-20599Y-159401D01*
X-30000Y-190000D02*
X-10000Y-170000D01*
D13*
X-165662Y-113509D02*
G03*
X-165662Y-113509I-500J0D01*
G01*
X-201982Y-43750D02*
G03*
X-201982Y-43750I-500J0D01*
G01*
X179000Y-78143D02*
G03*
X179000Y-78143I-500J0D01*
G01*
X-88993Y18054D02*
X-92325D01*
Y17221D01*
X-88993Y13889D01*
Y13056D01*
X-92325D01*
X-63993Y19054D02*
X-60661Y14056D01*
Y19054D02*
X-63993Y14056D01*
X-83000Y-1002D02*
Y-1835D01*
X-81334Y-3501D01*
X-79668Y-1835D01*
Y-1002D01*
X-81334Y-3501D02*
Y-6000D01*
X60000Y42998D02*
Y42165D01*
X61666Y40499D01*
X63332Y42165D01*
Y42998D01*
X61666Y40499D02*
Y38000D01*
X78000Y24998D02*
X81332Y20000D01*
Y24998D02*
X78000Y20000D01*
X53514Y24448D02*
X50182D01*
Y23616D01*
X53514Y20283D01*
Y19450D01*
X50182D01*
D17*
X-46540Y245725D02*
G03*
X-46540Y245725I197J-34D01*
G01*
X-158713Y159300D02*
X-156592Y157179D01*
X-137500Y180513D02*
X-135379Y178392D01*
X-139621Y140208D02*
X-137500Y138087D01*
X-118408Y161421D02*
X-116287Y159300D01*
X-158713D02*
X-156592Y161421D01*
X-139621Y178392D02*
X-137500Y180513D01*
Y138087D02*
X-135379Y140208D01*
X-118408Y157179D02*
X-116287Y159300D01*
X32100Y-419000D02*
X36000D01*
Y-415100D01*
X-36000Y-419000D02*
X-32100D01*
X-36000D02*
Y-415100D01*
Y-350900D02*
Y-347000D01*
X-32100D01*
X32100D02*
X36000D01*
Y-350900D02*
Y-347000D01*
X-144000Y-318000D02*
X-84000D01*
X-144000Y-268000D02*
X-84000D01*
X-15000Y-62500D02*
X15000D01*
X-42500Y-120000D02*
Y-90000D01*
X-15000Y-147500D02*
X15000D01*
X42500Y-120000D02*
Y-90000D01*
X57500Y-67500D02*
X67500D01*
X62500Y-72500D02*
Y-62500D01*
X55000Y-142500D02*
X65000D01*
D19*
X30000Y-250000D02*
Y-190000D01*
X-30000Y-250000D02*
Y-190000D01*
D101*
X14292Y-214919D02*
G03*
X14292Y-214919I-500J0D01*
G01*
X11570Y-7480D02*
G03*
X11570Y-7480I-250J0D01*
G01*
X-136205Y-13003D02*
X-132872D01*
X-134538D01*
Y-21334D01*
X-132872Y-23000D01*
X-131206D01*
X-129540Y-21334D01*
X-139537Y-23000D02*
X-142869D01*
X-141203D01*
Y-13003D01*
X-139537Y-14669D01*
D102*
X-38973Y18501D02*
G03*
X-38973Y18501I-27J499D01*
G01*
D104*
X199198Y-59260D02*
G03*
X198601Y-59437I-967J2166D01*
G01*
X-153670Y-137160D02*
G03*
X-153670Y-137160I693J2268D01*
G01*
D178*
X85499Y-99383D02*
D03*
X-63000Y-117617D02*
D03*
M02*
