G04*
G04 #@! TF.GenerationSoftware,Altium Limited,Altium Designer,18.1.9 (240)*
G04*
G04 Layer_Color=8388736*
%FSLAX44Y44*%
%MOMM*%
G71*
G01*
G75*
%ADD12C,0.1000*%
%ADD19C,0.1001*%
%ADD20R,0.5100X0.6000*%
%ADD21C,1.0000*%
G04:AMPARAMS|DCode=22|XSize=0.5mm|YSize=0.35mm|CornerRadius=0mm|HoleSize=0mm|Usage=FLASHONLY|Rotation=221.874|XOffset=0mm|YOffset=0mm|HoleType=Round|Shape=Rectangle|*
%AMROTATEDRECTD22*
4,1,4,0.0693,0.2972,0.3030,0.0366,-0.0693,-0.2972,-0.3030,-0.0366,0.0693,0.2972,0.0*
%
%ADD22ROTATEDRECTD22*%

%ADD24R,2.4000X3.0500*%
%ADD25R,0.3000X0.8000*%
G04:AMPARAMS|DCode=26|XSize=1.2mm|YSize=0.6mm|CornerRadius=0mm|HoleSize=0mm|Usage=FLASHONLY|Rotation=105.969|XOffset=0mm|YOffset=0mm|HoleType=Round|Shape=Rectangle|*
%AMROTATEDRECTD26*
4,1,4,0.4535,-0.4943,-0.1234,-0.6594,-0.4535,0.4943,0.1234,0.6594,0.4535,-0.4943,0.0*
%
%ADD26ROTATEDRECTD26*%

G04:AMPARAMS|DCode=27|XSize=0.25mm|YSize=0.08mm|CornerRadius=0mm|HoleSize=0mm|Usage=FLASHONLY|Rotation=199.000|XOffset=0mm|YOffset=0mm|HoleType=Round|Shape=Rectangle|*
%AMROTATEDRECTD27*
4,1,4,0.1052,0.0785,0.1312,0.0029,-0.1052,-0.0785,-0.1312,-0.0029,0.1052,0.0785,0.0*
%
%ADD27ROTATEDRECTD27*%

%ADD28P,0.7071X4X244.0*%
%ADD29R,0.7000X0.4000*%
%ADD30R,0.5500X1.0500*%
%ADD31R,0.4000X0.4800*%
%ADD32R,0.3750X0.4170*%
%ADD33R,0.8000X1.0000*%
%ADD34R,2.0000X1.1000*%
%ADD35R,0.6200X0.6500*%
%ADD36R,0.6000X0.5100*%
%ADD37R,3.0000X1.0000*%
%ADD38R,0.8890X1.0414*%
%ADD39R,0.6500X0.6200*%
G04:AMPARAMS|DCode=41|XSize=0.72mm|YSize=0.6mm|CornerRadius=0mm|HoleSize=0mm|Usage=FLASHONLY|Rotation=323.838|XOffset=0mm|YOffset=0mm|HoleType=Round|Shape=Rectangle|*
%AMROTATEDRECTD41*
4,1,4,-0.4677,-0.0298,-0.1136,0.4546,0.4677,0.0298,0.1136,-0.4546,-0.4677,-0.0298,0.0*
%
%ADD41ROTATEDRECTD41*%

%ADD42P,1.1314X4X338.0*%
%ADD43P,1.1314X4X341.0*%
%ADD44P,1.1314X4X144.5*%
%ADD45R,2.8000X1.0000*%
%ADD46R,0.8000X0.8000*%
%ADD47R,2.3000X0.3500*%
%ADD48R,0.3500X1.3000*%
%ADD49R,0.9500X0.4000*%
%ADD50R,1.5000X4.4000*%
%ADD51R,1.1176X1.7526*%
%ADD52R,4.0000X1.7000*%
%ADD53R,5.0000X2.0000*%
%ADD54R,1.0000X6.1470*%
%ADD55R,1.0000X3.0000*%
%ADD56R,0.4800X0.4000*%
%ADD57R,0.4170X0.3750*%
G04:AMPARAMS|DCode=58|XSize=0.51mm|YSize=0.6mm|CornerRadius=0mm|HoleSize=0mm|Usage=FLASHONLY|Rotation=135.000|XOffset=0mm|YOffset=0mm|HoleType=Round|Shape=Rectangle|*
%AMROTATEDRECTD58*
4,1,4,0.3925,0.0318,-0.0318,-0.3925,-0.3925,-0.0318,0.0318,0.3925,0.3925,0.0318,0.0*
%
%ADD58ROTATEDRECTD58*%

G04:AMPARAMS|DCode=59|XSize=0.51mm|YSize=0.6mm|CornerRadius=0mm|HoleSize=0mm|Usage=FLASHONLY|Rotation=45.000|XOffset=0mm|YOffset=0mm|HoleType=Round|Shape=Rectangle|*
%AMROTATEDRECTD59*
4,1,4,0.0318,-0.3925,-0.3925,0.0318,-0.0318,0.3925,0.3925,-0.0318,0.0318,-0.3925,0.0*
%
%ADD59ROTATEDRECTD59*%

G04:AMPARAMS|DCode=60|XSize=0.51mm|YSize=0.6mm|CornerRadius=0mm|HoleSize=0mm|Usage=FLASHONLY|Rotation=110.000|XOffset=0mm|YOffset=0mm|HoleType=Round|Shape=Rectangle|*
%AMROTATEDRECTD60*
4,1,4,0.3691,-0.1370,-0.1947,-0.3422,-0.3691,0.1370,0.1947,0.3422,0.3691,-0.1370,0.0*
%
%ADD60ROTATEDRECTD60*%

G04:AMPARAMS|DCode=61|XSize=0.51mm|YSize=0.6mm|CornerRadius=0mm|HoleSize=0mm|Usage=FLASHONLY|Rotation=102.500|XOffset=0mm|YOffset=0mm|HoleType=Round|Shape=Rectangle|*
%AMROTATEDRECTD61*
4,1,4,0.3481,-0.1840,-0.2377,-0.3139,-0.3481,0.1840,0.2377,0.3139,0.3481,-0.1840,0.0*
%
%ADD61ROTATEDRECTD61*%

G04:AMPARAMS|DCode=62|XSize=0.51mm|YSize=0.6mm|CornerRadius=0mm|HoleSize=0mm|Usage=FLASHONLY|Rotation=212.703|XOffset=0mm|YOffset=0mm|HoleType=Round|Shape=Rectangle|*
%AMROTATEDRECTD62*
4,1,4,0.0525,0.3902,0.3767,-0.1147,-0.0525,-0.3902,-0.3767,0.1147,0.0525,0.3902,0.0*
%
%ADD62ROTATEDRECTD62*%

G04:AMPARAMS|DCode=63|XSize=0.65mm|YSize=0.62mm|CornerRadius=0mm|HoleSize=0mm|Usage=FLASHONLY|Rotation=135.000|XOffset=0mm|YOffset=0mm|HoleType=Round|Shape=Rectangle|*
%AMROTATEDRECTD63*
4,1,4,0.4490,-0.0106,0.0106,-0.4490,-0.4490,0.0106,-0.0106,0.4490,0.4490,-0.0106,0.0*
%
%ADD63ROTATEDRECTD63*%

G04:AMPARAMS|DCode=64|XSize=0.65mm|YSize=0.62mm|CornerRadius=0mm|HoleSize=0mm|Usage=FLASHONLY|Rotation=225.000|XOffset=0mm|YOffset=0mm|HoleType=Round|Shape=Rectangle|*
%AMROTATEDRECTD64*
4,1,4,0.0106,0.4490,0.4490,0.0106,-0.0106,-0.4490,-0.4490,-0.0106,0.0106,0.4490,0.0*
%
%ADD64ROTATEDRECTD64*%

G04:AMPARAMS|DCode=65|XSize=0.65mm|YSize=0.62mm|CornerRadius=0mm|HoleSize=0mm|Usage=FLASHONLY|Rotation=233.000|XOffset=0mm|YOffset=0mm|HoleType=Round|Shape=Rectangle|*
%AMROTATEDRECTD65*
4,1,4,-0.0520,0.4461,0.4432,0.0730,0.0520,-0.4461,-0.4432,-0.0730,-0.0520,0.4461,0.0*
%
%ADD65ROTATEDRECTD65*%

%ADD66R,0.6000X1.1000*%
%ADD67R,0.9000X0.9500*%
%ADD68R,1.0414X0.8890*%
%ADD69R,1.0000X0.6500*%
%ADD70R,2.7940X1.5240*%
%ADD71R,1.1000X1.1000*%
%ADD72R,1.1000X0.6000*%
%ADD73R,0.3000X0.8750*%
%ADD75R,0.8750X0.3000*%
%ADD76R,0.3000X0.5250*%
%ADD77R,0.4250X0.3000*%
G04:AMPARAMS|DCode=78|XSize=1.35mm|YSize=1mm|CornerRadius=0mm|HoleSize=0mm|Usage=FLASHONLY|Rotation=315.000|XOffset=0mm|YOffset=0mm|HoleType=Round|Shape=Rectangle|*
%AMROTATEDRECTD78*
4,1,4,-0.8309,0.1237,-0.1237,0.8309,0.8309,-0.1237,0.1237,-0.8309,-0.8309,0.1237,0.0*
%
%ADD78ROTATEDRECTD78*%

G04:AMPARAMS|DCode=79|XSize=2mm|YSize=1.8mm|CornerRadius=0mm|HoleSize=0mm|Usage=FLASHONLY|Rotation=315.000|XOffset=0mm|YOffset=0mm|HoleType=Round|Shape=Rectangle|*
%AMROTATEDRECTD79*
4,1,4,-1.3435,0.0707,-0.0707,1.3435,1.3435,-0.0707,0.0707,-1.3435,-1.3435,0.0707,0.0*
%
%ADD79ROTATEDRECTD79*%

G04:AMPARAMS|DCode=80|XSize=1.55mm|YSize=1mm|CornerRadius=0mm|HoleSize=0mm|Usage=FLASHONLY|Rotation=135.000|XOffset=0mm|YOffset=0mm|HoleType=Round|Shape=Rectangle|*
%AMROTATEDRECTD80*
4,1,4,0.9016,-0.1945,0.1945,-0.9016,-0.9016,0.1945,-0.1945,0.9016,0.9016,-0.1945,0.0*
%
%ADD80ROTATEDRECTD80*%

%ADD81R,1.0000X1.5500*%
G04:AMPARAMS|DCode=82|XSize=0.45mm|YSize=0.475mm|CornerRadius=0mm|HoleSize=0mm|Usage=FLASHONLY|Rotation=303.000|XOffset=0mm|YOffset=0mm|HoleType=Round|Shape=Rectangle|*
%AMROTATEDRECTD82*
4,1,4,-0.3217,0.0594,0.0766,0.3181,0.3217,-0.0594,-0.0766,-0.3181,-0.3217,0.0594,0.0*
%
%ADD82ROTATEDRECTD82*%

G04:AMPARAMS|DCode=83|XSize=0.475mm|YSize=0.45mm|CornerRadius=0mm|HoleSize=0mm|Usage=FLASHONLY|Rotation=303.000|XOffset=0mm|YOffset=0mm|HoleType=Round|Shape=Rectangle|*
%AMROTATEDRECTD83*
4,1,4,-0.3181,0.0766,0.0594,0.3217,0.3181,-0.0766,-0.0594,-0.3217,-0.3181,0.0766,0.0*
%
%ADD83ROTATEDRECTD83*%

%ADD84R,2.6000X1.5000*%
G04:AMPARAMS|DCode=85|XSize=0.9mm|YSize=4.55mm|CornerRadius=0.1755mm|HoleSize=0mm|Usage=FLASHONLY|Rotation=90.000|XOffset=0mm|YOffset=0mm|HoleType=Round|Shape=RoundedRectangle|*
%AMROUNDEDRECTD85*
21,1,0.9000,4.1990,0,0,90.0*
21,1,0.5490,4.5500,0,0,90.0*
1,1,0.3510,2.0995,0.2745*
1,1,0.3510,2.0995,-0.2745*
1,1,0.3510,-2.0995,-0.2745*
1,1,0.3510,-2.0995,0.2745*
%
%ADD85ROUNDEDRECTD85*%
G04:AMPARAMS|DCode=86|XSize=0.9mm|YSize=5.05mm|CornerRadius=0.1755mm|HoleSize=0mm|Usage=FLASHONLY|Rotation=90.000|XOffset=0mm|YOffset=0mm|HoleType=Round|Shape=RoundedRectangle|*
%AMROUNDEDRECTD86*
21,1,0.9000,4.6990,0,0,90.0*
21,1,0.5490,5.0500,0,0,90.0*
1,1,0.3510,2.3495,0.2745*
1,1,0.3510,2.3495,-0.2745*
1,1,0.3510,-2.3495,-0.2745*
1,1,0.3510,-2.3495,0.2745*
%
%ADD86ROUNDEDRECTD86*%
%ADD87P,1.5132X4X129.0*%
%ADD88C,1.0700*%
%ADD89C,1.5000*%
G04:AMPARAMS|DCode=90|XSize=1.05mm|YSize=2.15mm|CornerRadius=0mm|HoleSize=0mm|Usage=FLASHONLY|Rotation=13.909|XOffset=0mm|YOffset=0mm|HoleType=Round|Shape=Round|*
%AMOVALD90*
21,1,1.1000,1.0500,0.0000,0.0000,103.9*
1,1,1.0500,0.1322,-0.5339*
1,1,1.0500,-0.1322,0.5339*
%
%ADD90OVALD90*%

%ADD91C,5.0000*%
%ADD92R,1.0700X1.0700*%
%ADD93C,3.0000*%
G04:AMPARAMS|DCode=94|XSize=0.7mm|YSize=1.5mm|CornerRadius=0.35mm|HoleSize=0mm|Usage=FLASHONLY|Rotation=90.000|XOffset=0mm|YOffset=0mm|HoleType=Round|Shape=RoundedRectangle|*
%AMROUNDEDRECTD94*
21,1,0.7000,0.8000,0,0,90.0*
21,1,0.0000,1.5000,0,0,90.0*
1,1,0.7000,0.4000,0.0000*
1,1,0.7000,0.4000,0.0000*
1,1,0.7000,-0.4000,0.0000*
1,1,0.7000,-0.4000,0.0000*
%
%ADD94ROUNDEDRECTD94*%
%ADD95C,1.1000*%
%ADD96C,0.6500*%
%ADD97C,0.7500*%
%ADD98C,1.0500*%
G36*
X185701Y243567D02*
X172161Y222314D01*
X170798Y220175D01*
X167291Y216511D01*
X163136Y213601D01*
X158493Y211558D01*
X153541Y210461D01*
X148470Y210350D01*
X143475Y211231D01*
X138747Y213069D01*
X134469Y215795D01*
X130805Y219302D01*
X127896Y223457D01*
X125853Y228100D01*
X124755Y233052D01*
X124644Y238123D01*
X125525Y243118D01*
X127364Y247846D01*
X128726Y249985D01*
X142266Y271238D01*
X185701Y243567D01*
D02*
G37*
G36*
X-128606Y249795D02*
X-127262Y247644D01*
X-125465Y242901D01*
X-124628Y237898D01*
X-124783Y232828D01*
X-125924Y227885D01*
X-128007Y223261D01*
X-130953Y219131D01*
X-134647Y215656D01*
X-138949Y212968D01*
X-143692Y211171D01*
X-148695Y210334D01*
X-153765Y210489D01*
X-158707Y211630D01*
X-163332Y213713D01*
X-167461Y216658D01*
X-170937Y220353D01*
X-172281Y222504D01*
X-172281Y222504D01*
X-185635Y243874D01*
X-141960Y271165D01*
X-128606Y249795D01*
D02*
G37*
G36*
X-5250Y203477D02*
X-3628Y202541D01*
X-2304Y201217D01*
X-1368Y199595D01*
X-883Y197786D01*
Y195914D01*
X-1368Y194105D01*
X-2304Y192483D01*
X-2966Y191821D01*
X-3628Y191159D01*
X-5250Y190223D01*
X-7059Y189738D01*
X-8931D01*
X-10740Y190223D01*
X-12362Y191159D01*
X-13686Y192483D01*
X-14622Y194105D01*
X-15107Y195914D01*
Y197786D01*
X-14622Y199595D01*
X-13686Y201217D01*
X-13024Y201879D01*
X-12362Y202541D01*
X-10740Y203477D01*
X-8931Y203962D01*
X-7059D01*
X-5250Y203477D01*
D02*
G37*
G36*
X234016Y197601D02*
X216197Y179781D01*
X214404Y177988D01*
X210187Y175170D01*
X205501Y173229D01*
X200526Y172239D01*
X195453D01*
X190478Y173229D01*
X185792Y175170D01*
X181575Y177988D01*
X177988Y181575D01*
X175170Y185792D01*
X173229Y190478D01*
X172239Y195453D01*
Y200526D01*
X173229Y205501D01*
X175170Y210187D01*
X177988Y214404D01*
X179781Y216197D01*
X179781D01*
X197601Y234017D01*
X234016Y197601D01*
D02*
G37*
G36*
X-179781Y216197D02*
X-177988Y214404D01*
X-175170Y210187D01*
X-173229Y205501D01*
X-172239Y200526D01*
Y195453D01*
X-173229Y190478D01*
X-175170Y185792D01*
X-177988Y181575D01*
X-181575Y177988D01*
X-185792Y175170D01*
X-190478Y173229D01*
X-195453Y172239D01*
X-200526D01*
X-205501Y173229D01*
X-210187Y175170D01*
X-214404Y177988D01*
X-216197Y179781D01*
X-216197Y179781D01*
X-234017Y197601D01*
X-197601Y234016D01*
X-179781Y216197D01*
D02*
G37*
G36*
X271238Y142266D02*
X249985Y128726D01*
X247846Y127364D01*
X243118Y125525D01*
X238123Y124644D01*
X233052Y124755D01*
X228100Y125853D01*
X223457Y127896D01*
X219302Y130805D01*
X215795Y134469D01*
X213069Y138747D01*
X211231Y143475D01*
X210350Y148470D01*
X210461Y153541D01*
X211558Y158493D01*
X213601Y163136D01*
X216511Y167291D01*
X220175Y170798D01*
X222314Y172161D01*
X222314Y172161D01*
X243567Y185701D01*
X271238Y142266D01*
D02*
G37*
G36*
X-222314Y172161D02*
X-220175Y170798D01*
X-216511Y167291D01*
X-213601Y163136D01*
X-211558Y158493D01*
X-210461Y153541D01*
X-210350Y148470D01*
X-211231Y143475D01*
X-213069Y138747D01*
X-215795Y134469D01*
X-219302Y130805D01*
X-223457Y127896D01*
X-228100Y125853D01*
X-233052Y124755D01*
X-238123Y124644D01*
X-243118Y125525D01*
X-247846Y127364D01*
X-249985Y128726D01*
X-249985D01*
X-271238Y142266D01*
X-243567Y185701D01*
X-222314Y172161D01*
D02*
G37*
G36*
X295601Y80187D02*
X271920Y71568D01*
X269537Y70701D01*
X264524Y69929D01*
X259457Y70151D01*
X254529Y71356D01*
X249932Y73500D01*
X245842Y76499D01*
X242415Y80239D01*
X239784Y84575D01*
X238049Y89342D01*
X237277Y94355D01*
X237499Y99422D01*
X238704Y104349D01*
X240848Y108946D01*
X243847Y113037D01*
X247587Y116464D01*
X251923Y119095D01*
X254306Y119963D01*
Y119963D01*
X277987Y128581D01*
X295601Y80187D01*
D02*
G37*
G36*
X-254306Y119963D02*
X-251923Y119095D01*
X-247587Y116464D01*
X-243847Y113037D01*
X-240848Y108946D01*
X-238704Y104349D01*
X-237499Y99422D01*
X-237277Y94355D01*
X-238049Y89342D01*
X-239784Y84575D01*
X-242415Y80239D01*
X-245842Y76499D01*
X-249932Y73500D01*
X-254529Y71356D01*
X-259457Y70151D01*
X-264524Y69929D01*
X-269537Y70701D01*
X-271920Y71568D01*
X-295601Y80187D01*
X-277987Y128581D01*
X-254306Y119963D01*
D02*
G37*
G36*
X236050Y-467083D02*
X237672Y-468019D01*
X238996Y-469343D01*
X239932Y-470965D01*
X240417Y-472774D01*
Y-474646D01*
X239932Y-476455D01*
X238996Y-478077D01*
X238334Y-478739D01*
X237672Y-479401D01*
X236050Y-480337D01*
X234241Y-480822D01*
X232369D01*
X230560Y-480337D01*
X228938Y-479401D01*
X227614Y-478077D01*
X226678Y-476455D01*
X226193Y-474646D01*
Y-472774D01*
X226678Y-470965D01*
X227614Y-469343D01*
X228276Y-468681D01*
X228938Y-468019D01*
X230560Y-467083D01*
X232369Y-466598D01*
X234241D01*
X236050Y-467083D01*
D02*
G37*
G36*
X-196700Y-610735D02*
X-203750D01*
X-204314Y-608195D01*
X-205750Y-601735D01*
X-225750D01*
X-226339Y-604385D01*
X-227750Y-610735D01*
X-234800D01*
Y-562475D01*
X-196700D01*
Y-610735D01*
D02*
G37*
G36*
X235100Y-610845D02*
X228050D01*
X227486Y-608305D01*
X226050Y-601845D01*
X206050D01*
X205461Y-604495D01*
X204050Y-610845D01*
X197000D01*
Y-562585D01*
X235100D01*
Y-610845D01*
D02*
G37*
G36*
X133500D02*
X126450D01*
X125886Y-608305D01*
X124450Y-601845D01*
X104450D01*
X103861Y-604495D01*
X102450Y-610845D01*
X95400D01*
Y-562585D01*
X133500D01*
Y-610845D01*
D02*
G37*
G36*
X19200D02*
X12150D01*
X11586Y-608305D01*
X10150Y-601845D01*
X-9850D01*
X-10439Y-604495D01*
X-11850Y-610845D01*
X-18900D01*
Y-562585D01*
X19200D01*
Y-610845D01*
D02*
G37*
G36*
X-95100D02*
X-102150D01*
X-102714Y-608305D01*
X-104150Y-601845D01*
X-124150D01*
X-124739Y-604495D01*
X-126150Y-610845D01*
X-133200D01*
Y-562585D01*
X-95100D01*
Y-610845D01*
D02*
G37*
G36*
X331051Y-928177D02*
X330785D01*
Y-928162D01*
Y-928132D01*
X330770Y-928088D01*
X330755Y-928014D01*
X330726Y-927851D01*
X330681Y-927629D01*
X330622Y-927392D01*
X330533Y-927140D01*
X330444Y-926889D01*
X330326Y-926666D01*
X330311Y-926637D01*
X330267Y-926578D01*
X330193Y-926474D01*
X330089Y-926341D01*
X329956Y-926207D01*
X329793Y-926059D01*
X329615Y-925911D01*
X329393Y-925778D01*
X329363Y-925763D01*
X329289Y-925719D01*
X329171Y-925674D01*
X329008Y-925600D01*
X328815Y-925541D01*
X328608Y-925497D01*
X328371Y-925452D01*
X328134Y-925437D01*
X328016D01*
X327883Y-925467D01*
X327705Y-925497D01*
X327512Y-925556D01*
X327305Y-925630D01*
X327113Y-925748D01*
X326920Y-925896D01*
X326905Y-925911D01*
X326846Y-925970D01*
X326772Y-926074D01*
X326683Y-926192D01*
X326594Y-926341D01*
X326520Y-926518D01*
X326461Y-926711D01*
X326446Y-926918D01*
Y-926933D01*
Y-926992D01*
X326461Y-927066D01*
X326491Y-927185D01*
X326520Y-927303D01*
X326565Y-927436D01*
X326639Y-927570D01*
X326742Y-927718D01*
X326772Y-927747D01*
X326802Y-927777D01*
X326831Y-927807D01*
X326890Y-927866D01*
X326964Y-927925D01*
X327068Y-927999D01*
X327172Y-928088D01*
X327305Y-928177D01*
X327453Y-928295D01*
X327616Y-928399D01*
X327808Y-928532D01*
X328031Y-928665D01*
X328268Y-928814D01*
X328534Y-928962D01*
X328830Y-929125D01*
X328845Y-929139D01*
X328890Y-929154D01*
X328964Y-929199D01*
X329052Y-929243D01*
X329156Y-929302D01*
X329275Y-929376D01*
X329556Y-929539D01*
X329867Y-929717D01*
X330163Y-929895D01*
X330430Y-930072D01*
X330548Y-930161D01*
X330652Y-930235D01*
X330681Y-930250D01*
X330741Y-930309D01*
X330829Y-930383D01*
X330933Y-930487D01*
X331066Y-930620D01*
X331185Y-930783D01*
X331318Y-930946D01*
X331422Y-931138D01*
X331437Y-931168D01*
X331466Y-931227D01*
X331511Y-931331D01*
X331555Y-931464D01*
X331599Y-931627D01*
X331644Y-931820D01*
X331674Y-932027D01*
X331688Y-932234D01*
Y-932249D01*
Y-932279D01*
Y-932338D01*
X331674Y-932412D01*
X331659Y-932516D01*
X331644Y-932619D01*
X331585Y-932871D01*
X331481Y-933167D01*
X331422Y-933315D01*
X331333Y-933478D01*
X331229Y-933641D01*
X331126Y-933789D01*
X330992Y-933952D01*
X330844Y-934100D01*
X330829Y-934115D01*
X330800Y-934130D01*
X330755Y-934174D01*
X330696Y-934219D01*
X330607Y-934278D01*
X330504Y-934352D01*
X330385Y-934426D01*
X330252Y-934485D01*
X330104Y-934559D01*
X329941Y-934633D01*
X329571Y-934766D01*
X329141Y-934855D01*
X328919Y-934870D01*
X328667Y-934885D01*
X328519D01*
X328416Y-934870D01*
X328297D01*
X328164Y-934855D01*
X327883Y-934811D01*
X327868D01*
X327838Y-934796D01*
X327779D01*
X327690Y-934766D01*
X327572Y-934737D01*
X327409Y-934692D01*
X327216Y-934633D01*
X326979Y-934559D01*
X326950Y-934544D01*
X326876Y-934529D01*
X326757Y-934485D01*
X326624Y-934441D01*
X326476Y-934411D01*
X326328Y-934367D01*
X326209Y-934352D01*
X326120Y-934337D01*
X326091D01*
X326017Y-934352D01*
X325928Y-934381D01*
X325839Y-934455D01*
X325824Y-934470D01*
X325809Y-934500D01*
X325780Y-934544D01*
X325765Y-934604D01*
X325735Y-934678D01*
X325706Y-934766D01*
X325691Y-934885D01*
X325424D01*
Y-931612D01*
X325691D01*
Y-931627D01*
X325706Y-931657D01*
Y-931716D01*
X325721Y-931775D01*
X325735Y-931864D01*
X325765Y-931968D01*
X325824Y-932190D01*
X325883Y-932442D01*
X325972Y-932708D01*
X326076Y-932945D01*
X326180Y-933167D01*
X326194Y-933182D01*
X326239Y-933256D01*
X326313Y-933345D01*
X326417Y-933463D01*
X326550Y-933597D01*
X326713Y-933730D01*
X326905Y-933878D01*
X327127Y-934011D01*
X327142D01*
X327157Y-934026D01*
X327246Y-934056D01*
X327364Y-934115D01*
X327542Y-934174D01*
X327749Y-934233D01*
X327986Y-934293D01*
X328238Y-934322D01*
X328519Y-934337D01*
X328608D01*
X328667Y-934322D01*
X328830Y-934307D01*
X329023Y-934278D01*
X329245Y-934219D01*
X329482Y-934145D01*
X329704Y-934026D01*
X329911Y-933878D01*
X329941Y-933863D01*
X330000Y-933789D01*
X330074Y-933700D01*
X330178Y-933567D01*
X330267Y-933404D01*
X330355Y-933212D01*
X330415Y-933004D01*
X330430Y-932767D01*
Y-932753D01*
Y-932708D01*
X330415Y-932634D01*
X330400Y-932545D01*
X330385Y-932442D01*
X330341Y-932323D01*
X330296Y-932190D01*
X330222Y-932057D01*
X330207Y-932042D01*
X330193Y-931997D01*
X330133Y-931923D01*
X330074Y-931834D01*
X330000Y-931731D01*
X329897Y-931627D01*
X329778Y-931509D01*
X329630Y-931390D01*
X329615Y-931375D01*
X329571Y-931346D01*
X329482Y-931286D01*
X329334Y-931198D01*
X329245Y-931138D01*
X329141Y-931064D01*
X329008Y-930990D01*
X328875Y-930916D01*
X328712Y-930827D01*
X328534Y-930724D01*
X328342Y-930605D01*
X328120Y-930487D01*
X328105Y-930472D01*
X328060Y-930457D01*
X328001Y-930428D01*
X327927Y-930368D01*
X327823Y-930309D01*
X327705Y-930250D01*
X327438Y-930087D01*
X327157Y-929924D01*
X326861Y-929732D01*
X326594Y-929554D01*
X326476Y-929465D01*
X326372Y-929391D01*
X326343Y-929376D01*
X326283Y-929317D01*
X326194Y-929228D01*
X326076Y-929125D01*
X325957Y-928991D01*
X325824Y-928828D01*
X325691Y-928665D01*
X325587Y-928488D01*
X325573Y-928458D01*
X325543Y-928399D01*
X325499Y-928295D01*
X325454Y-928162D01*
X325410Y-928014D01*
X325365Y-927821D01*
X325336Y-927629D01*
X325321Y-927407D01*
Y-927392D01*
Y-927362D01*
Y-927303D01*
X325336Y-927229D01*
X325350Y-927140D01*
X325365Y-927037D01*
X325424Y-926800D01*
X325513Y-926518D01*
X325647Y-926222D01*
X325735Y-926074D01*
X325854Y-925911D01*
X325972Y-925778D01*
X326106Y-925630D01*
X326120Y-925615D01*
X326135Y-925600D01*
X326180Y-925556D01*
X326254Y-925511D01*
X326328Y-925452D01*
X326417Y-925393D01*
X326535Y-925319D01*
X326654Y-925245D01*
X326950Y-925111D01*
X327290Y-924993D01*
X327675Y-924904D01*
X327897Y-924889D01*
X328120Y-924875D01*
X328253D01*
X328401Y-924889D01*
X328608Y-924919D01*
X328845Y-924963D01*
X329127Y-925038D01*
X329423Y-925126D01*
X329734Y-925260D01*
X329748D01*
X329793Y-925289D01*
X329867Y-925304D01*
X329956Y-925334D01*
X330133Y-925393D01*
X330222Y-925408D01*
X330296Y-925423D01*
X330326D01*
X330400Y-925408D01*
X330504Y-925378D01*
X330592Y-925319D01*
X330607Y-925304D01*
X330637Y-925274D01*
X330667Y-925230D01*
X330696Y-925171D01*
X330726Y-925082D01*
X330755Y-924993D01*
X330785Y-924875D01*
X331051D01*
Y-928177D01*
D02*
G37*
G36*
X369908Y-927199D02*
X369627D01*
Y-927185D01*
Y-927170D01*
X369597Y-927081D01*
X369568Y-926948D01*
X369523Y-926785D01*
X369479Y-926607D01*
X369420Y-926444D01*
X369346Y-926281D01*
X369286Y-926163D01*
X369272Y-926148D01*
X369257Y-926118D01*
X369212Y-926059D01*
X369153Y-926000D01*
X369079Y-925941D01*
X368990Y-925867D01*
X368872Y-925793D01*
X368753Y-925733D01*
X368738D01*
X368694Y-925719D01*
X368620Y-925689D01*
X368531Y-925674D01*
X368383Y-925645D01*
X368220Y-925630D01*
X368013Y-925615D01*
X365140D01*
Y-929391D01*
X367391D01*
X367524Y-929376D01*
X367702Y-929361D01*
X367879Y-929332D01*
X368057Y-929287D01*
X368220Y-929228D01*
X368339Y-929154D01*
X368353Y-929139D01*
X368398Y-929095D01*
X368457Y-929006D01*
X368531Y-928888D01*
X368605Y-928725D01*
X368664Y-928532D01*
X368724Y-928280D01*
X368753Y-927999D01*
X369020D01*
Y-931331D01*
X368753D01*
Y-931316D01*
Y-931301D01*
X368738Y-931212D01*
X368709Y-931094D01*
X368694Y-930961D01*
X368664Y-930813D01*
X368620Y-930665D01*
X368590Y-930531D01*
X368546Y-930443D01*
Y-930428D01*
X368516Y-930398D01*
X368457Y-930309D01*
X368398Y-930250D01*
X368324Y-930176D01*
X368235Y-930117D01*
X368131Y-930057D01*
X368116D01*
X368072Y-930028D01*
X368013Y-930013D01*
X367924Y-929983D01*
X367791Y-929954D01*
X367643Y-929939D01*
X367465Y-929909D01*
X365140D01*
Y-933078D01*
Y-933108D01*
Y-933182D01*
Y-933286D01*
Y-933419D01*
X365155Y-933552D01*
Y-933671D01*
X365170Y-933789D01*
X365184Y-933863D01*
X365199Y-933878D01*
X365229Y-933937D01*
X365288Y-934011D01*
X365377Y-934071D01*
X365392D01*
X365407Y-934085D01*
X365451Y-934100D01*
X365495D01*
X365569Y-934115D01*
X365673Y-934130D01*
X365792Y-934145D01*
X367835D01*
X368013Y-934130D01*
X368205Y-934115D01*
X368398Y-934100D01*
X368576Y-934071D01*
X368738Y-934041D01*
X368753D01*
X368798Y-934011D01*
X368872Y-933982D01*
X368960Y-933937D01*
X369079Y-933878D01*
X369198Y-933804D01*
X369316Y-933715D01*
X369449Y-933597D01*
X369464Y-933582D01*
X369523Y-933508D01*
X369612Y-933404D01*
X369731Y-933256D01*
X369864Y-933078D01*
X370012Y-932841D01*
X370175Y-932575D01*
X370353Y-932264D01*
X370634D01*
X369805Y-934663D01*
X362430D01*
Y-934396D01*
X362815D01*
X362874Y-934381D01*
X362963D01*
X363171Y-934337D01*
X363393Y-934248D01*
X363408D01*
X363437Y-934219D01*
X363526Y-934159D01*
X363630Y-934056D01*
X363674Y-933982D01*
X363704Y-933908D01*
Y-933893D01*
X363718Y-933863D01*
X363733Y-933804D01*
X363748Y-933700D01*
X363763Y-933582D01*
X363778Y-933419D01*
X363792Y-933212D01*
Y-932975D01*
Y-926755D01*
Y-926740D01*
Y-926711D01*
Y-926666D01*
Y-926607D01*
X363778Y-926459D01*
X363763Y-926281D01*
X363748Y-926089D01*
X363718Y-925911D01*
X363659Y-925748D01*
X363630Y-925689D01*
X363600Y-925645D01*
X363585Y-925630D01*
X363555Y-925600D01*
X363496Y-925556D01*
X363408Y-925497D01*
X363289Y-925452D01*
X363141Y-925408D01*
X362963Y-925378D01*
X362756Y-925363D01*
X362430D01*
Y-925097D01*
X369805D01*
X369908Y-927199D01*
D02*
G37*
G36*
X301998Y-927333D02*
X301716D01*
Y-927303D01*
X301702Y-927229D01*
X301687Y-927125D01*
X301657Y-927007D01*
X301598Y-926726D01*
X301554Y-926592D01*
X301509Y-926489D01*
X301494Y-926474D01*
X301465Y-926429D01*
X301420Y-926355D01*
X301346Y-926266D01*
X301272Y-926163D01*
X301169Y-926074D01*
X301050Y-925970D01*
X300917Y-925896D01*
X300902Y-925882D01*
X300858Y-925867D01*
X300769Y-925837D01*
X300665Y-925793D01*
X300532Y-925748D01*
X300369Y-925719D01*
X300176Y-925704D01*
X299969Y-925689D01*
X298636D01*
Y-933004D01*
Y-933019D01*
Y-933049D01*
Y-933093D01*
Y-933152D01*
X298651Y-933300D01*
X298666Y-933478D01*
X298681Y-933671D01*
X298710Y-933848D01*
X298755Y-933996D01*
X298785Y-934071D01*
X298814Y-934115D01*
X298829Y-934130D01*
X298859Y-934159D01*
X298932Y-934204D01*
X299021Y-934248D01*
X299140Y-934307D01*
X299273Y-934352D01*
X299451Y-934381D01*
X299643Y-934396D01*
X299984D01*
Y-934663D01*
X295926D01*
Y-934396D01*
X296371D01*
X296474Y-934381D01*
X296608Y-934352D01*
X296741Y-934307D01*
X296889Y-934248D01*
X297022Y-934159D01*
X297126Y-934041D01*
X297141Y-934026D01*
X297156Y-933996D01*
X297185Y-933922D01*
X297215Y-933833D01*
X297244Y-933686D01*
X297259Y-933508D01*
X297289Y-933286D01*
Y-933004D01*
Y-925689D01*
X295912D01*
X295764Y-925704D01*
X295453Y-925733D01*
X295305Y-925763D01*
X295186Y-925793D01*
X295171D01*
X295127Y-925822D01*
X295053Y-925852D01*
X294964Y-925911D01*
X294875Y-925970D01*
X294757Y-926074D01*
X294653Y-926178D01*
X294549Y-926311D01*
X294534Y-926326D01*
X294505Y-926385D01*
X294461Y-926459D01*
X294416Y-926578D01*
X294372Y-926726D01*
X294312Y-926903D01*
X294283Y-927111D01*
X294253Y-927333D01*
X293987D01*
X294090Y-925097D01*
X301894D01*
X301998Y-927333D01*
D02*
G37*
G36*
X316865Y-925111D02*
X316984D01*
X317265Y-925126D01*
X317591Y-925156D01*
X317931Y-925215D01*
X318257Y-925274D01*
X318553Y-925363D01*
X318568D01*
X318583Y-925378D01*
X318672Y-925408D01*
X318820Y-925482D01*
X318983Y-925571D01*
X319190Y-925704D01*
X319398Y-925852D01*
X319605Y-926044D01*
X319797Y-926266D01*
X319827Y-926296D01*
X319886Y-926370D01*
X319960Y-926504D01*
X320064Y-926681D01*
X320153Y-926903D01*
X320242Y-927155D01*
X320301Y-927436D01*
X320316Y-927747D01*
Y-927762D01*
Y-927792D01*
Y-927866D01*
X320301Y-927940D01*
X320286Y-928044D01*
X320271Y-928162D01*
X320212Y-928428D01*
X320123Y-928725D01*
X319990Y-929051D01*
X319901Y-929199D01*
X319797Y-929361D01*
X319664Y-929510D01*
X319531Y-929658D01*
X319516Y-929672D01*
X319501Y-929687D01*
X319457Y-929717D01*
X319383Y-929776D01*
X319309Y-929820D01*
X319220Y-929880D01*
X319101Y-929954D01*
X318968Y-930013D01*
X318820Y-930087D01*
X318657Y-930146D01*
X318479Y-930220D01*
X318287Y-930265D01*
X318080Y-930309D01*
X317857Y-930354D01*
X317606Y-930368D01*
X317354Y-930383D01*
X317132D01*
X317013Y-930368D01*
X316895D01*
X316599Y-930339D01*
X316584D01*
X316525Y-930324D01*
X316451D01*
X316347Y-930309D01*
X316214Y-930280D01*
X316080Y-930250D01*
X315755Y-930191D01*
Y-932975D01*
Y-932990D01*
Y-933019D01*
Y-933064D01*
Y-933123D01*
X315770Y-933271D01*
X315784Y-933448D01*
X315799Y-933641D01*
X315844Y-933833D01*
X315888Y-933982D01*
X315918Y-934056D01*
X315947Y-934100D01*
X315962Y-934115D01*
X315992Y-934145D01*
X316066Y-934189D01*
X316154Y-934248D01*
X316258Y-934307D01*
X316391Y-934352D01*
X316554Y-934381D01*
X316747Y-934396D01*
X317117D01*
Y-934663D01*
X313045D01*
Y-934396D01*
X313504D01*
X313608Y-934381D01*
X313726Y-934352D01*
X313874Y-934307D01*
X314007Y-934233D01*
X314141Y-934145D01*
X314259Y-934011D01*
Y-933996D01*
X314289Y-933967D01*
X314303Y-933893D01*
X314333Y-933804D01*
X314363Y-933656D01*
X314377Y-933478D01*
X314407Y-933256D01*
Y-932975D01*
Y-926785D01*
Y-926770D01*
Y-926740D01*
Y-926696D01*
Y-926637D01*
X314392Y-926489D01*
X314377Y-926311D01*
X314363Y-926118D01*
X314333Y-925941D01*
X314274Y-925778D01*
X314244Y-925719D01*
X314215Y-925674D01*
X314200Y-925659D01*
X314170Y-925630D01*
X314096Y-925571D01*
X314007Y-925511D01*
X313889Y-925467D01*
X313756Y-925408D01*
X313593Y-925378D01*
X313400Y-925363D01*
X313045D01*
Y-925097D01*
X316747D01*
X316865Y-925111D01*
D02*
G37*
G36*
X375210D02*
X375373D01*
X375535Y-925126D01*
X375906Y-925156D01*
X376276Y-925200D01*
X376616Y-925260D01*
X376779Y-925289D01*
X376927Y-925334D01*
X376942D01*
X376957Y-925348D01*
X377046Y-925378D01*
X377179Y-925437D01*
X377357Y-925511D01*
X377549Y-925630D01*
X377757Y-925763D01*
X377964Y-925941D01*
X378156Y-926148D01*
X378171Y-926178D01*
X378231Y-926252D01*
X378319Y-926385D01*
X378408Y-926548D01*
X378497Y-926755D01*
X378586Y-926992D01*
X378645Y-927273D01*
X378660Y-927570D01*
Y-927585D01*
Y-927614D01*
Y-927658D01*
X378645Y-927718D01*
X378630Y-927881D01*
X378586Y-928088D01*
X378527Y-928325D01*
X378423Y-928577D01*
X378275Y-928843D01*
X378082Y-929095D01*
X378053Y-929125D01*
X377979Y-929199D01*
X377831Y-929317D01*
X377638Y-929450D01*
X377401Y-929598D01*
X377090Y-929761D01*
X376720Y-929895D01*
X376305Y-930013D01*
X378290Y-932753D01*
X378304Y-932767D01*
X378319Y-932797D01*
X378349Y-932841D01*
X378408Y-932901D01*
X378527Y-933064D01*
X378689Y-933271D01*
X378867Y-933478D01*
X379060Y-933686D01*
X379252Y-933863D01*
X379356Y-933952D01*
X379445Y-934011D01*
X379474Y-934026D01*
X379534Y-934056D01*
X379637Y-934115D01*
X379785Y-934174D01*
X379978Y-934248D01*
X380185Y-934307D01*
X380437Y-934352D01*
X380718Y-934396D01*
Y-934663D01*
X378156D01*
X374913Y-930191D01*
X374706D01*
X374514Y-930206D01*
X374010D01*
X373936Y-930191D01*
Y-932975D01*
Y-932990D01*
Y-933019D01*
Y-933064D01*
Y-933123D01*
X373951Y-933271D01*
X373966Y-933448D01*
X373980Y-933641D01*
X374025Y-933833D01*
X374069Y-933982D01*
X374099Y-934056D01*
X374129Y-934100D01*
X374143Y-934115D01*
X374173Y-934145D01*
X374247Y-934189D01*
X374336Y-934248D01*
X374440Y-934307D01*
X374573Y-934352D01*
X374736Y-934381D01*
X374928Y-934396D01*
X375298D01*
Y-934663D01*
X371226D01*
Y-934396D01*
X371685D01*
X371789Y-934381D01*
X371907Y-934352D01*
X372055Y-934307D01*
X372189Y-934233D01*
X372322Y-934145D01*
X372440Y-934011D01*
Y-933996D01*
X372470Y-933967D01*
X372485Y-933893D01*
X372514Y-933804D01*
X372544Y-933656D01*
X372559Y-933478D01*
X372589Y-933256D01*
Y-932975D01*
Y-926785D01*
Y-926770D01*
Y-926740D01*
Y-926696D01*
Y-926637D01*
X372574Y-926489D01*
X372559Y-926311D01*
X372544Y-926118D01*
X372500Y-925941D01*
X372455Y-925778D01*
X372411Y-925719D01*
X372381Y-925674D01*
X372366Y-925659D01*
X372337Y-925630D01*
X372263Y-925571D01*
X372189Y-925511D01*
X372070Y-925467D01*
X371937Y-925408D01*
X371774Y-925378D01*
X371582Y-925363D01*
X371226D01*
Y-925097D01*
X375061D01*
X375210Y-925111D01*
D02*
G37*
G36*
X356388D02*
X356596Y-925126D01*
X356818Y-925141D01*
X357055Y-925156D01*
X357588Y-925215D01*
X358121Y-925304D01*
X358639Y-925423D01*
X358876Y-925497D01*
X359098Y-925585D01*
X359113D01*
X359143Y-925615D01*
X359202Y-925645D01*
X359291Y-925674D01*
X359380Y-925733D01*
X359498Y-925793D01*
X359750Y-925970D01*
X360031Y-926192D01*
X360342Y-926474D01*
X360638Y-926814D01*
X360772Y-927007D01*
X360905Y-927214D01*
X360920Y-927229D01*
X360934Y-927259D01*
X360964Y-927333D01*
X361008Y-927422D01*
X361068Y-927525D01*
X361127Y-927658D01*
X361186Y-927807D01*
X361245Y-927970D01*
X361305Y-928147D01*
X361364Y-928354D01*
X361423Y-928577D01*
X361482Y-928799D01*
X361556Y-929302D01*
X361586Y-929569D01*
Y-929835D01*
Y-929865D01*
Y-929924D01*
X361571Y-930028D01*
Y-930161D01*
X361556Y-930339D01*
X361527Y-930531D01*
X361482Y-930753D01*
X361438Y-931005D01*
X361364Y-931257D01*
X361290Y-931524D01*
X361186Y-931805D01*
X361068Y-932086D01*
X360934Y-932367D01*
X360772Y-932634D01*
X360579Y-932915D01*
X360372Y-933167D01*
X360357Y-933182D01*
X360312Y-933226D01*
X360224Y-933300D01*
X360120Y-933404D01*
X359972Y-933508D01*
X359794Y-933641D01*
X359587Y-933774D01*
X359350Y-933908D01*
X359069Y-934056D01*
X358758Y-934189D01*
X358417Y-934322D01*
X358047Y-934426D01*
X357647Y-934529D01*
X357203Y-934604D01*
X356729Y-934648D01*
X356226Y-934663D01*
X351976D01*
Y-934396D01*
X352435D01*
X352538Y-934381D01*
X352657Y-934352D01*
X352805Y-934307D01*
X352938Y-934233D01*
X353071Y-934145D01*
X353175Y-934011D01*
X353190Y-933996D01*
X353205Y-933967D01*
X353234Y-933893D01*
X353264Y-933804D01*
X353293Y-933656D01*
X353308Y-933478D01*
X353338Y-933256D01*
Y-932975D01*
Y-926785D01*
Y-926770D01*
Y-926740D01*
Y-926696D01*
Y-926637D01*
X353323Y-926489D01*
X353308Y-926311D01*
X353293Y-926118D01*
X353249Y-925941D01*
X353205Y-925778D01*
X353160Y-925719D01*
X353131Y-925674D01*
X353116Y-925659D01*
X353086Y-925630D01*
X353012Y-925571D01*
X352938Y-925511D01*
X352820Y-925467D01*
X352686Y-925408D01*
X352523Y-925378D01*
X352331Y-925363D01*
X351976D01*
Y-925097D01*
X356211D01*
X356388Y-925111D01*
D02*
G37*
G36*
X347489Y-925363D02*
X347222D01*
X347059Y-925378D01*
X346704Y-925423D01*
X346541Y-925467D01*
X346408Y-925511D01*
X346393D01*
X346363Y-925541D01*
X346304Y-925571D01*
X346245Y-925615D01*
X346111Y-925733D01*
X346052Y-925807D01*
X345993Y-925882D01*
Y-925896D01*
X345978Y-925926D01*
X345963Y-926000D01*
X345949Y-926089D01*
X345919Y-926237D01*
X345904Y-926415D01*
X345889Y-926652D01*
Y-926933D01*
Y-932960D01*
Y-932990D01*
Y-933049D01*
Y-933152D01*
X345904Y-933286D01*
X345934Y-933552D01*
X345963Y-933671D01*
X345993Y-933774D01*
X346008Y-933804D01*
X346067Y-933863D01*
X346141Y-933937D01*
X346260Y-933996D01*
X346274D01*
X346304Y-934011D01*
X346363D01*
X346467Y-934026D01*
X346600Y-934041D01*
X346793D01*
X346911Y-934056D01*
X348318D01*
X348422Y-934041D01*
X348658D01*
X348910Y-934026D01*
X349162Y-933996D01*
X349399Y-933952D01*
X349503Y-933937D01*
X349591Y-933908D01*
X349606Y-933893D01*
X349665Y-933878D01*
X349754Y-933833D01*
X349858Y-933774D01*
X349991Y-933700D01*
X350125Y-933597D01*
X350258Y-933478D01*
X350406Y-933330D01*
X350421Y-933315D01*
X350465Y-933256D01*
X350539Y-933152D01*
X350643Y-933004D01*
X350746Y-932827D01*
X350880Y-932605D01*
X351013Y-932323D01*
X351146Y-932012D01*
X351383Y-932071D01*
X350569Y-934663D01*
X343180D01*
Y-934396D01*
X343638D01*
X343742Y-934381D01*
X343861Y-934352D01*
X344009Y-934307D01*
X344142Y-934233D01*
X344275Y-934145D01*
X344394Y-934011D01*
Y-933996D01*
X344423Y-933967D01*
X344438Y-933893D01*
X344468Y-933804D01*
X344497Y-933656D01*
X344512Y-933478D01*
X344542Y-933256D01*
Y-932975D01*
Y-926785D01*
Y-926770D01*
Y-926740D01*
Y-926696D01*
Y-926637D01*
X344527Y-926489D01*
X344512Y-926311D01*
X344497Y-926118D01*
X344453Y-925941D01*
X344408Y-925778D01*
X344364Y-925719D01*
X344334Y-925674D01*
X344320Y-925659D01*
X344290Y-925630D01*
X344216Y-925571D01*
X344142Y-925511D01*
X344024Y-925467D01*
X343890Y-925408D01*
X343727Y-925378D01*
X343535Y-925363D01*
X343180D01*
Y-925097D01*
X347489D01*
Y-925363D01*
D02*
G37*
G36*
X337908Y-924889D02*
X338041D01*
X338204Y-924919D01*
X338382Y-924949D01*
X338604Y-924993D01*
X338826Y-925052D01*
X339078Y-925126D01*
X339329Y-925215D01*
X339596Y-925334D01*
X339862Y-925467D01*
X340144Y-925630D01*
X340410Y-925822D01*
X340677Y-926044D01*
X340943Y-926296D01*
X340958Y-926311D01*
X341003Y-926355D01*
X341077Y-926444D01*
X341166Y-926548D01*
X341269Y-926696D01*
X341373Y-926859D01*
X341506Y-927051D01*
X341639Y-927273D01*
X341758Y-927510D01*
X341891Y-927792D01*
X341995Y-928073D01*
X342113Y-928384D01*
X342187Y-928725D01*
X342261Y-929080D01*
X342306Y-929450D01*
X342321Y-929835D01*
Y-929865D01*
Y-929924D01*
X342306Y-930043D01*
Y-930191D01*
X342276Y-930383D01*
X342247Y-930605D01*
X342202Y-930842D01*
X342143Y-931109D01*
X342069Y-931375D01*
X341980Y-931672D01*
X341876Y-931968D01*
X341743Y-932279D01*
X341580Y-932575D01*
X341403Y-932886D01*
X341180Y-933167D01*
X340943Y-933448D01*
X340929Y-933463D01*
X340884Y-933508D01*
X340810Y-933582D01*
X340692Y-933671D01*
X340558Y-933774D01*
X340410Y-933908D01*
X340218Y-934026D01*
X340010Y-934159D01*
X339774Y-934307D01*
X339522Y-934426D01*
X339255Y-934544D01*
X338959Y-934663D01*
X338648Y-934752D01*
X338322Y-934826D01*
X337967Y-934870D01*
X337612Y-934885D01*
X337523D01*
X337419Y-934870D01*
X337286Y-934855D01*
X337108Y-934840D01*
X336916Y-934811D01*
X336693Y-934766D01*
X336456Y-934707D01*
X336205Y-934633D01*
X335938Y-934544D01*
X335657Y-934426D01*
X335376Y-934293D01*
X335094Y-934145D01*
X334828Y-933952D01*
X334561Y-933745D01*
X334295Y-933493D01*
X334280Y-933478D01*
X334235Y-933434D01*
X334176Y-933345D01*
X334087Y-933241D01*
X333984Y-933093D01*
X333880Y-932930D01*
X333747Y-932738D01*
X333628Y-932516D01*
X333510Y-932264D01*
X333391Y-931982D01*
X333273Y-931686D01*
X333169Y-931361D01*
X333080Y-931020D01*
X333021Y-930650D01*
X332977Y-930265D01*
X332962Y-929850D01*
Y-929820D01*
Y-929746D01*
X332977Y-929628D01*
X332991Y-929465D01*
X333006Y-929273D01*
X333051Y-929051D01*
X333095Y-928799D01*
X333154Y-928532D01*
X333243Y-928236D01*
X333332Y-927940D01*
X333465Y-927629D01*
X333613Y-927318D01*
X333791Y-927007D01*
X333998Y-926711D01*
X334235Y-926415D01*
X334502Y-926133D01*
X334517Y-926118D01*
X334561Y-926074D01*
X334635Y-926015D01*
X334739Y-925941D01*
X334872Y-925837D01*
X335035Y-925733D01*
X335213Y-925615D01*
X335405Y-925497D01*
X335642Y-925393D01*
X335879Y-925274D01*
X336146Y-925171D01*
X336427Y-925067D01*
X336738Y-924993D01*
X337049Y-924934D01*
X337389Y-924889D01*
X337730Y-924875D01*
X337819D01*
X337908Y-924889D01*
D02*
G37*
G36*
X307817D02*
X307951D01*
X308114Y-924919D01*
X308291Y-924949D01*
X308514Y-924993D01*
X308736Y-925052D01*
X308987Y-925126D01*
X309239Y-925215D01*
X309506Y-925334D01*
X309772Y-925467D01*
X310054Y-925630D01*
X310320Y-925822D01*
X310587Y-926044D01*
X310853Y-926296D01*
X310868Y-926311D01*
X310912Y-926355D01*
X310986Y-926444D01*
X311075Y-926548D01*
X311179Y-926696D01*
X311283Y-926859D01*
X311416Y-927051D01*
X311549Y-927273D01*
X311668Y-927510D01*
X311801Y-927792D01*
X311905Y-928073D01*
X312023Y-928384D01*
X312097Y-928725D01*
X312171Y-929080D01*
X312215Y-929450D01*
X312230Y-929835D01*
Y-929865D01*
Y-929924D01*
X312215Y-930043D01*
Y-930191D01*
X312186Y-930383D01*
X312156Y-930605D01*
X312112Y-930842D01*
X312053Y-931109D01*
X311979Y-931375D01*
X311890Y-931672D01*
X311786Y-931968D01*
X311653Y-932279D01*
X311490Y-932575D01*
X311312Y-932886D01*
X311090Y-933167D01*
X310853Y-933448D01*
X310838Y-933463D01*
X310794Y-933508D01*
X310720Y-933582D01*
X310601Y-933671D01*
X310468Y-933774D01*
X310320Y-933908D01*
X310128Y-934026D01*
X309920Y-934159D01*
X309683Y-934307D01*
X309432Y-934426D01*
X309165Y-934544D01*
X308869Y-934663D01*
X308558Y-934752D01*
X308232Y-934826D01*
X307877Y-934870D01*
X307521Y-934885D01*
X307432D01*
X307329Y-934870D01*
X307195Y-934855D01*
X307018Y-934840D01*
X306825Y-934811D01*
X306603Y-934766D01*
X306366Y-934707D01*
X306115Y-934633D01*
X305848Y-934544D01*
X305567Y-934426D01*
X305285Y-934293D01*
X305004Y-934145D01*
X304737Y-933952D01*
X304471Y-933745D01*
X304204Y-933493D01*
X304189Y-933478D01*
X304145Y-933434D01*
X304086Y-933345D01*
X303997Y-933241D01*
X303893Y-933093D01*
X303790Y-932930D01*
X303656Y-932738D01*
X303538Y-932516D01*
X303419Y-932264D01*
X303301Y-931982D01*
X303183Y-931686D01*
X303079Y-931361D01*
X302990Y-931020D01*
X302931Y-930650D01*
X302886Y-930265D01*
X302871Y-929850D01*
Y-929820D01*
Y-929746D01*
X302886Y-929628D01*
X302901Y-929465D01*
X302916Y-929273D01*
X302960Y-929051D01*
X303005Y-928799D01*
X303064Y-928532D01*
X303153Y-928236D01*
X303242Y-927940D01*
X303375Y-927629D01*
X303523Y-927318D01*
X303701Y-927007D01*
X303908Y-926711D01*
X304145Y-926415D01*
X304412Y-926133D01*
X304426Y-926118D01*
X304471Y-926074D01*
X304545Y-926015D01*
X304648Y-925941D01*
X304782Y-925837D01*
X304945Y-925733D01*
X305122Y-925615D01*
X305315Y-925497D01*
X305552Y-925393D01*
X305789Y-925274D01*
X306055Y-925171D01*
X306337Y-925067D01*
X306648Y-924993D01*
X306959Y-924934D01*
X307299Y-924889D01*
X307640Y-924875D01*
X307729D01*
X307817Y-924889D01*
D02*
G37*
%LPC*%
G36*
X316673Y-925674D02*
X316525D01*
X316421Y-925689D01*
X316288Y-925704D01*
X316140Y-925733D01*
X315962Y-925778D01*
X315755Y-925822D01*
Y-929791D01*
X315770D01*
X315814Y-929806D01*
X315888Y-929820D01*
X315977Y-929835D01*
X316184Y-929865D01*
X316406Y-929895D01*
X316451D01*
X316510Y-929909D01*
X316584D01*
X316732Y-929924D01*
X316924D01*
X317013Y-929909D01*
X317161Y-929895D01*
X317339Y-929850D01*
X317532Y-929791D01*
X317739Y-929687D01*
X317961Y-929554D01*
X318168Y-929361D01*
X318198Y-929332D01*
X318257Y-929258D01*
X318331Y-929139D01*
X318435Y-928962D01*
X318539Y-928754D01*
X318613Y-928503D01*
X318672Y-928221D01*
X318701Y-927896D01*
Y-927866D01*
Y-927792D01*
X318687Y-927673D01*
X318672Y-927510D01*
X318642Y-927333D01*
X318583Y-927140D01*
X318524Y-926948D01*
X318435Y-926740D01*
X318420Y-926711D01*
X318391Y-926652D01*
X318331Y-926563D01*
X318257Y-926444D01*
X318154Y-926311D01*
X318035Y-926178D01*
X317887Y-926044D01*
X317724Y-925941D01*
X317709Y-925926D01*
X317650Y-925896D01*
X317547Y-925852D01*
X317428Y-925807D01*
X317265Y-925763D01*
X317087Y-925719D01*
X316895Y-925689D01*
X316673Y-925674D01*
D02*
G37*
G36*
X375017Y-925630D02*
X374854D01*
X374736Y-925645D01*
X374573Y-925659D01*
X374395Y-925689D01*
X374173Y-925719D01*
X373936Y-925763D01*
Y-929746D01*
X374084D01*
X374158Y-929761D01*
X374454D01*
X374543Y-929746D01*
X374662D01*
X374780Y-929732D01*
X375076Y-929687D01*
X375402Y-929613D01*
X375743Y-929510D01*
X376068Y-929361D01*
X376217Y-929273D01*
X376350Y-929169D01*
X376365D01*
X376379Y-929139D01*
X376454Y-929065D01*
X376572Y-928932D01*
X376705Y-928754D01*
X376824Y-928532D01*
X376942Y-928280D01*
X377016Y-927984D01*
X377046Y-927821D01*
Y-927658D01*
Y-927644D01*
Y-927614D01*
Y-927570D01*
X377031Y-927510D01*
X377016Y-927347D01*
X376972Y-927140D01*
X376912Y-926903D01*
X376809Y-926652D01*
X376676Y-926415D01*
X376483Y-926192D01*
X376454Y-926163D01*
X376379Y-926104D01*
X376261Y-926015D01*
X376098Y-925911D01*
X375891Y-925807D01*
X375639Y-925719D01*
X375343Y-925659D01*
X375017Y-925630D01*
D02*
G37*
G36*
X356122D02*
X356003D01*
X355885Y-925645D01*
X355707Y-925659D01*
X355485Y-925674D01*
X355248Y-925719D01*
X354982Y-925763D01*
X354685Y-925837D01*
Y-933967D01*
X354700D01*
X354730Y-933982D01*
X354774D01*
X354833Y-933996D01*
X354996Y-934026D01*
X355204Y-934056D01*
X355441Y-934100D01*
X355692Y-934130D01*
X355944Y-934145D01*
X356181Y-934159D01*
X356255D01*
X356344Y-934145D01*
X356448D01*
X356596Y-934130D01*
X356759Y-934100D01*
X356936Y-934071D01*
X357129Y-934011D01*
X357336Y-933952D01*
X357558Y-933878D01*
X357780Y-933789D01*
X358017Y-933671D01*
X358239Y-933552D01*
X358461Y-933389D01*
X358684Y-933226D01*
X358891Y-933019D01*
X358906Y-933004D01*
X358935Y-932960D01*
X358995Y-932901D01*
X359054Y-932812D01*
X359143Y-932693D01*
X359231Y-932545D01*
X359335Y-932382D01*
X359439Y-932190D01*
X359528Y-931982D01*
X359631Y-931746D01*
X359720Y-931494D01*
X359809Y-931212D01*
X359868Y-930916D01*
X359927Y-930591D01*
X359957Y-930250D01*
X359972Y-929895D01*
Y-929865D01*
Y-929806D01*
Y-929702D01*
X359957Y-929569D01*
X359942Y-929406D01*
X359913Y-929213D01*
X359883Y-928991D01*
X359839Y-928769D01*
X359779Y-928517D01*
X359705Y-928266D01*
X359617Y-928014D01*
X359513Y-927747D01*
X359394Y-927496D01*
X359246Y-927244D01*
X359084Y-927007D01*
X358891Y-926785D01*
X358876Y-926770D01*
X358847Y-926740D01*
X358787Y-926681D01*
X358698Y-926607D01*
X358595Y-926518D01*
X358461Y-926415D01*
X358313Y-926311D01*
X358136Y-926207D01*
X357943Y-926104D01*
X357736Y-926000D01*
X357514Y-925896D01*
X357262Y-925807D01*
X357010Y-925733D01*
X356729Y-925674D01*
X356433Y-925645D01*
X356122Y-925630D01*
D02*
G37*
G36*
X337597Y-925378D02*
X337478D01*
X337389Y-925393D01*
X337271Y-925408D01*
X337152Y-925423D01*
X336856Y-925497D01*
X336531Y-925615D01*
X336353Y-925689D01*
X336190Y-925778D01*
X336012Y-925896D01*
X335849Y-926030D01*
X335686Y-926178D01*
X335538Y-926341D01*
X335524Y-926355D01*
X335494Y-926400D01*
X335450Y-926459D01*
X335390Y-926563D01*
X335316Y-926681D01*
X335227Y-926829D01*
X335153Y-927007D01*
X335065Y-927214D01*
X334961Y-927451D01*
X334887Y-927703D01*
X334798Y-927999D01*
X334724Y-928310D01*
X334665Y-928651D01*
X334620Y-929006D01*
X334591Y-929406D01*
X334576Y-929820D01*
Y-929850D01*
Y-929924D01*
Y-930043D01*
X334591Y-930206D01*
X334605Y-930398D01*
X334635Y-930620D01*
X334665Y-930872D01*
X334694Y-931153D01*
X334754Y-931435D01*
X334813Y-931731D01*
X334902Y-932027D01*
X334991Y-932338D01*
X335109Y-932634D01*
X335242Y-932915D01*
X335390Y-933182D01*
X335568Y-933434D01*
X335583Y-933448D01*
X335598Y-933478D01*
X335642Y-933523D01*
X335701Y-933582D01*
X335790Y-933656D01*
X335879Y-933730D01*
X335983Y-933819D01*
X336116Y-933908D01*
X336397Y-934085D01*
X336753Y-934233D01*
X336945Y-934293D01*
X337152Y-934337D01*
X337360Y-934367D01*
X337597Y-934381D01*
X337730D01*
X337819Y-934367D01*
X337937Y-934352D01*
X338071Y-934322D01*
X338219Y-934293D01*
X338382Y-934248D01*
X338559Y-934189D01*
X338737Y-934130D01*
X338915Y-934041D01*
X339107Y-933937D01*
X339285Y-933819D01*
X339477Y-933671D01*
X339655Y-933508D01*
X339818Y-933330D01*
X339833Y-933315D01*
X339862Y-933286D01*
X339907Y-933212D01*
X339951Y-933123D01*
X340025Y-933019D01*
X340099Y-932871D01*
X340173Y-932708D01*
X340262Y-932516D01*
X340351Y-932308D01*
X340425Y-932057D01*
X340499Y-931790D01*
X340573Y-931494D01*
X340618Y-931153D01*
X340662Y-930813D01*
X340692Y-930428D01*
X340706Y-930013D01*
Y-929983D01*
Y-929909D01*
Y-929776D01*
X340692Y-929613D01*
X340677Y-929406D01*
X340662Y-929169D01*
X340632Y-928917D01*
X340588Y-928636D01*
X340470Y-928029D01*
X340396Y-927733D01*
X340292Y-927422D01*
X340188Y-927125D01*
X340055Y-926844D01*
X339907Y-926578D01*
X339729Y-926341D01*
X339714Y-926326D01*
X339700Y-926296D01*
X339655Y-926252D01*
X339581Y-926192D01*
X339507Y-926118D01*
X339418Y-926030D01*
X339300Y-925956D01*
X339181Y-925852D01*
X339033Y-925763D01*
X338870Y-925689D01*
X338693Y-925600D01*
X338500Y-925526D01*
X338293Y-925467D01*
X338085Y-925423D01*
X337849Y-925393D01*
X337597Y-925378D01*
D02*
G37*
G36*
X307507D02*
X307388D01*
X307299Y-925393D01*
X307181Y-925408D01*
X307062Y-925423D01*
X306766Y-925497D01*
X306440Y-925615D01*
X306263Y-925689D01*
X306100Y-925778D01*
X305922Y-925896D01*
X305759Y-926030D01*
X305596Y-926178D01*
X305448Y-926341D01*
X305433Y-926355D01*
X305404Y-926400D01*
X305359Y-926459D01*
X305300Y-926563D01*
X305226Y-926681D01*
X305137Y-926829D01*
X305063Y-927007D01*
X304974Y-927214D01*
X304871Y-927451D01*
X304797Y-927703D01*
X304708Y-927999D01*
X304634Y-928310D01*
X304575Y-928651D01*
X304530Y-929006D01*
X304500Y-929406D01*
X304486Y-929820D01*
Y-929850D01*
Y-929924D01*
Y-930043D01*
X304500Y-930206D01*
X304515Y-930398D01*
X304545Y-930620D01*
X304575Y-930872D01*
X304604Y-931153D01*
X304663Y-931435D01*
X304723Y-931731D01*
X304811Y-932027D01*
X304900Y-932338D01*
X305019Y-932634D01*
X305152Y-932915D01*
X305300Y-933182D01*
X305478Y-933434D01*
X305493Y-933448D01*
X305507Y-933478D01*
X305552Y-933523D01*
X305611Y-933582D01*
X305700Y-933656D01*
X305789Y-933730D01*
X305892Y-933819D01*
X306026Y-933908D01*
X306307Y-934085D01*
X306662Y-934233D01*
X306855Y-934293D01*
X307062Y-934337D01*
X307270Y-934367D01*
X307507Y-934381D01*
X307640D01*
X307729Y-934367D01*
X307847Y-934352D01*
X307980Y-934322D01*
X308128Y-934293D01*
X308291Y-934248D01*
X308469Y-934189D01*
X308647Y-934130D01*
X308824Y-934041D01*
X309017Y-933937D01*
X309195Y-933819D01*
X309387Y-933671D01*
X309565Y-933508D01*
X309728Y-933330D01*
X309743Y-933315D01*
X309772Y-933286D01*
X309817Y-933212D01*
X309861Y-933123D01*
X309935Y-933019D01*
X310009Y-932871D01*
X310083Y-932708D01*
X310172Y-932516D01*
X310261Y-932308D01*
X310335Y-932057D01*
X310409Y-931790D01*
X310483Y-931494D01*
X310527Y-931153D01*
X310572Y-930813D01*
X310601Y-930428D01*
X310616Y-930013D01*
Y-929983D01*
Y-929909D01*
Y-929776D01*
X310601Y-929613D01*
X310587Y-929406D01*
X310572Y-929169D01*
X310542Y-928917D01*
X310498Y-928636D01*
X310379Y-928029D01*
X310305Y-927733D01*
X310202Y-927422D01*
X310098Y-927125D01*
X309965Y-926844D01*
X309817Y-926578D01*
X309639Y-926341D01*
X309624Y-926326D01*
X309609Y-926296D01*
X309565Y-926252D01*
X309491Y-926192D01*
X309417Y-926118D01*
X309328Y-926030D01*
X309209Y-925956D01*
X309091Y-925852D01*
X308943Y-925763D01*
X308780Y-925689D01*
X308602Y-925600D01*
X308410Y-925526D01*
X308202Y-925467D01*
X307995Y-925423D01*
X307758Y-925393D01*
X307507Y-925378D01*
D02*
G37*
%LPD*%
D12*
X10000Y-270000D02*
G03*
X20599Y-280599I5300J-5300D01*
G01*
Y-159401D02*
G03*
X10000Y-170000I-5300J-5300D01*
G01*
X-20599Y-280599D02*
G03*
X-10000Y-270000I5300J5300D01*
G01*
Y-170000D02*
G03*
X-20599Y-159401I-5300J5300D01*
G01*
X45001Y-256200D02*
Y-183800D01*
X20599Y-280599D02*
X45001Y-256200D01*
X20599Y-159401D02*
X45001Y-183800D01*
X10000Y-270000D02*
X30000Y-250000D01*
X10000Y-170000D02*
X30000Y-190000D01*
X-45001Y-256200D02*
Y-183800D01*
Y-256200D02*
X-20599Y-280599D01*
X-30000Y-250000D02*
X-10000Y-270000D01*
X-45001Y-183800D02*
X-20599Y-159401D01*
X-30000Y-190000D02*
X-10000Y-170000D01*
D19*
X30000Y-250000D02*
Y-190000D01*
X-30000Y-250000D02*
Y-190000D01*
D20*
X-100970Y124460D02*
D03*
X-92070D02*
D03*
X-100970Y116840D02*
D03*
X-92070D02*
D03*
X-226700Y-64770D02*
D03*
X-217800D02*
D03*
X216000Y40000D02*
D03*
X224900D02*
D03*
X-27450Y106000D02*
D03*
X-18550D02*
D03*
X-85550Y34000D02*
D03*
X-94450D02*
D03*
X-51900Y30000D02*
D03*
X-43000D02*
D03*
X-89707Y-71150D02*
D03*
X-80807D02*
D03*
X-132070Y-39370D02*
D03*
X-140970D02*
D03*
X-114300Y-48260D02*
D03*
X-105400D02*
D03*
X-195450Y-419000D02*
D03*
X-186550D02*
D03*
X-26400Y-64787D02*
D03*
X-17500D02*
D03*
X47550Y-320000D02*
D03*
X56450D02*
D03*
Y-335000D02*
D03*
X47550D02*
D03*
Y-305000D02*
D03*
X56450D02*
D03*
X-60367Y-1592D02*
D03*
X-69267D02*
D03*
X-23900Y147000D02*
D03*
X-15000D02*
D03*
X-37450Y137000D02*
D03*
X-28550D02*
D03*
X-45000D02*
D03*
X-53900D02*
D03*
D21*
X-173990Y-36830D02*
D03*
X-58215Y273881D02*
D03*
X13970Y-32414D02*
D03*
X-76000Y-29000D02*
D03*
Y-52000D02*
D03*
X12000Y98000D02*
D03*
X-146646Y-483350D02*
D03*
X210468Y-79000D02*
D03*
X-26778Y-36941D02*
D03*
X-199500Y-253000D02*
D03*
D22*
X184947Y154503D02*
D03*
X180608Y159343D02*
D03*
X176270Y164183D02*
D03*
X171931Y169023D02*
D03*
X156666Y155339D02*
D03*
X161006Y150500D02*
D03*
X165344Y145659D02*
D03*
X169683Y140820D02*
D03*
D24*
X82000Y-95000D02*
D03*
X-82000D02*
D03*
D25*
X57500Y-75750D02*
D03*
X52500D02*
D03*
X47500D02*
D03*
X42500D02*
D03*
X37500D02*
D03*
X32500D02*
D03*
X27500D02*
D03*
X22500D02*
D03*
X17500D02*
D03*
X12500D02*
D03*
X7500D02*
D03*
X2500D02*
D03*
X-2500D02*
D03*
X-7500D02*
D03*
X-12500D02*
D03*
X-17500D02*
D03*
X-22500D02*
D03*
X-27500D02*
D03*
X-32500D02*
D03*
X-37500D02*
D03*
X-42500D02*
D03*
X-47500D02*
D03*
X-52500D02*
D03*
X-57500D02*
D03*
D26*
X-71675Y233213D02*
D03*
X-66723Y215908D02*
D03*
X-57590Y218521D02*
D03*
X-62542Y235827D02*
D03*
D27*
X217240Y54813D02*
D03*
D28*
X222679Y59752D02*
D03*
X230243Y62357D02*
D03*
X227638Y69921D02*
D03*
X225033Y77485D02*
D03*
X222429Y85049D02*
D03*
X219825Y92614D02*
D03*
X212260Y90009D02*
D03*
X204696Y87404D02*
D03*
X207301Y79840D02*
D03*
X209905Y72276D02*
D03*
X212510Y64712D02*
D03*
X215114Y57148D02*
D03*
D29*
X-17000Y59500D02*
D03*
Y66500D02*
D03*
X-92000Y95000D02*
D03*
Y102000D02*
D03*
D30*
X-236274Y-88706D02*
D03*
X-217274D02*
D03*
Y-114706D02*
D03*
X-226774D02*
D03*
X-236274D02*
D03*
D31*
X-226701Y-9949D02*
D03*
D32*
Y3251D02*
D03*
D33*
X-244264Y-134908D02*
D03*
D34*
X-225264D02*
D03*
D35*
X-191770Y-122510D02*
D03*
Y-113710D02*
D03*
X225000Y28400D02*
D03*
Y19600D02*
D03*
X-28000Y-453600D02*
D03*
Y-462400D02*
D03*
X-109000Y-450600D02*
D03*
Y-459400D02*
D03*
X-89248Y-430600D02*
D03*
Y-439400D02*
D03*
X3000Y42600D02*
D03*
Y51400D02*
D03*
X-7000Y42600D02*
D03*
Y51400D02*
D03*
X-9354Y-39974D02*
D03*
Y-31174D02*
D03*
X-51000Y-56400D02*
D03*
Y-47600D02*
D03*
X-60000Y-56378D02*
D03*
Y-47578D02*
D03*
X-101642Y93500D02*
D03*
Y102300D02*
D03*
X-96000Y19300D02*
D03*
Y10500D02*
D03*
X124217Y-216400D02*
D03*
Y-207600D02*
D03*
X132217D02*
D03*
Y-216400D02*
D03*
X-15000Y138400D02*
D03*
Y129600D02*
D03*
X-7000D02*
D03*
Y138400D02*
D03*
X1000Y129600D02*
D03*
Y138400D02*
D03*
X77098Y142400D02*
D03*
Y133600D02*
D03*
X85644Y128639D02*
D03*
Y137439D02*
D03*
X56000Y147548D02*
D03*
Y138748D02*
D03*
X64600Y138747D02*
D03*
Y147547D02*
D03*
X83000Y99600D02*
D03*
Y108400D02*
D03*
X75000D02*
D03*
Y99600D02*
D03*
X67000D02*
D03*
Y108400D02*
D03*
X217000Y28400D02*
D03*
Y19600D02*
D03*
D36*
X-203200Y-93340D02*
D03*
Y-102240D02*
D03*
Y-113660D02*
D03*
Y-122560D02*
D03*
X96000Y129450D02*
D03*
Y120550D02*
D03*
X-35000Y43350D02*
D03*
Y34450D02*
D03*
X-98000Y76000D02*
D03*
Y84900D02*
D03*
X-94127Y-28597D02*
D03*
Y-19697D02*
D03*
X192217Y-214550D02*
D03*
Y-223450D02*
D03*
Y-200450D02*
D03*
Y-191550D02*
D03*
X12000Y117550D02*
D03*
Y126450D02*
D03*
X-29000Y-387650D02*
D03*
Y-378750D02*
D03*
X58000Y-401050D02*
D03*
Y-409950D02*
D03*
X-89215Y-458450D02*
D03*
Y-449550D02*
D03*
X-109000Y-469550D02*
D03*
Y-478450D02*
D03*
X-28000Y-479450D02*
D03*
Y-470550D02*
D03*
X120345Y-266731D02*
D03*
Y-275631D02*
D03*
X132345D02*
D03*
Y-266731D02*
D03*
X8000Y-59450D02*
D03*
Y-50550D02*
D03*
X-42000Y145550D02*
D03*
Y154450D02*
D03*
X234000Y18450D02*
D03*
Y9550D02*
D03*
X95000Y194550D02*
D03*
Y203450D02*
D03*
X-53000Y-1550D02*
D03*
Y-10450D02*
D03*
X-40000D02*
D03*
Y-1550D02*
D03*
X124217Y-223550D02*
D03*
Y-232450D02*
D03*
D37*
X-260680Y-86206D02*
D03*
Y-107206D02*
D03*
D38*
X-206502Y-154940D02*
D03*
X-220218D02*
D03*
D39*
X-217274Y-74930D02*
D03*
X-226074D02*
D03*
X-186600Y-428000D02*
D03*
X-195400D02*
D03*
X-33700Y-64000D02*
D03*
X-42500D02*
D03*
X-33700Y-53000D02*
D03*
X-42500D02*
D03*
X-68600Y34000D02*
D03*
X-77400D02*
D03*
X-140970Y-48260D02*
D03*
X-132170D02*
D03*
X3600Y71000D02*
D03*
X12400D02*
D03*
X24000Y97000D02*
D03*
X32800D02*
D03*
Y89000D02*
D03*
X24000D02*
D03*
X56400Y80000D02*
D03*
X47600D02*
D03*
X60600Y126000D02*
D03*
X69400D02*
D03*
Y118000D02*
D03*
X60600D02*
D03*
X-49400Y8000D02*
D03*
X-40600D02*
D03*
Y16000D02*
D03*
X-49400D02*
D03*
D41*
X148877Y183212D02*
D03*
X141046Y188936D02*
D03*
X133215Y194660D02*
D03*
X125384Y200384D02*
D03*
X117123Y189081D02*
D03*
X124954Y183357D02*
D03*
X132785Y177633D02*
D03*
X140616Y171909D02*
D03*
D42*
X-95045Y223912D02*
D03*
X-88598Y208724D02*
D03*
D43*
X-99401Y203801D02*
D03*
X-106634Y218631D02*
D03*
D44*
X-40313Y240900D02*
D03*
X-37589Y224626D02*
D03*
D45*
X-22000Y-335000D02*
D03*
X22000D02*
D03*
Y-320000D02*
D03*
X-22000D02*
D03*
X22000Y-305000D02*
D03*
X-22000D02*
D03*
D46*
X120345Y-285931D02*
D03*
Y-302431D02*
D03*
X132345D02*
D03*
Y-285931D02*
D03*
D47*
X160217Y-215000D02*
D03*
Y-192500D02*
D03*
D48*
X176467Y-203750D02*
D03*
X143967D02*
D03*
D49*
X166967Y-208000D02*
D03*
Y-199500D02*
D03*
X153467D02*
D03*
Y-208000D02*
D03*
D50*
X-120861Y26797D02*
D03*
X-151361D02*
D03*
D51*
X63268Y57675D02*
D03*
X92732D02*
D03*
D52*
X129000Y-50750D02*
D03*
D53*
X129000Y50750D02*
D03*
D54*
X235100Y-579995D02*
D03*
X197000D02*
D03*
X133500D02*
D03*
X95400D02*
D03*
X19200D02*
D03*
X-18900Y-580000D02*
D03*
X-196700D02*
D03*
X-234800D02*
D03*
X-95100D02*
D03*
X-133200D02*
D03*
X247800D02*
D03*
X184300D02*
D03*
X171600D02*
D03*
X158900D02*
D03*
X146200D02*
D03*
X82700D02*
D03*
X70000D02*
D03*
X57300D02*
D03*
X44600D02*
D03*
X31900D02*
D03*
X-184000D02*
D03*
X-171300D02*
D03*
X-158600D02*
D03*
X-145900D02*
D03*
X-82400D02*
D03*
X-69700D02*
D03*
X-57000D02*
D03*
X-44300D02*
D03*
X-31600D02*
D03*
X-247500D02*
D03*
D55*
X-75500Y100000D02*
D03*
X-54500D02*
D03*
D56*
X-194000Y-332000D02*
D03*
Y-345000D02*
D03*
Y-319463D02*
D03*
D57*
X-180800Y-332000D02*
D03*
Y-345000D02*
D03*
Y-319463D02*
D03*
D58*
X95853Y-338853D02*
D03*
X102147Y-345147D02*
D03*
X138147Y-446147D02*
D03*
X131853Y-439853D02*
D03*
X171853Y-399853D02*
D03*
X178147Y-406147D02*
D03*
D59*
X-146147Y-324147D02*
D03*
X-139853Y-317853D02*
D03*
D60*
X-81897Y225009D02*
D03*
X-78853Y216646D02*
D03*
D61*
X-50117Y226061D02*
D03*
X-52043Y234750D02*
D03*
D62*
X209491Y112050D02*
D03*
X202002Y107241D02*
D03*
D63*
X164889Y-406889D02*
D03*
X171111Y-413111D02*
D03*
X124889Y-446889D02*
D03*
X131111Y-453111D02*
D03*
D64*
X-139111Y-331111D02*
D03*
X-132889Y-324889D02*
D03*
D65*
X118648Y213283D02*
D03*
X113352Y206255D02*
D03*
X103325Y207717D02*
D03*
X108621Y214745D02*
D03*
D66*
X-14000Y29843D02*
D03*
X0D02*
D03*
D67*
X17050Y39676D02*
D03*
X48550D02*
D03*
X17250Y59000D02*
D03*
X48750D02*
D03*
D68*
X-34000Y61142D02*
D03*
Y74858D02*
D03*
D69*
X-12000Y93750D02*
D03*
Y78250D02*
D03*
D70*
X-117293Y-62502D02*
D03*
Y-93998D02*
D03*
D71*
X-153483Y-5425D02*
D03*
Y-37424D02*
D03*
D72*
X-107000Y-8474D02*
D03*
Y-26864D02*
D03*
X-135000D02*
D03*
Y-17364D02*
D03*
Y-7864D02*
D03*
D73*
X-54817Y75272D02*
D03*
X-59817Y75272D02*
D03*
X-64817D02*
D03*
X-69817Y75272D02*
D03*
X-74817Y75272D02*
D03*
Y45022D02*
D03*
X-69817Y45022D02*
D03*
X-64817D02*
D03*
X-59817D02*
D03*
X-54817D02*
D03*
D75*
X-49692Y57647D02*
D03*
X-49692Y62647D02*
D03*
X-79942Y57647D02*
D03*
X-79942Y62647D02*
D03*
D76*
X-22500Y15625D02*
D03*
X-22500Y-15625D02*
D03*
X-17500Y-15625D02*
D03*
X-12500Y-15625D02*
D03*
X-7500Y-15625D02*
D03*
X-2500D02*
D03*
X2500Y-15625D02*
D03*
X7500Y-15625D02*
D03*
X12500Y-15625D02*
D03*
X17500D02*
D03*
X22500D02*
D03*
X22500Y15625D02*
D03*
X17500Y15625D02*
D03*
X12500Y15625D02*
D03*
X7500Y15625D02*
D03*
X2500D02*
D03*
X-2500Y15625D02*
D03*
X-7500Y15625D02*
D03*
X-12500Y15625D02*
D03*
X-17500D02*
D03*
D77*
X-23125Y7500D02*
D03*
X-23125Y2500D02*
D03*
X-23125Y-2500D02*
D03*
X-23125Y-7500D02*
D03*
X23125Y-7500D02*
D03*
X23125Y-2500D02*
D03*
X23125Y2500D02*
D03*
X23125Y7500D02*
D03*
D78*
X-150203Y-369645D02*
D03*
X-160279Y-379721D02*
D03*
X-170355Y-389797D02*
D03*
X-99645Y-420203D02*
D03*
X-109721Y-430279D02*
D03*
X-119797Y-440355D02*
D03*
D79*
X-106362Y-376362D02*
D03*
X-163638Y-433638D02*
D03*
D80*
X152248Y-394875D02*
D03*
X115125Y-357752D02*
D03*
X174875Y-372248D02*
D03*
X137752Y-335125D02*
D03*
X112248Y-434875D02*
D03*
X75125Y-397752D02*
D03*
X134875Y-412248D02*
D03*
X97752Y-375125D02*
D03*
D81*
X-16000Y-431250D02*
D03*
Y-378750D02*
D03*
X16000Y-431250D02*
D03*
Y-378750D02*
D03*
D82*
X183183Y118922D02*
D03*
X180459Y123115D02*
D03*
X185906Y114729D02*
D03*
X198653Y123008D02*
D03*
X195930Y127201D02*
D03*
X193207Y131394D02*
D03*
D83*
X187514Y130797D02*
D03*
X183321Y128074D02*
D03*
X191599Y115326D02*
D03*
X195792Y118049D02*
D03*
D84*
X-64817Y60147D02*
D03*
D85*
X-270750Y12545D02*
D03*
X270755Y-12545D02*
D03*
D86*
X-273250Y-155D02*
D03*
Y-12855D02*
D03*
X273255Y12855D02*
D03*
Y155D02*
D03*
D87*
X-228347Y-369985D02*
D03*
D88*
X-225692Y-344724D02*
D03*
X-224364Y-332093D02*
D03*
X-223037Y-319463D02*
D03*
X-227019Y-357354D02*
D03*
X-194119Y-466700D02*
D03*
Y-454000D02*
D03*
D89*
X-197990Y197990D02*
D03*
X-236149Y150444D02*
D03*
X236149D02*
D03*
X263113Y95765D02*
D03*
X-263113D02*
D03*
X150444Y236149D02*
D03*
X-150444D02*
D03*
X197990Y197990D02*
D03*
D90*
X-97131Y274706D02*
D03*
X-42288Y288287D02*
D03*
D91*
X150Y-542135D02*
D03*
X-114150D02*
D03*
X-215750Y-542135D02*
D03*
X216050Y-542135D02*
D03*
X114450D02*
D03*
D92*
X-194119Y-441300D02*
D03*
D93*
X140110Y94500D02*
D03*
X87000Y-233000D02*
D03*
X-87000D02*
D03*
X-140010Y94500D02*
D03*
D94*
X-273500Y-25045D02*
D03*
Y25045D02*
D03*
X273505Y-25045D02*
D03*
Y25045D02*
D03*
D95*
X-252500Y-12855D02*
D03*
Y-155D02*
D03*
Y12545D02*
D03*
X252505Y-12545D02*
D03*
Y155D02*
D03*
Y12855D02*
D03*
D96*
X-281250Y-155D02*
D03*
X281255Y155D02*
D03*
X-28307Y171402D02*
D03*
X-113195Y-214000D02*
D03*
X-36307Y171402D02*
D03*
X-113195Y-206000D02*
D03*
D97*
X-121565Y-391565D02*
D03*
D98*
X-148435Y-418435D02*
D03*
M02*
